<?xml version="1.0" encoding="utf-8"?>
<!-- Generator: Adobe Illustrator 27.6.1, SVG Export Plug-In . SVG Version: 6.00 Build 0)  -->
<svg version="1.1" id="Layer_1" xmlns="http://www.w3.org/2000/svg" xmlns:xlink="http://www.w3.org/1999/xlink" x="0px" y="0px"
	 viewBox="0 0 1451.3 1451.3" style="enable-background:new 0 0 1451.3 1451.3;" xml:space="preserve">
<style type="text/css">
	.st0{fill:#231F20;}
</style>
<path class="st0" d="M433.1,844.5l7.9,7.3l-0.6,0.1L724,1126.7l287.6-279.4l17.4-17.1v-0.6c67.4-72.7,104.9-166.8,105.5-264.6
	c0.5-97.7-36-192.2-102.8-265.5L723.7,0L433.1,281.4c-77,74.6-120.3,175.9-120.3,281.4S356.1,769.8,433.1,844.5z M1000.5,653.4
	c-14.4,41.4-38.4,78.9-70,109.5h0.3l-206.3,200l0,0h-0.1l0,0l-81.7-79l370.3-358.5C1019,568.3,1014.8,612.3,1000.5,653.4z
	 M930.4,363.4c13.5,13.2,25.8,27.5,36.4,43.1h-0.3L558.2,802l0,0l-33.5-32.4l-1-1c-16.2-14.7-30.6-31.2-43.1-49.2l408.7-395.7
	L930.4,363.4z M454.1,455c14.8-34.6,36.4-65.6,63.3-91.5l206.5-199.8l81,78.3L434.5,600.5c-1.7-12.4-2.4-24.8-2.4-37.4
	C431.9,526,439.4,489.1,454.1,455z M1132,817h-4.8c-15.7,65.4-48.1,125.3-93.9,174.4v0.6l-17.4,17.1l-287.8,279.2l-283.9-274.9
	c-2.7-2.4-5.3-4.8-7.9-7.3C382.8,954.8,345,889.2,327.5,817h-4.6c-11.9,63.2-7.9,128.5,12,189.6c21.1,65.2,58.9,123.6,109.5,169.9
	L728,1451.3l287.8-279.2l17.4-17.1v-0.6c41.6-44.7,72.5-98.8,89.7-157.5C1140.1,938.4,1143,876.8,1132,817z"/>
</svg>