<svg xmlns="http://www.w3.org/2000/svg" width="541" height="585" fill="none" viewBox="0 0 541 585">
  <g clip-path="url(#a)">
    <path fill="#2F3933" d="M224.102 340.89s63.376 19.138 96.697 146.373c0 0-2.256 18.062 8.093 19.843l2.608 2.954-4.167 22.034H182.297l41.805-191.204Zm127.509 106.427 9.358 29.402 13.863-17.078 2.321-7.225-.939-4.819c-6.859-3.573-15.245-3.156-24.603-.28Z"/>
    <path fill="#2F3933" d="m325.098 475.435 12.35 28.965-10.146 2.706-4.284-3.547-2.217-16.296 4.297-11.828Z"/>
    <path stroke="#2F3933" stroke-miterlimit="10" stroke-width="2.608" d="m333.262 494.723-8.477-20.58c2.335-6.664 6.371-12.037 11.086-16.902 4.401-4.336 9.781-7.433 15.741-9.898l6.586 22.281-4.643 23.547-18.976 7.773-1.317-6.221Z"/>
    <path fill="#2F3933" d="M199.635 280.344a3.35 3.35 0 0 1-1.617 1.304c-.313.131-.652.242-.945.352l-1.872 37.463c.467.139.898.377 1.265.697.431.366.841.77 1.252 1.194l2.054-41.082-.137.072ZM378.208 449.24c-1.389-3.912-2.608-7.27-3.645-10.322-7.531-21.48-9.318-26.579-33.947-69.506-15.65-27.302-34.287-49.493-55.356-65.938-22.105-17.254-46.402-27.851-72.381-31.607a3.626 3.626 0 0 1-1.004 2.498c25.777 3.606 49.878 14.052 71.794 31.163 20.802 16.243 39.204 38.173 54.704 65.208 24.498 42.718 26.083 47.257 33.738 69.069l1.957 5.647c-2.517-1.174-5.941-1.78-9.977-1.683-16.798.411-37.391 12.481-42.914 38.023-.058.287-.182.9-.332 1.741-4.669-23.67-17.131-55.205-33.413-83.59-13.185-22.986-33.908-49.643-63.05-61.733a2.69 2.69 0 0 1-.3 2.706c28.157 11.953 48.254 37.919 61.087 60.325 18.741 32.662 32.363 69.459 34.711 93.306.084 5.165 1.141 10.433 4.642 12.722a7.382 7.382 0 0 0 4.135 1.187c3.26 0 7.309-1.741 12.246-5.217l-1.513-2.125c-6.143 4.356-10.786 5.744-13.433 4.003-1.845-1.219-2.791-3.86-3.195-6.983a82.714 82.714 0 0 0-.235-3.261 59.46 59.46 0 0 1 1.219-12.539c5.217-24.16 24.617-35.578 40.43-35.963 5.836-.137 10.466 1.441 11.62 3.913l.215.606 2.491-.782a5.871 5.871 0 0 0-.294-.868Z"/>
    <path stroke="#2F3933" stroke-miterlimit="10" stroke-width="2.608" d="m540.89 584.906-150.37-52.812H182.303l-80.584 52.812"/>
    <path fill="#2F3933" d="m247.095 169.033 20.28 17.946 7.375 11.509 4.46 10.062 5.412 17.743 6.782 8.144 8.529 6.052 10.225 4.486 12.976.88 12.084-1.78 11.9-4.225 15.728-7.004 24.858-14.606 17.743-9.782c-4.526-3.182-6.156-7.59-4.982-13.191l2.406-9.41 4.063-12.898.854-8.353-.574-11.086 9.214 1.155 5.98 3.599v-3.599l-11.673-24.643-20.038-24.179-16.863-14.77-14.574-9.455-18.702-8.979-21.03-6.482-14.893-3.065-41.14 1.605-17.945 3.058-15.161 17.378 42.483 11.007a43.894 43.894 0 0 0-2.458 20.782l6.612 38.388m-100.245-43.37-11.086 14.679-14.241 27.57s-6.449 21.518-6.586 22.171c-.137.652-2.126 14.521-2.126 14.521l9.442-9.044 17.359-8.973 13.309-4.649 11.255-3.808 13.909-5.745 3.84-11.685.437-11.803-11.274-23.234h-24.238Z"/>
    <path fill="#1FAD96" stroke="#2F3933" stroke-miterlimit="10" stroke-width="2.608" d="M195.62 163.811s1.167 19.562 19.562 19.562c18.396 0 20.411-19.562 20.411-19.562l6.416 3.208s-2.608 23.912-26.827 23.912c-24.218 0-26.559-24.206-26.559-24.206l6.997-2.914Z"/>
    <path stroke="#2F3933" stroke-miterlimit="10" stroke-width="2.608" d="M361.548 330.046A144.58 144.58 0 0 0 431.1 206.385c0-79.906-64.778-144.69-144.685-144.69-79.906 0-144.69 64.784-144.69 144.69a144.697 144.697 0 0 0 83.61 131.186l-43.038 194.523h208.217l-15.65-70.783"/>
    <path stroke="#2F3933" stroke-miterlimit="10" stroke-width="2.608" d="M240.334 239.901s14.183 56.992 86.075 47.752c67.425-8.672 100.082-44.909 100.082-44.909"/>
    <path stroke="#2F3933" stroke-miterlimit="10" stroke-width="2.608" d="M281.414 218.24s11.953 39.047 56.666 24.473c42.307-13.785 66.317-35.167 66.317-35.167-8.216-11.372-1.409-22.451 1.956-32.363 3.365-9.912 0-21.388 0-21.388s10.108-3.515 17.372 6.749"/>
    <path fill="#fff" d="M424.873 219.348s13.694-14.919 2.804-34.847Z"/>
    <path stroke="#2F3933" stroke-miterlimit="10" stroke-width="2.608" d="M424.873 219.348s13.694-14.919 2.804-34.847m-16.21-27.101s1.343 9.025-3.776 10.779"/>
    <path fill="#fff" d="M126.871 253.452s-6.723 4.049-5.562 10.048c1.134 5.83 8.138 7.173 16.608 5.478 8.471-1.696 23.371-9.997 22.758-16.954-.581-6.645-4.643-7.871-12.611-7.173"/>
    <path stroke="#2F3933" stroke-miterlimit="10" stroke-width="2.608" d="M126.871 253.452s-6.723 4.049-5.562 10.048c1.134 5.83 8.138 7.173 16.608 5.478 8.471-1.696 23.371-9.997 22.758-16.954-.581-6.645-4.643-7.871-12.611-7.173"/>
    <path fill="#fff" d="M123.18 237.587s-8.261 3.874-7.551 9.938c.692 5.901 7.578 7.734 16.152 6.716 8.575-1.017 24.049-8.209 23.971-15.18-.078-6.664-4.043-8.197-12.037-8.125"/>
    <path stroke="#2F3933" stroke-miterlimit="10" stroke-width="2.608" d="M123.18 237.587s-8.261 3.874-7.551 9.938c.692 5.901 7.578 7.734 16.152 6.716 8.575-1.017 24.049-8.209 23.971-15.18-.078-6.664-4.043-8.197-12.037-8.125"/>
    <path fill="#fff" d="M144.041 226.939c-12.54-7.825-24.219-1.148-24.238 4.375 0 3.521 1.506 6.769 9.312 7.023 7.805.254 22.64-4.062 23.514-10.309.841-5.98-2.498-7.884-9.658-8.908"/>
    <path stroke="#2F3933" stroke-miterlimit="10" stroke-width="2.608" d="M144.041 226.939c-12.54-7.825-24.219-1.148-24.238 4.375 0 3.521 1.506 6.769 9.312 7.023 7.805.254 22.64-4.062 23.514-10.309.841-5.98-2.498-7.884-9.658-8.908"/>
    <path stroke="#2F3933" stroke-miterlimit="10" stroke-width="2.608" d="M130.704 231.313c1.872 1.689 2.537 4.115-1.011 7.036m-5.17 6.32c9.645-2.269 15.064 5.869 9.175 9.266m-5.216 5.894c4.069-.417 11.373-1.304 11.907 3.659a5.774 5.774 0 0 1-2.497 5.477m50.73-102.24s-29.572 6.52-45.913 22.712m52.91-25.627s16.915-3.11 16.204-16.785"/>
    <path fill="#2F3933" d="m240.092 241.062-5.262 8.288.333 12.631 3.091 9.782 11.685 11.737 17.782 8.803 18.689 13.596 26.657 25.979c23.658 27.838 41.12 59.992 54.814 90.79l-15.343-84.445 9.566-7.825s13.654-10.173 14.091-10.525c.437-.352 25.647-24.414 25.647-24.414l16.354-29.239 7.61-22.464-13.401 11.085-18.832 11.79-30.224 12.82-29.93 6.996-21.395 2.296-19.661-1.956-19.921-7.252-14.561-9.729-10.955-15.05-6.834-13.694Z"/>
    <path stroke="#2F3933" stroke-miterlimit="10" stroke-width="2.608" d="m362.103 330.398-9.566 7.825 1.448 7.408 13.902 77.063M228.185 163.08c-4.415 3.26-4.787 11.268-4.787 11.268"/>
    <path fill="#2F3933" d="M225.479 166.125s8.842 4.761 17.541 2.224l-15.422-5.471-2.119 3.247Z"/>
    <path fill="#fff" d="M242.941 105.24a5.912 5.912 0 0 1 5.543-3.058"/>
    <path stroke="#2F3933" stroke-miterlimit="10" stroke-width="2.608" d="M242.941 105.24a5.912 5.912 0 0 1 5.543-3.058"/>
    <path fill="#fff" d="M266.847 103.708a5.87 5.87 0 0 0-5.536-3.065"/>
    <path stroke="#2F3933" stroke-miterlimit="10" stroke-width="2.608" d="M266.847 103.708a5.87 5.87 0 0 0-5.536-3.065"/>
    <path fill="#fff" d="M234.831 249.377c5.81 27.237 43.95 34.56 43.95 34.56-37.899-3.827-41.635 39.015-66.988 46.409 0 0-22.954-13.694-39.66-35.212"/>
    <path stroke="#2F3933" stroke-miterlimit="10" stroke-width="2.608" d="M234.831 249.377c5.81 27.237 43.95 34.56 43.95 34.56-37.899-3.827-41.635 39.015-66.988 46.409 0 0-22.954-13.694-39.66-35.212"/>
    <path fill="#fff" stroke="#2F3933" stroke-miterlimit="10" stroke-width="2.608" d="M277.346 298.445s7.943-11.32-.052-14.215c-4.936-1.787-12.689-.222-19.96 3.495 6.749 1.63 15.422 7.649 20.012 10.72Z"/>
    <path stroke="#2F3933" stroke-miterlimit="10" stroke-width="2.608" d="M437.119 323.225s18.174-24.544 27.12-23.423c8.947 1.122 8.406 14.431 24.493 5.83 16.086-8.601 31.886-24.01 31.886-24.01M193.481 0s-16.25 18.532-25.216 17.606c-15.931-1.65-17.033 21.578-35.213 19.81-20.104-1.956-31.359 26.006-31.359 26.006m62.928 301.621s-70.125 33.08-52.747 56.268c17.378 23.188 66.166-38.349 35.864-30.765-43.161 10.785-123.896 70.425-136.455 117.975"/>
    <path fill="#fff" d="M256.636 407.005a19.03 19.03 0 0 0-7.584 7.583 19.022 19.022 0 0 0-7.583-7.583 19.025 19.025 0 0 0 7.583-7.584 19.033 19.033 0 0 0 7.584 7.584Zm49.78-291.553a9.433 9.433 0 0 0-3.743 3.743 9.484 9.484 0 0 0-3.743-3.743 9.401 9.401 0 0 0 3.743-3.743 9.351 9.351 0 0 0 3.743 3.743Zm3.742 94.656a9.32 9.32 0 0 0-3.743 3.743 9.401 9.401 0 0 0-3.743-3.743 9.477 9.477 0 0 0 3.743-3.743 9.389 9.389 0 0 0 3.743 3.743Zm-134.284-58.661a9.477 9.477 0 0 0-3.743 3.743 9.422 9.422 0 0 0-3.736-3.743 9.39 9.39 0 0 0 3.736-3.743 9.44 9.44 0 0 0 3.743 3.743Zm172.821 341.698a9.395 9.395 0 0 0-3.743 3.743 9.326 9.326 0 0 0-3.743-3.743 9.389 9.389 0 0 0 3.743-3.743 9.477 9.477 0 0 0 3.743 3.743Z"/>
    <path stroke="#fff" stroke-miterlimit="10" stroke-width="1.956" d="m372.666 184.931-16.197-19.491m-24.063-28.965 16.198 19.49m28.158-15.395-19.491 16.198m-28.959 24.068 19.491-16.197m-98.896 338.64-.352-13.981m-.514-20.769.352 13.974m17.457 2.967-13.981.345m-20.769.516 13.98-.346"/>
    <path fill="#fff" d="M243.02 168.349s32.669 6.762 45.482 57.872c0 0-39.562-8.751-42.796 26.97"/>
    <path stroke="#2F3933" stroke-miterlimit="10" stroke-width="2.608" d="M243.02 168.349s32.669 6.762 45.482 57.872c0 0-39.562-8.751-42.796 26.97"/>
    <path stroke="#2F3933" stroke-miterlimit="10" stroke-width="2.608" d="M244.245 206.365c.652 12.09 5.008 67.484-70.132 68.554"/>
    <path stroke="#2F3933" stroke-miterlimit="10" stroke-width="2.608" d="m228.184 187.977 15.76 30.263s.183 18.643-9.129 32.363m-37.454-66.102s-14.235 46.67-36.713 67.523"/>
    <path fill="#fff" d="M275.624 92.577c-7.975 7.825-5.393 21.753-4.982 26.99 19.563 15.571 12.246 39.216-9.625 46.865-33.191 11.614-52.662-24.779-52.662-24.779l-4.714-33.974 22.94-15.748 44.57-5.542 4.473 6.188Z"/>
    <path fill="#FF7F00" d="m219.304 124.464 9.26-.437c-16.465-41.199 26.95-22.556 30.993-32.259 58.968 26.605 58.642-59.255 19.276-58.192-30.322.822-26.97 38.59-26.97 38.59s-18.304-38.362-47.107-23.761c-14.822 7.512-14.567 37.82 2.922 43.259 0 0-8.96-5.295-20.534.417-15.559 7.675-23.756 43.977 14.345 39.849 0 0-9.983 2.224-9.298 10.485.684 8.262 16.302 6.469 19.745.476a7.36 7.36 0 0 0-.489-8.32l-7.173-5.908 1.017-6.56 5.497-2.641 5.634.209 4.617 4.91-1.735-.117Z"/>
    <path stroke="#2F3933" stroke-miterlimit="10" stroke-width="2.608" d="M275.624 92.576c-7.975 7.825-5.393 21.754-4.982 26.99 19.562 15.572 12.357 39.549-9.625 46.865C226.026 178.084 209.691 141 209.691 141"/>
    <path fill="#2F3933" d="M254.184 111.709c0-.886-.717-1.605-1.601-1.605s-1.601.719-1.601 1.605v7.486c0 .885.717 1.604 1.601 1.604s1.601-.719 1.601-1.604v-7.486Zm10.863 0c0-.886-.716-1.605-1.6-1.605-.885 0-1.601.719-1.601 1.605v7.486c0 .885.716 1.604 1.601 1.604.884 0 1.6-.719 1.6-1.604v-7.486Z"/>
    <path fill="#fff" d="M261.135 122.945a9.636 9.636 0 0 1 8.884-6.115 9.639 9.639 0 0 1 8.999 5.946 9.659 9.659 0 0 1-.016 7.433s-2.276 7.42-11.496 7.636"/>
    <path stroke="#2F3933" stroke-miterlimit="10" stroke-width="2.608" d="M261.135 122.945a9.636 9.636 0 0 1 8.884-6.115 9.639 9.639 0 0 1 8.999 5.946 9.659 9.659 0 0 1-.016 7.433s-2.276 7.42-11.496 7.636"/>
    <path fill="#fff" d="M220.321 124.939a7.952 7.952 0 0 0-13.991-2.509 7.957 7.957 0 0 0-.74 8.32 7.952 7.952 0 0 0 8.373 4.29"/>
    <path stroke="#2F3933" stroke-miterlimit="10" stroke-width="2.608" d="M220.321 124.939a7.952 7.952 0 0 0-13.991-2.509 7.957 7.957 0 0 0-.74 8.32 7.952 7.952 0 0 0 8.373 4.29"/>
    <path stroke="#2F3933" stroke-miterlimit="10" stroke-width="2.608" d="M213.853 123.765a3.56 3.56 0 0 0-1.154-.189 3.628 3.628 0 0 0-3.004 1.61 3.624 3.624 0 0 0-.335 3.392m3.456 7.531a3.623 3.623 0 0 0 4.917 3.209 3.73 3.73 0 0 0 1.193-.763m14.736 3.299c1.304 3.502 4.376 6.854 11.086 4.233m-8.68-49.943s-12.54-.06-11.131 14.45m-5.393-65.43s-20.019-3.052-25.353 21.519m50.055 40.05s4.786-4.154 9.129-3.912"/>
    <path fill="#FF7F00" d="M250.766 129.98a1.054 1.054 0 0 0 .737 1.226 1.075 1.075 0 0 0 1.415-.287c.208-.424-.111-1.011-.731-1.304a1.03 1.03 0 0 0-1.153.059c-.109.083-.2.187-.268.306Zm-10.929-1.806a1.046 1.046 0 0 0 1.148.835 1.065 1.065 0 0 0 1.154-.835c0-.476-.496-.88-1.154-.88-.659 0-1.174.404-1.148.88Zm6.305-4.395c-.078.463.45.932 1.161 1.082.711.15 1.383-.072 1.5-.535.117-.463-.391-.984-1.154-1.141-.763-.156-1.448.124-1.507.594Zm-6.07 9.918a.9.9 0 0 0 .913.841.907.907 0 0 0 .92-.841.921.921 0 0 0-1.539-.6.926.926 0 0 0-.294.6Zm-6.794-9.397c.118.457.789.685 1.5.542.711-.144 1.239-.613 1.167-1.083-.071-.469-.75-.756-1.506-.6-.756.157-1.278.685-1.161 1.141Zm-4.238 6.619a1.24 1.24 0 0 0 1.407.291 1.252 1.252 0 0 0 .745-1.23 1.042 1.042 0 0 0-1.049-.48 1.016 1.016 0 0 0-.38.141c-.619.267-.939.854-.723 1.278Z"/>
    <path stroke="#2F3933" stroke-miterlimit="10" stroke-width="2.608" d="M301.531 47.348s8.106 11.855 3.078 31.424"/>
    <path fill="#1FAD96" d="M335.354 551.956c-14.189-19.249-3.912-41.896-3.912-41.896a13.538 13.538 0 0 1-3.541-4.734 7.692 7.692 0 0 1 1.635-8.437 7.673 7.673 0 0 1 2.512-1.677c5.367-2.25 13.537-6.612 12.879-12.083-.972-8.092-.17-21.519 15.722-24.316 0 0 15.604-1.709 12.611 9.52-2.993 11.229-6.051 17.567-6.051 17.567l5.575-11.085 7.342 27.309-9.272 36.634-35.526 13.198"/>
    <path stroke="#2F3933" stroke-miterlimit="10" stroke-width="2.608" d="M335.354 551.956c-14.189-19.249-3.912-41.896-3.912-41.896a13.538 13.538 0 0 1-3.541-4.734 7.692 7.692 0 0 1 1.635-8.437 7.673 7.673 0 0 1 2.512-1.677c5.367-2.25 13.537-6.612 12.879-12.083-.972-8.092-.17-21.519 15.722-24.316 0 0 15.604-1.709 12.611 9.52-2.993 11.229-6.051 17.567-6.051 17.567l5.575-11.085 7.342 27.309-9.272 36.634-35.526 13.198"/>
    <path fill="#fff" stroke="#2F3933" stroke-miterlimit="10" stroke-width="2.608" d="M380.153 502.124c-15.174-8.621-10.909-18.206-10.909-18.206s12.213-39.354 40.761-32.768c25.216 5.817 18.702 42.484 18.702 42.484l-48.554 8.49Z"/>
    <path fill="#fff" stroke="#2F3933" stroke-miterlimit="10" stroke-width="2.608" d="M431.101 477.769s.783-24.995-28.639-17.665c-33.257 8.288-22.928 52.056-46.885 67.047-1.819 1.141-11.151 6.143-17.502 10.596a33.05 33.05 0 0 0-7.016 6.449s3.071 6.058 6.52 8.256l26.736-4.956 6.827-4.565 51.123-53.529 8.836-11.633Z"/>
    <path fill="#fff" stroke="#2F3933" stroke-miterlimit="10" stroke-width="2.608" d="M347.992 537.663c-5.093 2.856-16.439 9.86-12.637 14.294 15.702 18.297 97.245-17.404 95.745-74.175-.554-21.153-28.47-16.341-40.579-2.347-9.99 11.548-13.968 32.604-20.56 42.985-8.81 13.857-15.989 15.891-21.969 19.243Z"/>
    <path stroke="#2F3933" stroke-miterlimit="10" stroke-width="1.304" d="M403.29 506.617c1.689-4.697.262-9.51-3.188-10.751-3.45-1.241-7.616 1.561-9.305 6.258s-.262 9.511 3.188 10.751c3.45 1.241 7.616-1.561 9.305-6.258Z"/>
    <path stroke="#2F3933" stroke-miterlimit="10" stroke-width="1.304" d="M384.75 484.147c5.771-10.069 8.791-12.324 8.791-12.324 12.239-10.935 32-1.5 25.867 26.677-7.316 28.627-23.5 39-50 22m-11.211 12.305s30.218 6.86 11.738 19.399m24.955-55.459-4.369-21.31m9.598 20.462L406.408 468m-2.547 32.918 16.047-4.418m-16.717 9.015 12.057 4.577m-14.008.177 7.982 11.105"/>
    <path fill="#1FAD96" d="M367.235 485.9c-19.901 3.502-14.698 23.906-14.698 23.906Z"/>
    <path stroke="#2F3933" stroke-miterlimit="10" stroke-width="2.608" d="M367.235 485.9c-19.901 3.502-14.698 23.906-14.698 23.906"/>
    <path fill="#1FAD96" d="M364.752 500.918s-5.53-11.588 2.484-14.998Z"/>
    <path stroke="#2F3933" stroke-miterlimit="10" stroke-width="2.608" d="M364.752 500.918s-5.53-11.588 2.484-14.998"/>
    <path fill="#1FAD96" d="M358.196 506.023s-2.869-12.148 6.039-18.76Z"/>
    <path stroke="#2F3933" stroke-miterlimit="10" stroke-width="2.608" d="M358.196 506.023s-2.869-12.148 6.039-18.76"/>
    <path fill="#fff" d="M383.008 474.078s-4.74-2.608-4.056-9.057Z"/>
    <path stroke="#2F3933" stroke-miterlimit="10" stroke-width="2.608" d="M383.008 474.078s-4.74-2.608-4.056-9.057m31.626-6.299s-2.406-14.307-18.676-5.393m-51.735 48.795s-10.068 6.567-12.024 21.186m34.783-55.127s17.345-6.025 13.811-19.282"/>
    <path fill="#fff" stroke="#2F3933" stroke-miterlimit="10" stroke-width="2.608" d="M338.537 523.812c1.47 0 2.661-2.219 2.661-4.956 0-2.737-1.191-4.956-2.661-4.956-1.469 0-2.66 2.219-2.66 4.956 0 2.737 1.191 4.956 2.66 4.956Z"/>
    <path stroke="#2F3933" stroke-miterlimit="10" stroke-width="1.304" d="m419.212 478.121-16.478 20.026"/>
    <path fill="#fff" d="M351.924 462.621s-1.213-1.07 1.122-3.111c2.334-2.041.828 6.899 1.265 11.47.437 4.571 5.178-.873 14.346 2.185 0 0 6.912-13.603 1.708-15.65-5.203-2.048-16.667.795-16.667.795"/>
    <path stroke="#2F3933" stroke-miterlimit="10" stroke-width="2.608" d="M351.924 462.621s-1.213-1.07 1.122-3.111c2.334-2.041.828 6.899 1.265 11.47.437 4.571 5.178-.873 14.346 2.185 0 0 6.912-13.603 1.708-15.65-5.203-2.048-16.667.795-16.667.795m-3.227 36.269s-7.323-6.449-5.276-21.414"/>
    <path stroke="#2F3933" stroke-miterlimit="10" stroke-width="1.304" d="M372.34 514.037s14.74 14.461 32.568 2.463"/>
    <path stroke="#2F3933" stroke-miterlimit="10" stroke-width="1.308" d="M356.733 553.491c3.942-1.191 6.68-3.67 6.116-5.536-.564-1.867-4.217-2.416-8.158-1.225-3.941 1.191-6.679 3.669-6.115 5.536.564 1.867 4.216 2.415 8.157 1.225Z"/>
    <path fill="#1FAD96" d="M213.579 219.686a223.844 223.844 0 0 0 5.444-5.131c.538.6 1.07 1.207 1.595 1.821a218.688 218.688 0 0 1-9.924 8.991 7.9 7.9 0 0 1 .094-.92 8.692 8.692 0 0 1 2.766-4.83m10.193.676a226.98 226.98 0 0 1-11.082 9.861l-.625-.77-.132-.156c-.24-.324-.45-.67-.626-1.033a224.449 224.449 0 0 0 11.063-9.848c.263.312.52.625.782.932.275.32.504.676.682 1.057m-2.384 8.936a207.282 207.282 0 0 1-5.769 4.805 90.486 90.486 0 0 0-1.445-1.877 213.373 213.373 0 0 0 10.205-8.816 8.454 8.454 0 0 1-2.991 5.888Zm-11.744 2.04a206.287 206.287 0 0 1 5.08 6.682 225.466 225.466 0 0 0 8.135-6.614l.482-.419c3.986-3.71 5.005-9.636 2.309-13.359a203.84 203.84 0 0 0-6.139-7.102 245.077 245.077 0 0 1-7.621 7.302c-4.224 3.923-5.3 9.649-2.39 13.347l.144.175"/>
    <path fill="#1FAD96" d="M225.693 230.655a12.275 12.275 0 0 1-3.072 4.311l-.495.419a214.659 214.659 0 0 1-8.247 6.452 189.772 189.772 0 0 0-4.968-6.752 1.462 1.462 0 0 1-.131-.181 7.558 7.558 0 0 1-1.54-4.443h-.112c-1.17 2.966-.907 5.976.744 8.197l.132.175a160.778 160.778 0 0 1 4.849 6.814c2.808-2.015 5.592-4.1 8.354-6.257l.5-.4a11.685 11.685 0 0 0 4.099-8.335h-.113Z"/>
  </g>
  <defs>
    <clipPath id="a">
      <path fill="#fff" d="M0 0h540.89v584.906H0z"/>
    </clipPath>
  </defs>
</svg>
