<svg xmlns="http://www.w3.org/2000/svg" width="54" height="54" fill="none" viewBox="0 0 54 54">
  <path fill="#FF7F00" d="m4.57 31.014 9.96 9.979 10.14-10.17.612-.62a14.519 14.519 0 0 0 .096-19.298L14.51 0 4.236 10.236a14.509 14.509 0 0 0 0 20.492l.268.267"/>
  <path fill="#2F3933" d="M23.243 15.168c.49-1.86.99-3.719 1.47-5.583.542-2.107 1.794-3.338 3.667-3.562 1.65-.2 3.568.948 4.505 2.583 1.087 1.89.81 3.84.435 5.82a28.133 28.133 0 0 1-1.163 3.986c-.162.469-.212.885.524.768 4.66-.747 7.974 4.146 7.209 9.33-.28 1.903-1.048 3.588-2.659 4.757-.555.406-.605.878-.56 1.469.262 3.385-1.072 5.89-4.192 7.38-.32.15-.647.283-.801.621-1.486 3.27-4.349 4.198-7.597 4.26-2.98.058-5.671-.8-7.746-3.09a4.732 4.732 0 0 1-1.2-4.338 2.2 2.2 0 0 0-.296-1.711c-.76-1.263-.948-2.635-.927-4.117.021-1.633-.322-3.268-.388-4.908-.199-4.807.09-9.635-.293-14.431-.055-.69-.107-1.383-.178-2.07-.33-3.11.893-5.117 3.47-5.697 2.437-.547 5.001 1.088 5.94 3.754.515 1.547.473 3.159.78 4.779Zm5.855 9.306c-.59-1.042-.226-1.969 0-2.849.66-2.645 1.42-5.267 2.082-7.913.296-1.18.456-2.409-.034-3.586-.464-1.117-1.244-1.924-2.562-1.822-1.268.088-1.527 1.093-1.74 2.109a40.15 40.15 0 0 1-3.365 9.939c-.36.71-.993 1.36-.126 2.294-1.41 0-1.779-.826-1.944-1.661-.277-1.399-.419-2.826-.595-4.242-.225-1.805-.288-3.645-.785-5.393-.433-1.515-1.755-2.434-2.987-2.184-1.105.224-1.545.973-1.383 2.814.417 4.805.42 9.614.406 14.426v2.49c1.889-2.459 3.421-4.748 6.363-5.209 2.942-.46 5.263 1.151 7.662 2.474.524-1.041.773-2.156 2-2.843-.106.52-.169.851-.242 1.182-.301 1.343-.718 2.661.492 3.864.448.443.545 1.21.414 1.854-.261 1.268.564 1.505 1.48 1.607 1.21.132 2.012-.555 2.468-1.563 1.077-2.37 1.009-4.726-.4-6.95-1.001-1.583-2.675-2.028-4.454-1.421-1.307.411-1.933 1.52-2.75 2.583Zm-.485 18.269c-.459-.136-.838-.235-1.208-.362-.24-.084-.547-.175-.579-.456-.044-.42.364-.435.63-.52.785-.235 1.61-.389 2.393-.652 2.203-.742 3.807-2.07 4.252-4.476.217-1.169.477-2.343-1.31-2.513-.199-.015-.38-.203-.574-.302-.193-.099-3.74 1.5-3.79 1.737a.556.556 0 0 0 0 .13c.029.503.29 1.216-.286 1.393-.576.178-.838-.617-1.246-.97a3.519 3.519 0 0 1-.351-.386c-.648-.781-1.271-1.008-2.19-.26-.852.687-1.931.765-2.976.338-.616-.26-.736-.602-.068-.971.563-.31 1.477-.388 1.61-.974.134-.586-.785-.901-1.076-1.477-.183-.377-.684-.78-.396-1.145.372-.453.75.135 1.103.304.626.3 1.208.703 1.852.953 1.415.55 2.882.782 4.312.097 1.687-.808 1.834-2.68.262-3.659a32.875 32.875 0 0 0-3.552-1.924c-1.868-.86-3.557-.52-5.006.963-1.281 1.323-2.263 2.865-3.19 4.427-1.216 2.057-1.033 3.922.55 5.742 1.28 1.473 2.907 2.447 4.715 3.19.508.21 1.527.208 1.354.866-.152.586-1.137.42-1.776.394a9.28 9.28 0 0 1-3.508-.95c-.262-.126-.5-.43-.877-.337.563 3.417 8.094 4.864 10.928 1.8h-.002Z"/>
</svg>
