<svg xmlns="http://www.w3.org/2000/svg" width="541" height="585" fill="none" viewBox="0 0 541 585">
  <circle cx="508.408" cy="174.5" r="10" fill="#F60987"/>
  <path fill="#fff" d="M503.306 137.838a19.025 19.025 0 0 0-7.584 7.583 19.07 19.07 0 0 0-7.597-7.583 19.122 19.122 0 0 0 7.584-7.584 19.072 19.072 0 0 0 7.597 7.584Zm5.778 304.151a9.433 9.433 0 0 0-3.743 3.743 9.401 9.401 0 0 0-3.743-3.743 9.44 9.44 0 0 0 3.743-3.743 9.477 9.477 0 0 0 3.743 3.743Z"/>
  <path fill="#F60987" d="m478.605 467.368-3.143 6.286a4.878 4.878 0 0 0 .287 4.891l3.867 5.868a4.887 4.887 0 0 0 4.382 2.198l7.016-.411a4.91 4.91 0 0 0 4.095-2.7l3.143-6.286a4.878 4.878 0 0 0-.287-4.89l-3.867-5.869a4.9 4.9 0 0 0-4.382-2.198l-7.016.418a4.91 4.91 0 0 0-4.095 2.693Z"/>
  <path fill="#1FAD96" d="m53.231 57.247-3.15 6.28a4.93 4.93 0 0 0 .288 4.896l3.867 5.87a4.903 4.903 0 0 0 4.382 2.19l7.016-.41a4.897 4.897 0 0 0 4.095-2.7l3.15-6.286a4.918 4.918 0 0 0-.287-4.891l-3.874-5.869a4.897 4.897 0 0 0-4.382-2.197l-7.016.417a4.884 4.884 0 0 0-4.089 2.7Z"/>
  <path fill="#F60987" d="M121.595 499.939a4.322 4.322 0 0 1-4.147 1.956c-13.974-1.199-24.042-14.098-25.203-16.549a5.687 5.687 0 0 1-.28-4.239c.795-2.334 2.79-2.608 4.916-3.58l6.228-2.1c7.883-2.23 16.699 3.913 17.273 8.171l1.539 13.694c.033 1.024.431 1.513-.326 2.647Zm-10.139-157.511-11.242 3.013a2.981 2.981 0 0 0-2.088 2.123 2.983 2.983 0 0 0 .784 2.872l8.23 8.229a2.98 2.98 0 0 0 2.885.77 2.99 2.99 0 0 0 2.109-2.113l3-11.242a2.988 2.988 0 0 0-3.678-3.652Z"/>
</svg>
