<svg xmlns="http://www.w3.org/2000/svg" width="215" height="47" fill="none" viewBox="0 0 215 47">
  <path fill="#231F20" d="M38.822 10.599h1.504v4.103h.024l3.34-4.103h1.762l-3.832 4.596 4.042 4.807h-1.824l-3.488-4.178h-.024v4.178h-1.504v-9.403Zm11.606 9.711c-.985 2.712-2.07 3.07-3.253 3.07-.487.007-.97-.09-1.417-.284l.37-1.233c.304.158.642.242.985.247.801 0 1.442-.543 1.972-2.17l-3.02-6.691h1.59l2.108 4.93 1.664-4.93h1.553l-2.551 7.062Zm8.126-3.487c0-1.085-.357-2.083-1.553-2.083a3.784 3.784 0 0 0-1.786.542v.542c0 2.157.64 3.143 1.712 3.143 1.073 0 1.64-.961 1.64-2.144M53.71 15.75a6.335 6.335 0 0 1 1.072-3.894c.838-.998 1.812-1.146 4.77-1.922v1.368c-2.6.702-3.353.838-3.796 1.466a3.29 3.29 0 0 0-.48 1.356 4.103 4.103 0 0 1 1.97-.567c1.973 0 2.823 1.405 2.823 3.167a3.106 3.106 0 0 1-3.13 3.426c-1.873 0-3.18-1.232-3.18-4.437m10.463 1.11a2.464 2.464 0 0 0-1.085.222.936.936 0 0 0-.468.863.997.997 0 0 0 1.097 1.035 2.206 2.206 0 0 0 1.466-.641v-1.479h-1.01Zm1.121 2.465a2.822 2.822 0 0 1-1.972.838 2.083 2.083 0 0 1-2.206-2.07 1.935 1.935 0 0 1 1.134-1.837 4.165 4.165 0 0 1 1.726-.345h1.232v-.283c0-.888-.555-1.233-1.356-1.233a3.463 3.463 0 0 0-1.787.506l-.517-.986a5.066 5.066 0 0 1 2.514-.752c1.676 0 2.612.776 2.612 2.465v2.464c-.031.64.01 1.28.124 1.91h-1.282l-.222-.677Zm3.13-6.039h1.49v2.514h2.86V13.25h1.479v6.753h-1.48v-2.945h-2.858v2.945h-1.491V13.25Zm7.257 3.426a3.452 3.452 0 0 1 3.5-3.55c.624-.01 1.24.144 1.787.444v1.232a2.909 2.909 0 0 0-1.652-.443 2.12 2.12 0 0 0-2.107 2.341c0 1.467.801 2.292 2.021 2.292a3.105 3.105 0 0 0 1.602-.456l.432 1.023c-.661.4-1.422.606-2.194.592a3.228 3.228 0 0 1-3.352-3.475m6.655-3.426h1.491v2.735h.813c.888 0 .863-1.466 1.418-2.292a1.344 1.344 0 0 1 1.232-.616c.213-.002.424.027.628.086v1.233a1.23 1.23 0 0 0-.357 0 .567.567 0 0 0-.493.234c-.357.505-.394 1.577-1.023 1.947.358.11.567.382.801.863l1.233 2.55h-1.652l-.924-2.193c-.234-.493-.431-.678-.628-.678h-1.073v2.872h-1.466v-6.741Zm6.888 0h1.455v4.708c.21-.358.505-.826.912-1.405l2.23-3.303h1.43v6.753h-1.43v-4.707c-.197.332-.505.825-.9 1.405l-2.291 3.302H89.31V13.25Zm8.64-3.267h1.233c0 .641.271 1.233 1.085 1.233.813 0 1.072-.555 1.072-1.233h1.232a2.318 2.318 0 0 1-2.317 2.317 2.317 2.317 0 0 1-2.316-2.317m-.777 3.266h1.454v4.708c.21-.357.518-.826.912-1.405l2.305-3.303h1.417v6.754h-1.454v-3.29a11.967 11.967 0 0 1 0-1.418 20.7 20.7 0 0 1-.9 1.405l-2.292 3.303h-1.43l-.012-6.754Zm11.018.001h4.744l-.443 1.319h-2.81v5.434h-1.491V13.25Zm10.549 3.351c0-1.343-.628-2.304-1.75-2.304-1.121 0-1.774.961-1.774 2.305 0 1.343.64 2.329 1.774 2.329s1.75-.974 1.75-2.33Zm-5.053 0a3.319 3.319 0 0 1 .164-1.348 3.297 3.297 0 0 1 4.456-1.96 3.3 3.3 0 0 1 1.961 3.309 3.301 3.301 0 0 1-6.417 1.348 3.319 3.319 0 0 1-.164-1.349Zm7.676.075a3.45 3.45 0 0 1 2.141-3.292 3.452 3.452 0 0 1 1.359-.257 3.56 3.56 0 0 1 1.787.443v1.233a2.858 2.858 0 0 0-1.639-.493 2.105 2.105 0 0 0-2.019 1.463 2.109 2.109 0 0 0-.088.878c0 1.467.789 2.292 2.021 2.292a3.169 3.169 0 0 0 1.602-.456l.419 1.023a4.006 4.006 0 0 1-2.218.653 3.241 3.241 0 0 1-3.365-3.475m10.315 3.622c-.986 2.711-2.071 3.069-3.254 3.069-.487.007-.97-.09-1.417-.284l.37-1.232c.304.16.642.244.986.246.801 0 1.442-.542 1.971-2.169l-3.031-6.74h1.602l2.095 4.929 1.664-4.93h1.54l-2.526 7.111Zm7.839-5.828h-1.356a11.272 11.272 0 0 1-1.429 4.277h2.785V14.48Zm-4.818 4.301h.431c.973-1.232 1.442-2.637 1.959-5.533h3.907v5.533h.986v3.587h-1.38v-2.367h-4.486v2.367h-1.393l-.024-3.587Zm11.313-1.961a2.462 2.462 0 0 0-1.084.222.909.909 0 0 0-.469.863.975.975 0 0 0 .069.42.976.976 0 0 0 .604.571c.137.046.281.06.424.044a2.208 2.208 0 0 0 1.467-.64v-1.48h-1.011Zm1.109 2.465a2.78 2.78 0 0 1-1.972.838 2.07 2.07 0 0 1-2.193-2.07 1.933 1.933 0 0 1 1.134-1.836 4.164 4.164 0 0 1 1.725-.345h1.232v-.284c0-.887-.554-1.232-1.355-1.232a3.478 3.478 0 0 0-1.8.505l-.505-.986a5.026 5.026 0 0 1 2.539-.678c1.663 0 2.612.777 2.612 2.465v2.39c-.031.64.01 1.281.124 1.911h-1.233l-.308-.678Zm5.583-.381c1.344 0 2.046-.912 2.046-2.317a2.006 2.006 0 0 0-.539-1.62 1.993 1.993 0 0 0-1.593-.61 3.06 3.06 0 0 0-.9.122v4.24c.307.15.645.226.986.222m-2.464-5.398a7.391 7.391 0 0 1 2.464-.431 3.258 3.258 0 0 1 3.411 2.108c.167.452.231.936.188 1.416a3.338 3.338 0 0 1-3.476 3.55 3.14 3.14 0 0 1-1.084-.198v3.426h-1.479l-.024-9.871Zm7.134 3.131a3.458 3.458 0 0 1 2.141-3.292 3.449 3.449 0 0 1 1.359-.257 3.562 3.562 0 0 1 1.787.443v1.233a2.858 2.858 0 0 0-1.639-.493 2.12 2.12 0 0 0-2.12 2.341c0 1.467.801 2.292 2.034 2.292a3.09 3.09 0 0 0 1.589-.456l.432 1.023a4.094 4.094 0 0 1-2.231.653 3.23 3.23 0 0 1-3.352-3.475m8.22-2.181h-2.095v-1.257h6.039l-.407 1.257h-2.046v5.496h-1.491v-5.496Zm7.751 4.412c.813 0 1.232-.308 1.232-.912 0-.604-.394-.912-1.122-.912h-1.38v1.824h1.27Zm0-2.847c.714 0 1.084-.283 1.084-.863 0-.579-.407-.85-1.232-.85h-1.159v1.738l1.307-.025Zm-2.675-2.822h2.576c2.009 0 2.65.949 2.65 1.812a1.44 1.44 0 0 1-1.134 1.454 1.538 1.538 0 0 1 1.244 1.54c0 .937-.653 1.923-2.698 1.923h-2.699l.061-6.729Zm10.747 2.686c0-.862-.443-1.7-1.392-1.7a1.539 1.539 0 0 0-1.442 1.7h2.834Zm-2.822 1.048a1.905 1.905 0 0 0 .567 1.431 1.9 1.9 0 0 0 1.442.54 3.352 3.352 0 0 0 1.701-.455l.443 1.023a4.36 4.36 0 0 1-2.292.628 3.216 3.216 0 0 1-3.376-3.55c0-2.033 1.133-3.524 2.957-3.524 1.824 0 2.896 1.368 2.896 3.55v.357h-4.338Zm5.807-3.734h1.491v2.514h2.847V13.25h1.491v6.753h-1.491v-2.945h-2.847v2.945h-1.491V13.25Zm7.601 0h1.491v2.514h2.859V13.25h1.479v6.753h-1.479v-2.945h-2.859v2.945h-1.491V13.25Zm13.629 0h1.479v6.753h-1.479V13.25Zm-3.832 5.595c1.232 0 1.442-.444 1.442-.998 0-.555-.284-.986-1.442-.986a4.415 4.415 0 0 0-.69 0v1.935l.69.049Zm-2.182-5.595h1.516v2.465c.25-.018.502-.018.752 0 2.157 0 2.871.998 2.871 2.132 0 1.134-.677 2.181-2.896 2.181h-2.218l-.025-6.778Zm10.068-3.267h1.232c0 .641.284 1.233 1.097 1.233s1.072-.555 1.072-1.233h1.233a2.32 2.32 0 0 1-2.317 2.317 2.319 2.319 0 0 1-2.317-2.317Zm-.777 3.266h1.455v4.708c.209-.357.517-.826.912-1.405l2.304-3.303h1.43v6.754h-1.467v-4.708c-.209.333-.505.826-.899 1.405l-2.305 3.303h-1.43v-6.754ZM41.236 29.602a2.28 2.28 0 0 0-1.085.234.9.9 0 0 0-.468.85 1 1 0 0 0 1.097 1.048 2.206 2.206 0 0 0 1.466-.641v-1.528l-1.01.037Zm1.109 2.464a2.762 2.762 0 0 1-1.96.826 2.07 2.07 0 0 1-2.206-2.144 1.91 1.91 0 0 1 1.134-1.824 3.978 3.978 0 0 1 1.725-.357h1.233v-.296c0-.887-.555-1.233-1.356-1.233a3.698 3.698 0 0 0-1.8.493l-.504-.985a5.04 5.04 0 0 1 2.538-.666c1.664 0 2.613.764 2.613 2.465v2.6c-.032.64.01 1.28.123 1.91h-1.232l-.308-.788Zm3.143-6.039h4.745l-.444 1.307h-2.81v5.447h-1.49v-6.754Zm8.295 5.645c1.343 0 2.046-.912 2.046-2.305a1.997 1.997 0 0 0-2.132-2.28 3.117 3.117 0 0 0-.9.136v4.239c.31.14.646.212.986.21Zm-2.465-5.398a7.667 7.667 0 0 1 2.465-.42 3.254 3.254 0 0 1 3.599 3.525 3.34 3.34 0 0 1-3.476 3.537 3.447 3.447 0 0 1-1.084-.185v3.426h-1.479l-.025-9.883Zm10.18 3.328a2.28 2.28 0 0 0-1.085.234.9.9 0 0 0-.468.85.985.985 0 0 0 1.097 1.048 2.206 2.206 0 0 0 1.466-.641v-1.528l-1.01.037Zm1.109 2.464a2.772 2.772 0 0 1-1.972.826 2.056 2.056 0 0 1-2.194-2.144 1.91 1.91 0 0 1 1.134-1.824 3.982 3.982 0 0 1 1.726-.357h1.232v-.296c0-.887-.555-1.233-1.356-1.233a3.599 3.599 0 0 0-1.799.493l-.505-.985a5.015 5.015 0 0 1 2.538-.666c1.664 0 2.613.764 2.613 2.465v2.6c-.032.64.01 1.28.123 1.91h-1.232l-.308-.788Zm5.58-.394c1.344 0 2.046-.912 2.046-2.305a1.997 1.997 0 0 0-2.132-2.28 3.156 3.156 0 0 0-.9.136v4.24c.31.14.646.211.986.21Zm-2.465-5.398a7.665 7.665 0 0 1 2.465-.419 3.254 3.254 0 0 1 3.537 3.525 3.338 3.338 0 0 1-3.475 3.537 3.453 3.453 0 0 1-1.085-.185v3.426h-1.478l.036-9.884Zm7.495-.247h1.491v2.502h2.847v-2.502h1.49v6.754h-1.49v-2.946h-2.847v2.946h-1.491v-6.754Zm13.617.001h1.49v6.741h-1.49v-6.741Zm-3.82 5.583c1.232 0 1.441-.444 1.441-.999 0-.554-.283-.985-1.442-.985h-.702v1.984h.702Zm-2.182-5.595h1.479v2.464h.752c2.156 0 2.871.999 2.871 2.12s-.665 2.181-2.896 2.181h-2.206v-6.765ZM90.89 22.75h1.233c0 .64.27 1.232 1.084 1.232.814 0 1.072-.566 1.072-1.232h1.233a2.33 2.33 0 0 1-4.646 0m-.764 3.278h1.454v4.708c.222-.358.517-.826.924-1.418l2.292-3.29h1.43v6.741h-1.467v-3.278a12.442 12.442 0 0 1 0-1.43c-.197.346-.505.826-.9 1.418l-2.304 3.29h-1.405l-.024-6.74Zm14.641 7.062c-.986 2.71-2.07 3.068-3.254 3.068-.487.007-.97-.09-1.417-.284l.37-1.232c.308.148.644.228.986.234.801 0 1.442-.542 1.972-2.169l-3.02-6.729h1.59l2.107 4.992 1.664-4.991h1.541l-2.539 7.11Zm3.597-7.063h1.479v2.502h2.859v-2.502h1.491v6.754h-1.491v-2.946h-2.859v2.946h-1.479v-6.754Zm7.602 0h1.466v4.708c.222-.357.518-.826.912-1.417l2.305-3.29h1.429v6.74H120.6V28.06a37.6 37.6 0 0 1-.899 1.418l-2.379 3.29h-1.429l.049-6.74Zm10.613 5.657c.814 0 1.233-.296 1.233-.912 0-.616-.382-.912-1.109-.912h-1.381v1.824h1.257Zm-.074-2.835c.715 0 1.085-.283 1.085-.875 0-.591-.296-.862-1.233-.862h-1.146v1.738h1.294Zm-2.662-2.822h2.564c2.021 0 2.662.937 2.662 1.812a1.46 1.46 0 0 1-1.134 1.454 1.54 1.54 0 0 1 1.232 1.528c0 .937-.653 1.923-2.686 1.923h-2.699l.061-6.717Zm10.83 2.675c0-.85-.444-1.7-1.405-1.7a1.551 1.551 0 0 0-1.442 1.7h2.847Zm-2.822 1.06a1.904 1.904 0 0 0 .566 1.432 1.908 1.908 0 0 0 1.442.54 3.427 3.427 0 0 0 1.701-.456l.444 1.01a4.29 4.29 0 0 1-2.305.629 3.207 3.207 0 0 1-3.212-2.169 3.208 3.208 0 0 1-.152-1.368c0-2.046 1.121-3.524 2.958-3.524 1.836 0 2.896 1.367 2.896 3.549v.357h-4.338Zm8.222 1.91c1.343 0 2.045-.912 2.045-2.305a1.996 1.996 0 0 0-2.132-2.28 3.01 3.01 0 0 0-.899.136v4.24c.309.14.646.212.986.209Zm-2.465-5.398a7.806 7.806 0 0 1 2.465-.42 3.243 3.243 0 0 1 3.586 3.526 3.333 3.333 0 0 1-.943 2.54 3.333 3.333 0 0 1-2.52.996 3.457 3.457 0 0 1-1.085-.184v3.425h-1.491l-.012-9.883Zm7.134 3.168a3.551 3.551 0 0 1 3.496-3.59 3.546 3.546 0 0 1 1.778.447v1.233a2.784 2.784 0 0 0-1.639-.506 2.122 2.122 0 0 0-2.015 1.465 2.12 2.12 0 0 0-.092.877c0 1.466.801 2.292 2.021 2.292a3.256 3.256 0 0 0 1.602-.444l.431 1.023a4.089 4.089 0 0 1-2.23.641 3.212 3.212 0 0 1-2.462-.98 3.223 3.223 0 0 1-.89-2.495m6.693-3.378h1.454v4.708c.209-.357.518-.826.912-1.417l2.304-3.29h1.418v6.74h-1.479V29.49a12.176 12.176 0 0 1 0-1.43 20.26 20.26 0 0 1-.9 1.418l-2.292 3.29h-1.43l.013-6.74Zm9.391 1.245h-2.095v-1.245h6.039l-.419 1.245h-2.034v5.509h-1.491v-5.509Zm9.007 1.43c0-.85-.443-1.7-1.392-1.7a1.537 1.537 0 0 0-1.382 1.084 1.53 1.53 0 0 0-.06.616h2.834Zm-2.822 1.06a1.905 1.905 0 0 0 .567 1.432 1.9 1.9 0 0 0 1.442.54 3.352 3.352 0 0 0 1.701-.456l.443 1.01a4.247 4.247 0 0 1-2.292.629 3.214 3.214 0 0 1-3.376-3.537c0-2.046 1.133-3.524 2.957-3.524 1.824 0 2.896 1.367 2.896 3.549v.357h-4.338Zm7.309-2.49h-2.095v-1.245h6.039l-.419 1.245h-2.034v5.509h-1.491v-5.509Z"/>
  <path fill="#02814C" d="m6.299 11.535 6.346-6.359 2.465 2.465L3.723 19.028a9.527 9.527 0 0 1-.074-1.233 8.922 8.922 0 0 1 2.625-6.346m13.815 1.368L7.556 25.448 6.52 24.425l-.222-.209a10.175 10.175 0 0 1-1.122-1.38l12.57-12.57 1.233 1.232c.424.413.8.871 1.121 1.368m-1.097 11.35-6.346 6.36-2.465-2.466 11.4-11.387a8.984 8.984 0 0 1-2.589 7.493ZM3.944 27.05l8.738 8.726 8.849-8.873.53-.543a12.681 12.681 0 0 0 .086-16.846L12.657 0 3.699 8.935a12.656 12.656 0 0 0 0 17.881l.235.235"/>
  <path fill="#02814C" d="M25.055 25.942a12.743 12.743 0 0 1-2.897 5.546l-.53.554-8.848 8.873-8.737-8.737a2.077 2.077 0 0 1-.235-.234A12.496 12.496 0 0 1 .456 25.93H.31a12.706 12.706 0 0 0 3.5 11.19l.234.234 8.737 8.725 8.848-8.873.53-.542a12.68 12.68 0 0 0 3.032-10.722h-.136Z"/>
</svg>
