<?xml version="1.0" encoding="UTF-8"?>
<svg id="Layer_1" data-name="Layer 1" xmlns="http://www.w3.org/2000/svg" xmlns:xlink="http://www.w3.org/1999/xlink" viewBox="0 0 512 512">
  <defs>
    <style>
      .cls-1 {
        fill: url(#radial-gradient-2);
      }

      .cls-1, .cls-2, .cls-3, .cls-4, .cls-5 {
        stroke-width: 0px;
      }

      .cls-2 {
        fill: url(#radial-gradient-5);
      }

      .cls-3 {
        fill: url(#radial-gradient);
      }

      .cls-4 {
        fill: url(#radial-gradient-3);
      }

      .cls-5 {
        fill: url(#radial-gradient-4);
      }
    </style>
    <radialGradient id="radial-gradient" cx="-146.68" cy="505.5" fx="-146.68" fy="505.5" r="10.57" gradientTransform="translate(6538.36 21421.32) scale(42.53 -41.74)" gradientUnits="userSpaceOnUse">
      <stop offset="0" stop-color="#ebff00"/>
      <stop offset="1" stop-color="#008900"/>
    </radialGradient>
    <radialGradient id="radial-gradient-2" cx="-141.43" cy="503.19" fx="-141.43" fy="503.19" r="10.57" gradientTransform="translate(5660.4 18568.72) scale(36.85 -36.16)" gradientUnits="userSpaceOnUse">
      <stop offset="0" stop-color="#ebff00"/>
      <stop offset="1" stop-color="#008900"/>
    </radialGradient>
    <radialGradient id="radial-gradient-3" cx="-145.39" cy="513.28" fx="-145.39" fy="513.28" r="10.57" gradientTransform="translate(5284.59 17384.77) scale(34.57 -33.93)" gradientUnits="userSpaceOnUse">
      <stop offset="0" stop-color="#ebff00"/>
      <stop offset="1" stop-color="#008900"/>
    </radialGradient>
    <radialGradient id="radial-gradient-4" cx="-144.1" cy="512.32" fx="-144.1" fy="512.32" r="10.57" gradientTransform="translate(5826.49 19094.43) scale(37.97 -37.25)" gradientUnits="userSpaceOnUse">
      <stop offset="0" stop-color="#ebff00"/>
      <stop offset="1" stop-color="#008900"/>
    </radialGradient>
    <radialGradient id="radial-gradient-5" cx="-138.77" cy="505.68" fx="-138.77" fy="505.68" r="10.57" gradientTransform="translate(5325.38 17465.22) scale(34.68 -34.03)" gradientUnits="userSpaceOnUse">
      <stop offset="0" stop-color="#ebff00"/>
      <stop offset="1" stop-color="#008900"/>
    </radialGradient>
  </defs>
  <path class="cls-3" d="M121.96,380.91v78.3c38.7,0,103.33,9.4,133.25,52.85v-91.61c-38.7-27.4-85.78-38.76-133.25-39.54Z"/>
  <path class="cls-1" d="M255.22,420.45v91.61c36.31-41.1,83.38-52.85,134.85-52.85v-78.3c-47.87.78-96.55,12.14-134.85,39.54Z"/>
  <path class="cls-4" d="M256.02,0l-96.55,94.35c-45.48,44.63-49.87,115.09-11.97,164.42-3.19-26.62,5.59-52.85,24.34-72.42l3.19-3.13L309.08,51.67,256.02,0Z"/>
  <path class="cls-5" d="M352.97,95.13l-30.32-29.75-133.65,131.54c-29.52,28.97-29.52,75.55,0,104.13l25.93,25.45c-3.99-27.8,5.19-56.37,25.93-76.34l1.2-1.17,130.86-128.4c-5.59-9-11.97-17.62-19.95-25.45Z"/>
  <path class="cls-2" d="M256.02,262.68c-29.52,28.97-29.52,75.55,0,104.13l96.55-94.74c36.7-36.02,46.28-88.47,29.52-133.1l-126.07,123.71Z"/>
</svg>