<svg xmlns="http://www.w3.org/2000/svg" width="54" height="55" fill="none" viewBox="0 0 54 55">
  <path fill="#FF7F00" d="m4.57 32.014 9.96 9.979 10.14-10.17.612-.62a14.519 14.519 0 0 0 .096-19.298L14.51 1 4.236 11.236a14.509 14.509 0 0 0 0 20.492l.268.267"/>
  <path fill="#2F3933" d="M17.872 14.487c.005 2.498.143 2.665 2.713 2.236 3.289-.561 6.552-1.28 9.84-1.835a21.775 21.775 0 0 1 9.805.5c1.382.396 2.286 1.4 2.784 2.721.241.74.763 1.353 1.451 1.709 2.588 1.41 3.222 3.847 1.775 6.418-.26.45-.56.854-.568 1.43-.026 2.066-1.415 3.184-2.974 4.141-2.535 1.572-5.387 2.4-8.123 3.488-2.382.949-4.342 2.526-6.383 4.004-1.126.816-2.252 1.636-3.589 2.097-.406.139-.8.312-.974.786-1.423 3.892-4.996 4.293-8.043 3.454-3.972-1.093-6.998-5.016-6.912-8.813a5.348 5.348 0 0 1 .962-2.938c.26-.385.466-.673.185-1.163-1.95-3.363-1.79-6.971-.928-10.551.542-2.275.216-3.997-1.58-5.619-1.795-1.622-1.711-3.86.016-5.64 2.552-2.64 7.141-2.528 9.552.226a4.281 4.281 0 0 1 .99 3.35Zm.177 12.081c-1.53 1.52-2.885 3.145-3.602 5.205-1.277 3.708.745 6.994 4.61 7.6 2.901.456 5.424-.338 7.631-2.18a29.351 29.351 0 0 1 10.123-5.475 19.44 19.44 0 0 0 4.4-1.913c.914-.566 2.345-1.022 1.977-2.395-.393-1.431-1.91-1.342-3.099-1.31-2.155.052-4.14.82-6.103 1.676-1.483.648-2.797 1.31-2.622 3.292.031.364-.07.962-.448.99-.582.043-.503-.61-.571-.993a45.186 45.186 0 0 0-2.948-10.008c-.17-.4-.36-.802-.14-1.276.648.136 1.042.624 1.373 1.114.396.605.73.637 1.334.262 1.382-.836 2.906-1.334 4.46-1.767 1.9-.524 3.857-.623 5.994-.786-1.322-1.268-2.786-1.438-4.25-1.507-3.65-.175-7.163.593-10.686 1.379-2.346.524-4.668 1.022-7.076.954-1.955-.045-3.047-1.098-3.146-3.058-.027-.7-.01-1.4.05-2.097.075-1.004-.383-1.685-1.233-2.097a4.32 4.32 0 0 0-3.404-.33c-2.16.724-2.523 1.981-.928 3.533 1.77 1.724 2.482 3.687 1.898 6.153a26.535 26.535 0 0 0-.69 4.513c-.116 2.023.062 4.033 1.547 5.797 1.217-2.582 2.75-4.605 5.549-5.276Zm13.398.304c1.285-.626 2.53-1.339 3.855-1.855 2.739-1.072 5.535-1.814 8.418-.464.651.304.636-.21.696-.555.185-1.064-.639-2.026-2.265-2.409-3.948-.935-7.717-.225-11.394 1.355-.326.142-.602.286-.417.768.401 1.048.745 2.117 1.107 3.16Zm-10.76 15.2c-4.489-.262-7.723-2.112-8.664-6.869-1.48 1.913-.646 4.717 1.937 6.712 2.491 1.908 5.358 2.013 6.726.157Z"/>
</svg>
