<svg width="54" height="55" viewBox="0 0 54 55" fill="none" xmlns="http://www.w3.org/2000/svg">
<path d="M0 11C0 5.47715 4.47715 1 10 1H33V24C33 29.5228 28.5228 34 23 34H0V11Z" fill="#9DD800"/>
<path d="M14 15.5L19.5 11.5L23.5 9L28.5 7L31.5 11L30.5 14.5L37.5 17L39 22.5V25.5L33 25L31.5 23L28.5 23.5L28 28L32 32.5L33.5 31.5L34 26H37.5L41.5 32.5L39.5 37.5L32 42.5L29.5 47L25 48L19.5 47L14.5 43.5L14 40.5L13 36L12 24L14 15.5Z" fill="white"/>
<path d="M23.9564 49C20.7016 48.8101 17.379 47.9985 14.6693 45.6182C12.8955 44.0574 11.8675 42.2234 12.5727 39.8354C12.7463 39.2527 12.3801 38.8442 12.1848 38.3708C8.76728 30.0958 9.40739 22.0342 13.7661 14.2327C14.6005 12.7281 15.8347 11.4618 17.3437 10.5621C17.7234 10.3384 18.1574 9.99762 18.5507 10.021C20.6256 10.1433 21.8652 8.73335 23.3515 7.76044C24.0132 7.31025 24.7127 6.91348 25.4428 6.57421C27.2302 5.7938 28.9688 5.71576 30.542 6.9254C32.1911 8.18446 32.9478 9.94039 32.5138 11.868C32.1829 13.3534 32.6169 14.0506 34.0328 14.42C38.2342 15.5177 39.4574 18.7642 40.1681 22.3411C40.3118 23.0617 40.3878 23.8629 40.0243 24.5185C39.3679 25.6995 39.7531 26.6256 40.4719 27.6089C41.015 28.4056 41.5147 29.2287 41.9691 30.075C43.5558 32.7674 43.3117 35.4156 41.2313 37.7725C39.3556 39.9588 36.9105 41.6308 34.144 42.6188C33.0997 42.9856 32.4867 43.4773 32.2453 44.6557C31.8168 46.7368 30.0483 47.7331 28.1171 48.3965C26.8803 48.8439 25.5675 48.9792 23.9564 49ZM15.9252 42.559C15.8248 42.3197 15.6539 42.2989 15.4369 42.4081L15.6892 42.7515C18.1113 45.8732 24.3849 47.3663 28.0059 45.6546C28.5468 45.4302 29.0151 45.0709 29.3621 44.6141C29.8503 43.9117 30.0158 43.3992 28.7545 43.3472C27.3005 43.3221 25.8861 42.8889 24.686 42.1012C24.4717 41.9581 24.1951 41.789 24.271 41.4924C24.3633 41.1465 24.705 41.2687 24.9518 41.2687C26.1263 41.2687 27.3034 41.3416 28.4779 41.2687C32.8176 41.0086 36.3437 39.1876 39.1564 36.066C40.6129 34.4427 40.6536 33.1368 39.5497 31.3055C39.0072 30.4054 38.4213 29.5287 37.9223 28.6052C37.5073 27.8248 37.0082 27.3046 36.0236 27.5387C35.039 27.7728 34.6674 28.47 34.5644 29.3596C34.4444 30.288 34.5524 31.2304 34.8797 32.1116C35.207 32.9928 35.7446 33.7884 36.4495 34.4349C36.8861 34.8589 37.3581 35.2517 37.8409 35.6862C36.3816 36.2065 34.9441 35.642 33.5906 34.141C33.2977 33.8184 33.2163 33.1316 32.5789 33.2617C32.0365 33.3762 32.164 33.9641 32.0121 34.3517C31.8873 34.6742 31.8032 35.0749 31.3828 35.1321C30.919 35.1815 30.862 34.7471 30.6966 34.4531C30.4291 33.9049 30.12 33.3762 29.7717 32.8715C28.2446 30.9205 27.1515 28.8316 27.26 26.3056C27.2763 25.9388 27.26 25.5486 26.6959 25.416C25.3587 25.096 25.8469 24.6095 26.6253 24.1569C27.7455 23.5039 28.6352 22.7886 27.6696 21.4072C27.5869 21.2525 27.5423 21.0816 27.5394 20.9078C27.5123 20.6138 27.3875 20.2548 27.6886 20.0649C27.9897 19.875 28.2717 20.169 28.5023 20.3485C29.0854 20.7959 29.5167 21.4307 30.287 21.7142C30.6396 21.1133 30.4443 20.0285 31.2879 20.0675C31.8439 20.0909 31.692 21.0925 31.8656 21.6518C32.4352 23.4961 33.7236 24.7422 35.3184 24.9087C36.9133 25.0752 37.7948 24.2271 37.4503 22.7365C37.1372 21.5188 36.7486 20.32 36.2867 19.1466C36.1872 18.8572 36.0291 18.5894 35.8215 18.3586C35.6139 18.1279 35.3609 17.9386 35.077 17.8017C33.8131 17.2294 32.5301 16.6988 31.2417 16.1811C31.0399 16.0927 30.8159 16.0617 30.5962 16.0916C30.3765 16.1216 30.1704 16.2113 30.0022 16.3502C27.3414 18.1763 26.1263 20.9676 24.6345 23.569C24.5958 23.6423 24.5737 23.7225 24.5695 23.8045C24.5653 23.8865 24.5791 23.9685 24.6101 24.045C24.9166 24.6147 24.6101 24.7058 24.1056 24.7318C22.2937 24.8176 22.2964 24.8254 22.9854 23.171C23.118 22.8968 23.2198 22.6099 23.2892 22.3151C23.8669 18.9958 25.6218 16.3762 28.3368 14.2821C28.7817 13.9424 29.15 13.5196 29.4195 13.0394C29.689 12.5591 29.854 12.0314 29.9046 11.4882C29.9766 11.0123 29.9119 10.5265 29.7173 10.0832C29.5228 9.63993 29.2059 9.25597 28.8006 8.97268C27.9869 8.39518 27.1407 8.67352 26.3839 9.09755C25.4943 9.59961 24.6589 10.1979 23.8018 10.7546C23.3597 11.0408 23.2837 11.3373 23.5821 11.829C24.9383 14.0714 24.469 16.1941 22.8525 18.0879C21.5817 19.6099 20.7052 21.3991 20.2947 23.3088C20.2378 23.5508 20.1184 23.928 20.2351 24.0372C21.3525 25.0778 20.5741 25.1714 19.6356 25.2052C19.1691 25.2209 18.9793 25.6293 18.6456 25.8348C17.7831 26.3551 16.9124 26.7635 15.5807 26.1678C17.2895 25.416 18.2334 24.417 18.3364 22.8146C18.4462 20.5419 19.294 18.359 20.7613 16.5713C21.3567 15.9189 21.6641 15.0699 21.6184 14.204C21.4773 12.573 20.1754 11.9382 18.7595 12.8461C17.5486 13.6213 16.5667 14.6831 15.9089 15.9288C12.2418 22.8536 11.7536 30.0074 14.5527 37.2938C15.6376 40.1189 17.7804 41.9399 20.9891 42.4367C21.3553 42.494 21.8028 42.4549 22.1201 42.9908C19.934 43.9533 17.9187 43.4617 15.9252 42.559ZM29.5384 25.8374C29.6523 27.4971 29.7554 29.0111 30.7915 30.2831C31.0899 30.6499 31.6323 31.0765 31.7517 30.4314C31.9849 29.1593 32.0229 27.8638 32.6169 26.6646C32.663 26.571 32.5193 26.3238 32.3945 26.2276C31.8115 25.7486 31.3252 25.1711 30.9597 24.5237C30.8765 24.3659 30.7356 24.2432 30.564 24.1788C30.3923 24.1145 30.202 24.1132 30.0293 24.1751C29.8308 24.2267 29.66 24.3485 29.5513 24.5159C29.4426 24.6834 29.4041 24.8842 29.4435 25.0778C29.4869 25.3899 29.5194 25.6891 29.5384 25.8478V25.8374Z" fill="#0E5A67"/>
</svg>
