<svg width="833" height="471" viewBox="0 0 833 471" fill="none" xmlns="http://www.w3.org/2000/svg">
<path d="M520 56.7742C520 47.5101 527.51 40 536.774 40H832.78V97.0545C832.78 106.319 825.27 113.829 816.006 113.829H520V56.7742Z" fill="url(#paint0_radial_223_312)"/>
<path d="M751.381 95.495H749.895V86.0449H751.19V93.7803H751.247L757.287 86.0449H758.792V95.495H757.477V87.7406H757.42L751.381 95.495Z" fill="white"/>
<path d="M739.491 95.495H738.005V86.0449H739.3V93.7803H739.358L745.397 86.0449H746.902V95.495H745.588V87.7406H745.531L739.491 95.495Z" fill="white"/>
<path d="M731.001 95.7428C728.029 95.7428 725.99 93.6851 725.99 90.7701C725.99 87.855 728.048 85.7783 731.001 85.7783C733.859 85.7783 735.383 87.6074 735.631 89.3602H734.259C733.954 87.9884 732.792 86.9596 731.001 86.9596C728.81 86.9596 727.362 88.56 727.362 90.7701C727.362 92.9802 728.791 94.5616 731.001 94.5616C732.983 94.5616 734.126 93.4184 734.354 92.1038H735.726C735.536 93.8947 733.954 95.7428 731.001 95.7428Z" fill="white"/>
<path d="M719.595 95.7428C716.623 95.7428 714.584 93.6851 714.584 90.7701C714.584 87.855 716.642 85.7783 719.595 85.7783C722.453 85.7783 723.977 87.6074 724.225 89.3602H722.853C722.548 87.9884 721.386 86.9596 719.595 86.9596C717.404 86.9596 715.956 88.56 715.956 90.7701C715.956 92.9802 717.385 94.5616 719.595 94.5616C721.576 94.5616 722.719 93.4184 722.948 92.1038H724.32C724.129 93.8947 722.548 95.7428 719.595 95.7428Z" fill="white"/>
<path d="M707.816 95.7428C704.844 95.7428 702.844 93.6851 702.844 90.7701C702.844 87.855 704.844 85.7783 707.816 85.7783C710.789 85.7783 712.789 87.855 712.789 90.7701C712.789 93.6851 710.789 95.7428 707.816 95.7428ZM707.816 94.5616C710.065 94.5616 711.436 92.9802 711.436 90.7701C711.436 88.56 710.065 86.9596 707.816 86.9596C705.568 86.9596 704.216 88.56 704.216 90.7701C704.216 92.9802 705.568 94.5616 707.816 94.5616Z" fill="white"/>
<path d="M691.033 82.1582H696.025C699.359 82.1582 701.226 83.7777 701.226 86.7118C701.226 89.6459 699.378 91.2463 696.025 91.2463H692.462V95.495H691.033V82.1582ZM692.462 89.9507H696.025C698.426 89.9507 699.74 88.8076 699.74 86.7118C699.74 84.616 698.426 83.4728 696.025 83.4728H692.462V89.9507Z" fill="white"/>
<path d="M684.21 90.6367C684.21 90.8273 684.21 90.9987 684.172 91.2464H675.655C675.846 93.2279 677.237 94.5616 679.275 94.5616C680.971 94.5616 682.019 93.9519 682.495 92.7706H683.943C683.391 94.6949 681.771 95.7428 679.275 95.7428C676.284 95.7428 674.265 93.7232 674.265 90.7701C674.265 87.855 676.36 85.7783 679.295 85.7783C682.191 85.7783 684.21 87.8169 684.21 90.6367ZM679.295 86.9596C677.332 86.9596 675.941 88.2552 675.675 90.1223H682.838C682.705 88.2552 681.257 86.9596 679.295 86.9596Z" fill="white"/>
<path d="M667.463 95.495H666.167V86.0449H673.426V87.2262H667.463V95.495Z" fill="white"/>
<path d="M657.056 81.9678C660.981 81.9678 663.439 84.8638 663.439 88.8267C663.439 92.7896 660.981 95.6856 657.056 95.6856C653.303 95.6856 650.883 93.0564 650.674 89.3792H648.292V95.4951H646.863V82.1583H648.292V88.1408H650.674C650.941 84.5399 653.341 81.9678 657.056 81.9678ZM657.056 94.371C660.105 94.371 661.953 92.0275 661.953 88.8267C661.953 85.6259 660.105 83.2824 657.056 83.2824C654.008 83.2824 652.141 85.6259 652.141 88.8267C652.141 92.0275 654.008 94.371 657.056 94.371Z" fill="white"/>
<path d="M633.571 95.6857C631.304 95.6857 629.665 94.6568 629.665 92.7516C629.665 90.9225 631.456 89.7984 633.819 89.7984C635.19 89.7984 636.619 90.1795 637.438 90.7129V89.3221C637.438 87.6836 636.181 86.9596 634.39 86.9596C632.504 86.9596 631.361 87.7407 631.361 88.7315H630.008C630.008 87.0739 631.647 85.7783 634.409 85.7783C636.981 85.7783 638.734 86.9786 638.734 89.3412V93.3993C638.734 94.0471 639.039 94.3139 639.534 94.3139C639.801 94.3139 639.992 94.2758 640.125 94.1805V95.3046C639.877 95.4189 639.553 95.4951 639.191 95.4951C638.315 95.4951 637.781 95.1141 637.572 94.4091H637.496C636.676 95.1712 635.171 95.6857 633.571 95.6857ZM633.838 94.5044C635.247 94.5044 636.638 94.0662 637.438 93.285V91.7989C636.676 91.3226 635.362 90.9987 634.085 90.9987C632.332 90.9987 631.018 91.6084 631.018 92.7516C631.018 94.009 632.275 94.5044 633.838 94.5044Z" fill="white"/>
<path d="M626.024 90.046V86.0449H627.338V95.495H626.024V91.2272H619.832V95.495H618.536V86.0449H619.832V90.046H626.024Z" fill="white"/>
<path d="M607.4 95.7428C604.428 95.7428 602.39 93.6851 602.39 90.7701C602.39 87.855 604.447 85.7783 607.4 85.7783C610.258 85.7783 611.783 87.6074 612.03 89.3602H610.658C610.354 87.9884 609.191 86.9596 607.4 86.9596C605.209 86.9596 603.761 88.56 603.761 90.7701C603.761 92.9802 605.19 94.5616 607.4 94.5616C609.382 94.5616 610.525 93.4184 610.754 92.1038H612.126C611.935 93.8947 610.354 95.7428 607.4 95.7428Z" fill="white"/>
<path d="M596.861 93.9708L600.309 86.0449H601.719L597.413 95.876C596.327 98.3719 595.432 99.496 593.66 99.496C593.241 99.496 592.898 99.4389 592.555 99.3246V98.1433C592.917 98.2767 593.203 98.3148 593.545 98.3148C594.555 98.3148 595.241 97.8385 596.022 95.857L596.137 95.5522L591.469 86.0449H592.955L596.803 93.9708H596.861Z" fill="white"/>
<path d="M582.452 95.495H581.156V86.0449H589.825V95.495H588.511V87.2262H582.452V95.495Z" fill="white"/>
<path d="M568.2 95.495H566.904V86.0449H568.448L572.506 91.9893H572.563L576.621 86.0449H578.145V95.495H576.831V87.874H576.774L573.001 93.3802H572.029L568.257 87.874H568.2V95.495Z" fill="white"/>
<path d="M558.496 95.6857C556.228 95.6857 554.59 94.6568 554.59 92.7516C554.59 90.9225 556.381 89.7984 558.743 89.7984C560.115 89.7984 561.544 90.1795 562.363 90.7129V89.3221C562.363 87.6836 561.106 86.9596 559.315 86.9596C557.429 86.9596 556.286 87.7407 556.286 88.7315H554.933C554.933 87.0739 556.571 85.7783 559.334 85.7783C561.906 85.7783 563.659 86.9786 563.659 89.3412V93.3993C563.659 94.0471 563.964 94.3139 564.459 94.3139C564.726 94.3139 564.916 94.2758 565.05 94.1805V95.3046C564.802 95.4189 564.478 95.4951 564.116 95.4951C563.24 95.4951 562.706 95.1141 562.497 94.4091H562.42C561.601 95.1712 560.096 95.6857 558.496 95.6857ZM558.762 94.5044C560.172 94.5044 561.563 94.0662 562.363 93.285V91.7989C561.601 91.3226 560.287 90.9987 559.01 90.9987C557.257 90.9987 555.943 91.6084 555.943 92.7516C555.943 94.009 557.2 94.5044 558.762 94.5044Z" fill="white"/>
<path d="M548.217 90.6366L553.99 95.495H552.199L546.617 90.8271V95.495H545.321V86.0449H546.617V90.5604L551.837 86.0449H553.533L548.217 90.6366Z" fill="white"/>
<path d="M800.793 61.3113C798.983 61.3113 797.878 60.3587 797.878 58.8535H799.002C799.002 59.768 799.669 60.3206 800.793 60.3206C801.898 60.3206 802.565 59.768 802.565 58.8535H803.689C803.689 60.3587 802.584 61.3113 800.793 61.3113ZM797.821 72.4952H796.335V63.0451H797.631V70.7804H797.688L803.727 63.0451H805.233V72.4952H803.918V64.7408H803.861L797.821 72.4952Z" fill="white"/>
<path d="M784.253 66.1505H786.31C788.94 66.1505 790.368 67.2365 790.368 69.3323C790.368 71.409 788.94 72.495 786.31 72.495H782.957V63.0449H784.253V66.1505ZM792.026 72.495V63.0449H793.322V72.495H792.026ZM784.253 71.3137H786.234C788.12 71.3137 788.997 70.7041 788.997 69.3323C788.997 67.9414 788.12 67.3318 786.234 67.3318H784.253V71.3137Z" fill="white"/>
<path d="M778.649 67.046V63.0449H779.963V72.495H778.649V68.2272H772.457V72.495H771.161V63.0449H772.457V67.046H778.649Z" fill="white"/>
<path d="M764.204 63.6546C766.929 63.6546 768.758 65.4837 768.758 68.151C768.758 70.8946 766.795 72.7427 763.88 72.7427C760.584 72.7427 758.927 70.7422 758.927 67.0079C758.927 62.8735 760.26 60.9682 763.766 60.53C765.881 60.2823 766.738 59.9013 766.738 59.1582H768.11C768.11 60.6824 766.948 61.4255 763.842 61.7684C761.518 62.0542 760.47 63.1973 760.279 65.5599C761.061 64.3596 762.528 63.6546 764.204 63.6546ZM763.861 71.5614C766.014 71.5614 767.386 70.2468 767.386 68.1891C767.386 66.1886 766.071 64.8549 763.919 64.8549C761.804 64.8549 760.356 66.1886 760.356 68.1891C760.356 70.2468 761.689 71.5614 763.861 71.5614Z" fill="white"/>
<path d="M751.969 72.7428C748.997 72.7428 746.996 70.6851 746.996 67.7701C746.996 64.8551 748.997 62.7783 751.969 62.7783C754.941 62.7783 756.942 64.8551 756.942 67.7701C756.942 70.6851 754.941 72.7428 751.969 72.7428ZM751.969 71.5616C754.217 71.5616 755.589 69.9802 755.589 67.7701C755.589 65.56 754.217 63.9596 751.969 63.9596C749.721 63.9596 748.368 65.56 748.368 67.7701C748.368 69.9802 749.721 71.5616 751.969 71.5616Z" fill="white"/>
<path d="M744.245 63.0449V71.3137H745.769V75.0671H744.455V72.495H736.167V75.0671H734.871V71.3137H735.119C735.957 71.3137 736.433 70.7422 736.51 69.4847L736.91 63.0449H744.245ZM737.043 71.2566V71.3137H742.93V64.2262H738.129L737.824 69.1799C737.748 70.2849 737.443 70.9898 737.043 71.2566Z" fill="white"/>
<path d="M729.801 70.9708L733.25 63.0449H734.659L730.354 72.8761C729.268 75.3719 728.372 76.496 726.6 76.496C726.181 76.496 725.838 76.4389 725.495 76.3246V75.1433C725.857 75.2767 726.143 75.3148 726.486 75.3148C727.496 75.3148 728.182 74.8385 728.963 72.857L729.077 72.5522L724.409 63.0449H725.895L729.744 70.9708H729.801Z" fill="white"/>
<path d="M710.875 72.495H709.389V63.0449H710.684V70.7803H710.741L716.781 63.0449H718.286V72.495H716.972V64.7406H716.914L710.875 72.495Z" fill="white"/>
<path d="M692.952 61.3113C691.142 61.3113 690.037 60.3587 690.037 58.8535H691.161C691.161 59.768 691.828 60.3206 692.952 60.3206C694.057 60.3206 694.724 59.768 694.724 58.8535H695.848C695.848 60.3587 694.743 61.3113 692.952 61.3113ZM689.98 72.4952H688.494V63.0451H689.79V70.7804H689.847L695.887 63.0451H697.392V72.4952H696.077V64.7408H696.02L689.98 72.4952Z" fill="white"/>
<path d="M681.117 72.7428C678.145 72.7428 676.145 70.6851 676.145 67.7701C676.145 64.8551 678.145 62.7783 681.117 62.7783C684.089 62.7783 686.09 64.8551 686.09 67.7701C686.09 70.6851 684.089 72.7428 681.117 72.7428ZM681.117 71.5616C683.365 71.5616 684.737 69.9802 684.737 67.7701C684.737 65.56 683.365 63.9596 681.117 63.9596C678.869 63.9596 677.516 65.56 677.516 67.7701C677.516 69.9802 678.869 71.5616 681.117 71.5616Z" fill="white"/>
<path d="M673.734 72.495H661.255V63.0449H662.55V71.3137H666.837V63.0449H668.152V71.3137H672.439V63.0449H673.734V72.495Z" fill="white"/>
<path d="M652.392 66.1505H654.736C657.365 66.1505 658.794 67.2365 658.794 69.3323C658.794 71.409 657.365 72.495 654.736 72.495H651.097V63.0449H652.392V66.1505ZM652.392 71.3137H654.66C656.546 71.3137 657.422 70.7041 657.422 69.3323C657.422 67.9414 656.546 67.3318 654.66 67.3318H652.392V71.3137Z" fill="white"/>
<path d="M638.901 72.6855C638.596 72.6855 638.253 72.6474 638.101 72.5712V71.3328C638.253 71.3518 638.463 71.3709 638.615 71.3709C639.415 71.3709 639.853 70.9898 639.93 69.7705L640.33 63.0449H648.084V72.495H646.789V64.2262H641.549L641.206 69.961C641.111 71.7138 640.387 72.6855 638.901 72.6855Z" fill="white"/>
<path d="M632.09 72.7428C629.118 72.7428 627.117 70.6851 627.117 67.7701C627.117 64.8551 629.118 62.7783 632.09 62.7783C635.062 62.7783 637.063 64.8551 637.063 67.7701C637.063 70.6851 635.062 72.7428 632.09 72.7428ZM632.09 71.5616C634.338 71.5616 635.71 69.9802 635.71 67.7701C635.71 65.56 634.338 63.9596 632.09 63.9596C629.842 63.9596 628.489 65.56 628.489 67.7701C628.489 69.9802 629.842 71.5616 632.09 71.5616Z" fill="white"/>
<path d="M620.771 63.6546C623.495 63.6546 625.324 65.4837 625.324 68.151C625.324 70.8946 623.362 72.7427 620.447 72.7427C617.151 72.7427 615.493 70.7422 615.493 67.0079C615.493 62.8735 616.827 60.9682 620.333 60.53C622.447 60.2823 623.305 59.9013 623.305 59.1582H624.677C624.677 60.6824 623.514 61.4255 620.409 61.7684C618.084 62.0542 617.036 63.1973 616.846 65.5599C617.627 64.3596 619.094 63.6546 620.771 63.6546ZM620.428 71.5614C622.581 71.5614 623.953 70.2468 623.953 68.1891C623.953 66.1886 622.638 64.8549 620.485 64.8549C618.37 64.8549 616.922 66.1886 616.922 68.1891C616.922 70.2468 618.256 71.5614 620.428 71.5614Z" fill="white"/>
<path d="M603.979 61.3113C602.169 61.3113 601.064 60.3587 601.064 58.8535H602.188C602.188 59.768 602.855 60.3206 603.979 60.3206C605.084 60.3206 605.751 59.768 605.751 58.8535H606.875C606.875 60.3587 605.77 61.3113 603.979 61.3113ZM601.007 72.4952H599.521V63.0451H600.816V70.7804H600.873L606.913 63.0451H608.418V72.4952H607.103V64.7408H607.046L601.007 72.4952Z" fill="white"/>
<path d="M587.438 66.1505H589.496C592.125 66.1505 593.554 67.2365 593.554 69.3323C593.554 71.409 592.125 72.495 589.496 72.495H586.143V63.0449H587.438V66.1505ZM595.212 72.495V63.0449H596.507V72.495H595.212ZM587.438 71.3137H589.42C591.306 71.3137 592.182 70.7041 592.182 69.3323C592.182 67.9414 591.306 67.3318 589.42 67.3318H587.438V71.3137Z" fill="white"/>
<path d="M573.186 72.495H571.891V63.0449H573.434L577.492 68.9893H577.549L581.607 63.0449H583.132V72.495H581.817V64.874H581.76L577.987 70.3802H577.016L573.243 64.874H573.186V72.495Z" fill="white"/>
<path d="M563.482 72.6857C561.215 72.6857 559.576 71.6568 559.576 69.7516C559.576 67.9225 561.367 66.7984 563.73 66.7984C565.101 66.7984 566.53 67.1795 567.35 67.7129V66.3221C567.35 64.6836 566.092 63.9596 564.301 63.9596C562.415 63.9596 561.272 64.7407 561.272 65.7315H559.919C559.919 64.0739 561.558 62.7783 564.32 62.7783C566.892 62.7783 568.645 63.9786 568.645 66.3412V70.3994C568.645 71.0471 568.95 71.3139 569.445 71.3139C569.712 71.3139 569.903 71.2758 570.036 71.1805V72.3046C569.788 72.4189 569.464 72.4951 569.102 72.4951C568.226 72.4951 567.693 72.1141 567.483 71.4091H567.407C566.588 72.1712 565.082 72.6857 563.482 72.6857ZM563.749 71.5044C565.159 71.5044 566.549 71.0662 567.35 70.285V68.7989C566.588 68.3226 565.273 67.9987 563.996 67.9987C562.244 67.9987 560.929 68.6084 560.929 69.7516C560.929 71.009 562.186 71.5044 563.749 71.5044Z" fill="white"/>
<path d="M551.665 72.6856C547.645 72.6856 545.035 69.8087 545.035 65.8267C545.035 61.8447 547.645 58.9678 551.665 58.9678C555.114 58.9678 557.381 61.1017 557.781 63.7309H556.314C555.952 61.8447 554.276 60.2824 551.665 60.2824C548.522 60.2824 546.521 62.6259 546.521 65.8267C546.521 69.0275 548.522 71.371 551.665 71.371C554.295 71.371 555.914 69.8849 556.352 67.9225H557.819C557.305 70.5898 555.095 72.6856 551.665 72.6856Z" fill="white"/>
<defs>
<radialGradient id="paint0_radial_223_312" cx="0" cy="0" r="1" gradientUnits="userSpaceOnUse" gradientTransform="translate(486.322 20.8836) rotate(4.56822) scale(397.269 93.9973)">
<stop stop-color="#FFFF40"/>
<stop offset="1" stop-color="#FF6C00"/>
</radialGradient>
</defs>
</svg>
