<svg width="833" height="471" viewBox="0 0 833 471" fill="none" xmlns="http://www.w3.org/2000/svg">
<path d="M430 401.774C430 392.51 437.51 385 446.774 385H768.839V443.151C768.839 452.415 761.329 459.925 752.065 459.925H430V401.774Z" fill="#0E5A67"/>
<path d="M727.24 434.074H729.298C731.927 434.074 733.356 435.16 733.356 437.256C733.356 439.333 731.927 440.419 729.298 440.419H725.944V430.969H727.24V434.074ZM735.013 440.419V430.969H736.309V440.419H735.013ZM727.24 439.238H729.221C731.108 439.238 731.984 438.628 731.984 437.256C731.984 435.865 731.108 435.256 729.221 435.256H727.24V439.238Z" fill="white"/>
<path d="M712.988 440.419H711.692V430.969H713.236L717.294 436.913H717.351L721.409 430.969H722.933V440.419H721.619V432.798H721.562L717.789 438.304H716.818L713.045 432.798H712.988V440.419Z" fill="white"/>
<path d="M698.736 440.419H697.44V430.969H698.984L703.042 436.913H703.099L707.157 430.969H708.681V440.419H707.367V432.798H707.31L703.537 438.304H702.566L698.793 432.798H698.736V440.419Z" fill="white"/>
<path d="M689.032 440.609C686.764 440.609 685.126 439.581 685.126 437.675C685.126 435.846 686.917 434.722 689.279 434.722C690.651 434.722 692.08 435.103 692.899 435.637V434.246C692.899 432.607 691.642 431.883 689.851 431.883C687.965 431.883 686.822 432.665 686.822 433.655H685.469C685.469 431.998 687.107 430.702 689.87 430.702C692.442 430.702 694.195 431.902 694.195 434.265V438.323C694.195 438.971 694.5 439.238 694.995 439.238C695.262 439.238 695.452 439.2 695.586 439.104V440.228C695.338 440.343 695.014 440.419 694.652 440.419C693.776 440.419 693.242 440.038 693.033 439.333H692.957C692.137 440.095 690.632 440.609 689.032 440.609ZM689.298 439.428C690.708 439.428 692.099 438.99 692.899 438.209V436.723C692.137 436.246 690.823 435.923 689.546 435.923C687.793 435.923 686.479 436.532 686.479 437.675C686.479 438.933 687.736 439.428 689.298 439.428Z" fill="white"/>
<path d="M674.808 444.229H673.513V430.969H674.751V432.703H674.808C675.456 431.521 677.037 430.702 678.543 430.702C681.439 430.702 683.401 432.741 683.401 435.694C683.401 438.628 681.439 440.667 678.543 440.667C677.076 440.667 675.589 439.905 674.865 438.742H674.808V444.229ZM678.428 439.485C680.581 439.485 682.029 437.961 682.029 435.694C682.029 433.427 680.581 431.883 678.428 431.883C676.313 431.883 674.808 433.427 674.808 435.694C674.808 437.961 676.313 439.485 678.428 439.485Z" fill="white"/>
<path d="M665.84 440.419H664.545V430.969H671.804V432.15H665.84V440.419Z" fill="white"/>
<path d="M657.167 440.667C654.195 440.667 652.194 438.609 652.194 435.694C652.194 432.779 654.195 430.702 657.167 430.702C660.139 430.702 662.14 432.779 662.14 435.694C662.14 438.609 660.139 440.667 657.167 440.667ZM657.167 439.485C659.415 439.485 660.787 437.904 660.787 435.694C660.787 433.484 659.415 431.883 657.167 431.883C654.919 431.883 653.566 433.484 653.566 435.694C653.566 437.904 654.919 439.485 657.167 439.485Z" fill="white"/>
<path d="M641.82 444.229H640.524V430.969H641.763V432.703H641.82C642.468 431.521 644.049 430.702 645.554 430.702C648.45 430.702 650.413 432.741 650.413 435.694C650.413 438.628 648.45 440.667 645.554 440.667C644.087 440.667 642.601 439.905 641.877 438.742H641.82V444.229ZM645.44 439.485C647.593 439.485 649.041 437.961 649.041 435.694C649.041 433.427 647.593 431.883 645.44 431.883C643.325 431.883 641.82 433.427 641.82 435.694C641.82 437.961 643.325 439.485 645.44 439.485Z" fill="white"/>
<path d="M630.135 440.419H628.84V430.969H637.509V440.419H636.194V432.15H630.135V440.419Z" fill="white"/>
<path d="M622.398 435.561C622.398 435.751 622.398 435.923 622.359 436.17H613.843C614.034 438.152 615.424 439.485 617.463 439.485C619.159 439.485 620.207 438.876 620.683 437.694H622.131C621.578 439.619 619.959 440.667 617.463 440.667C614.472 440.667 612.452 438.647 612.452 435.694C612.452 432.779 614.548 430.702 617.482 430.702C620.378 430.702 622.398 432.741 622.398 435.561ZM617.482 431.883C615.52 431.883 614.129 433.179 613.862 435.046H621.026C620.892 433.179 619.444 431.883 617.482 431.883Z" fill="white"/>
<path d="M600.979 434.074H603.037C605.666 434.074 607.095 435.16 607.095 437.256C607.095 439.333 605.666 440.419 603.037 440.419H599.684V430.969H600.979V434.074ZM608.753 440.419V430.969H610.048V440.419H608.753ZM600.979 439.238H602.961C604.847 439.238 605.723 438.628 605.723 437.256C605.723 435.865 604.847 435.256 602.961 435.256H600.979V439.238Z" fill="white"/>
<path d="M595.375 434.97V430.969H596.69V440.419H595.375V436.151H589.183V440.419H587.888V430.969H589.183V434.97H595.375Z" fill="white"/>
<path d="M579.024 434.074H581.368C583.997 434.074 585.426 435.16 585.426 437.256C585.426 439.333 583.997 440.419 581.368 440.419H577.729V430.969H579.024V434.074ZM579.024 439.238H581.291C583.178 439.238 584.054 438.628 584.054 437.256C584.054 435.865 583.178 435.256 581.291 435.256H579.024V439.238Z" fill="white"/>
<path d="M565.533 440.609C565.228 440.609 564.885 440.571 564.732 440.495V439.257C564.885 439.276 565.094 439.295 565.247 439.295C566.047 439.295 566.485 438.914 566.561 437.694L566.962 430.969H574.716V440.419H573.42V432.15H568.181L567.838 437.885C567.743 439.638 567.019 440.609 565.533 440.609Z" fill="white"/>
<path d="M563.788 435.561C563.788 435.751 563.788 435.923 563.75 436.17H555.234C555.424 438.152 556.815 439.485 558.854 439.485C560.549 439.485 561.597 438.876 562.073 437.694H563.521C562.969 439.619 561.349 440.667 558.854 440.667C555.862 440.667 553.843 438.647 553.843 435.694C553.843 432.779 555.939 430.702 558.873 430.702C561.769 430.702 563.788 432.741 563.788 435.561ZM558.873 431.883C556.91 431.883 555.519 433.179 555.253 435.046H562.416C562.283 433.179 560.835 431.883 558.873 431.883Z" fill="white"/>
<path d="M549.005 440.419H547.69V432.15H543.804V430.969H552.911V432.15H549.005V440.419Z" fill="white"/>
<path d="M536.946 440.609C534.679 440.609 533.04 439.581 533.04 437.675C533.04 435.846 534.831 434.722 537.194 434.722C538.565 434.722 539.994 435.103 540.813 435.637V434.246C540.813 432.607 539.556 431.883 537.765 431.883C535.879 431.883 534.736 432.665 534.736 433.655H533.383C533.383 431.998 535.022 430.702 537.784 430.702C540.356 430.702 542.109 431.902 542.109 434.265V438.323C542.109 438.971 542.414 439.238 542.909 439.238C543.176 439.238 543.367 439.2 543.5 439.104V440.228C543.252 440.343 542.928 440.419 542.566 440.419C541.69 440.419 541.156 440.038 540.947 439.333H540.871C540.051 440.095 538.546 440.609 536.946 440.609ZM537.213 439.428C538.622 439.428 540.013 438.99 540.813 438.209V436.723C540.051 436.246 538.737 435.923 537.46 435.923C535.707 435.923 534.393 436.532 534.393 437.675C534.393 438.933 535.65 439.428 537.213 439.428Z" fill="white"/>
<path d="M529.46 435.427V435.503C530.603 435.77 531.289 436.627 531.289 437.771C531.289 439.523 530.07 440.419 527.688 440.419H522.544V430.969H527.688C529.651 430.969 530.718 431.845 530.718 433.388C530.718 434.322 530.241 435.046 529.46 435.427ZM527.517 432.15H523.84V435.027H527.517C528.698 435.027 529.346 434.513 529.346 433.56C529.346 432.607 528.717 432.15 527.517 432.15ZM523.84 439.238H527.879C529.174 439.238 529.917 438.742 529.917 437.694C529.917 436.646 529.193 436.151 527.879 436.151H523.84V439.238Z" fill="white"/>
<path d="M515.166 440.667C512.194 440.667 510.193 438.609 510.193 435.694C510.193 432.779 512.194 430.702 515.166 430.702C518.138 430.702 520.139 432.779 520.139 435.694C520.139 438.609 518.138 440.667 515.166 440.667ZM515.166 439.485C517.414 439.485 518.786 437.904 518.786 435.694C518.786 433.484 517.414 431.883 515.166 431.883C512.918 431.883 511.565 433.484 511.565 435.694C511.565 437.904 512.918 439.485 515.166 439.485Z" fill="white"/>
<path d="M503.878 440.667C500.773 440.667 499.344 439.428 499.344 437.599H500.716C500.716 438.685 501.706 439.485 503.878 439.485C506.031 439.485 507.003 438.819 507.003 437.733C507.003 436.723 506.241 436.151 504.526 436.151H502.221V435.027H504.526C505.993 435.027 506.736 434.532 506.736 433.503C506.736 432.493 505.86 431.883 503.878 431.883C501.878 431.883 500.868 432.646 500.868 433.655H499.515C499.515 431.922 501.097 430.702 503.878 430.702C506.641 430.702 508.108 431.712 508.108 433.389C508.108 434.475 507.498 435.16 506.527 435.446V435.522C507.727 435.808 508.375 436.647 508.375 437.752C508.375 439.581 506.87 440.667 503.878 440.667Z" fill="white"/>
<path d="M491.827 440.609C489.559 440.609 487.921 439.581 487.921 437.675C487.921 435.846 489.712 434.722 492.074 434.722C493.446 434.722 494.875 435.103 495.694 435.637V434.246C495.694 432.607 494.437 431.883 492.646 431.883C490.76 431.883 489.617 432.665 489.617 433.655H488.264C488.264 431.998 489.902 430.702 492.665 430.702C495.237 430.702 496.99 431.902 496.99 434.265V438.323C496.99 438.971 497.295 439.238 497.79 439.238C498.057 439.238 498.247 439.2 498.381 439.104V440.228C498.133 440.343 497.809 440.419 497.447 440.419C496.571 440.419 496.037 440.038 495.828 439.333H495.752C494.932 440.095 493.427 440.609 491.827 440.609ZM492.093 439.428C493.503 439.428 494.894 438.99 495.694 438.209V436.723C494.932 436.246 493.618 435.923 492.341 435.923C490.588 435.923 489.274 436.532 489.274 437.675C489.274 438.933 490.531 439.428 492.093 439.428Z" fill="white"/>
<path d="M477.603 444.229H476.308V430.969H477.546V432.703H477.603C478.251 431.521 479.832 430.702 481.337 430.702C484.233 430.702 486.196 432.741 486.196 435.694C486.196 438.628 484.233 440.667 481.337 440.667C479.87 440.667 478.384 439.905 477.66 438.742H477.603V444.229ZM481.223 439.485C483.376 439.485 484.824 437.961 484.824 435.694C484.824 433.427 483.376 431.883 481.223 431.883C479.108 431.883 477.603 433.427 477.603 435.694C477.603 437.961 479.108 439.485 481.223 439.485Z" fill="white"/>
<path d="M469.351 431.578C472.075 431.578 473.904 433.407 473.904 436.075C473.904 438.818 471.942 440.667 469.027 440.667C465.731 440.667 464.073 438.666 464.073 434.932C464.073 430.797 465.407 428.892 468.913 428.454C471.027 428.206 471.885 427.825 471.885 427.082H473.257C473.257 428.606 472.094 429.349 468.989 429.692C466.664 429.978 465.617 431.121 465.426 433.484C466.207 432.283 467.674 431.578 469.351 431.578ZM469.008 439.485C471.161 439.485 472.533 438.171 472.533 436.113C472.533 434.112 471.218 432.779 469.065 432.779C466.95 432.779 465.502 434.112 465.502 436.113C465.502 438.171 466.836 439.485 469.008 439.485Z" fill="white"/>
<path d="M457.115 440.667C454.143 440.667 452.143 438.609 452.143 435.694C452.143 432.779 454.143 430.702 457.115 430.702C460.088 430.702 462.088 432.779 462.088 435.694C462.088 438.609 460.088 440.667 457.115 440.667ZM457.115 439.485C459.364 439.485 460.735 437.904 460.735 435.694C460.735 433.484 459.364 431.883 457.115 431.883C454.867 431.883 453.514 433.484 453.514 435.694C453.514 437.904 454.867 439.485 457.115 439.485Z" fill="white"/>
<path d="M586.711 412.561C586.711 412.751 586.711 412.923 586.673 413.17H578.156C578.347 415.152 579.738 416.485 581.776 416.485C583.472 416.485 584.52 415.876 584.996 414.694H586.444C585.892 416.619 584.272 417.667 581.776 417.667C578.785 417.667 576.766 415.647 576.766 412.694C576.766 409.779 578.861 407.702 581.796 407.702C584.692 407.702 586.711 409.741 586.711 412.561ZM581.796 408.883C579.833 408.883 578.442 410.179 578.176 412.046H585.339C585.206 410.179 583.758 408.883 581.796 408.883Z" fill="white"/>
<path d="M565.294 411.074H567.351C569.981 411.074 571.41 412.16 571.41 414.256C571.41 416.333 569.981 417.419 567.351 417.419H563.998V407.969H565.294V411.074ZM573.067 417.419V407.969H574.363V417.419H573.067ZM565.294 416.238H567.275C569.161 416.238 570.038 415.628 570.038 414.256C570.038 412.865 569.161 412.256 567.275 412.256H565.294V416.238Z" fill="white"/>
<path d="M559.689 411.97V407.969H561.003V417.419H559.689V413.151H553.497V417.419H552.201V407.969H553.497V411.97H559.689Z" fill="white"/>
<path d="M547.893 411.97V407.969H549.208V417.419H547.893V413.151H541.701V417.419H540.405V407.969H541.701V411.97H547.893Z" fill="white"/>
<path d="M538.094 412.561C538.094 412.751 538.094 412.923 538.056 413.17H529.539C529.73 415.152 531.121 416.485 533.159 416.485C534.855 416.485 535.903 415.876 536.379 414.694H537.827C537.275 416.619 535.655 417.667 533.159 417.667C530.168 417.667 528.148 415.647 528.148 412.694C528.148 409.779 530.244 407.702 533.178 407.702C536.074 407.702 538.094 409.741 538.094 412.561ZM533.178 408.883C531.216 408.883 529.825 410.179 529.558 412.046H536.722C536.589 410.179 535.141 408.883 533.178 408.883Z" fill="white"/>
<path d="M515.801 417.419H514.506V407.969H516.049L520.107 413.913H520.164L524.223 407.969H525.747V417.419H524.432V409.798H524.375L520.603 415.304H519.631L515.859 409.798H515.801V417.419Z" fill="white"/>
<path d="M512.194 412.561C512.194 412.751 512.194 412.923 512.156 413.17H503.64C503.83 415.152 505.221 416.485 507.26 416.485C508.956 416.485 510.003 415.876 510.48 414.694H511.928C511.375 416.619 509.756 417.667 507.26 417.667C504.269 417.667 502.249 415.647 502.249 412.694C502.249 409.779 504.345 407.702 507.279 407.702C510.175 407.702 512.194 409.741 512.194 412.561ZM507.279 408.883C505.316 408.883 503.926 410.179 503.659 412.046H510.823C510.689 410.179 509.241 408.883 507.279 408.883Z" fill="white"/>
<path d="M491.874 421.229H490.578V407.969H491.817V409.703H491.874C492.521 408.521 494.103 407.702 495.608 407.702C498.504 407.702 500.466 409.741 500.466 412.694C500.466 415.628 498.504 417.667 495.608 417.667C494.141 417.667 492.655 416.905 491.931 415.742H491.874V421.229ZM495.494 416.485C497.647 416.485 499.095 414.961 499.095 412.694C499.095 410.427 497.647 408.883 495.494 408.883C493.379 408.883 491.874 410.427 491.874 412.694C491.874 414.961 493.379 416.485 495.494 416.485Z" fill="white"/>
<path d="M486.331 412.427V412.503C487.474 412.77 488.16 413.627 488.16 414.771C488.16 416.523 486.941 417.419 484.559 417.419H479.415V407.969H484.559C486.522 407.969 487.589 408.845 487.589 410.388C487.589 411.322 487.112 412.046 486.331 412.427ZM484.388 409.15H480.711V412.027H484.388C485.569 412.027 486.217 411.513 486.217 410.56C486.217 409.607 485.588 409.15 484.388 409.15ZM480.711 416.238H484.75C486.045 416.238 486.788 415.742 486.788 414.694C486.788 413.646 486.064 413.151 484.75 413.151H480.711V416.238Z" fill="white"/>
<path d="M472.037 417.667C469.065 417.667 467.064 415.609 467.064 412.694C467.064 409.779 469.065 407.702 472.037 407.702C475.009 407.702 477.01 409.779 477.01 412.694C477.01 415.609 475.009 417.667 472.037 417.667ZM472.037 416.485C474.285 416.485 475.657 414.904 475.657 412.694C475.657 410.484 474.285 408.883 472.037 408.883C469.789 408.883 468.436 410.484 468.436 412.694C468.436 414.904 469.789 416.485 472.037 416.485Z" fill="white"/>
<path d="M459.097 417.609C455.077 417.609 452.467 414.733 452.467 410.751C452.467 406.769 455.077 403.892 459.097 403.892C462.546 403.892 464.813 406.025 465.213 408.655H463.746C463.384 406.769 461.707 405.206 459.097 405.206C455.953 405.206 453.953 407.55 453.953 410.751C453.953 413.951 455.953 416.295 459.097 416.295C461.726 416.295 463.346 414.809 463.784 412.846H465.251C464.737 415.514 462.527 417.609 459.097 417.609Z" fill="white"/>
</svg>
