<svg xmlns="http://www.w3.org/2000/svg" width="541" height="585" fill="none" viewBox="0 0 541 585">
  <path fill="#fff" d="M509.084 441.989a9.433 9.433 0 0 0-3.743 3.743 9.401 9.401 0 0 0-3.743-3.743 9.44 9.44 0 0 0 3.743-3.743 9.477 9.477 0 0 0 3.743 3.743Z"/>
  <path fill="#2F3933" d="m471.757 393.65-2.106-3.306a.962.962 0 0 0-1.624 1.03l2.106 3.307-26.292-2.57a2.518 2.518 0 0 1-1.591-.489 2.468 2.468 0 0 1-.156-1.643l2.067-19.399c.46.619.872 1.273 1.232 1.956a.968.968 0 0 0 .956.573.968.968 0 0 0 .859-.711.948.948 0 0 0-.113-.762 16.717 16.717 0 0 0-3.358-4.395.966.966 0 0 0-.776-.248.944.944 0 0 0-.652.424l-2.68 4.069a.963.963 0 0 0 .241 1.298c.058.039.122.07.189.091a.955.955 0 0 0 1.141-.372l.972-1.467-1.996 18.715c-.084.776-.221 2.08.574 3.058.329.396.756.697 1.239.874a6.425 6.425 0 0 0 1.663.326l26.651 2.608a2.574 2.574 0 0 1-.333.437 7.246 7.246 0 0 1-2.087 1.265.981.981 0 0 0-.504.555.977.977 0 0 0 .576 1.238.931.931 0 0 0 .75 0 8.71 8.71 0 0 0 2.608-1.656 3.637 3.637 0 0 0 1.07-3.462 4.804 4.804 0 0 0-.626-1.344Z"/>
  <path fill="#2F3933" d="m489.571 359.207-10.303 70.757a.969.969 0 0 1-1.075.822l-51.919-6.586a1.297 1.297 0 0 1-.222-.059.961.961 0 0 1-.613-.998 856.32 856.32 0 0 1 9.573-66.682c.267-1.454.6-3.26 1.799-4.636 1.813-2.074 4.408-2.126 6.952-1.865 2.138.215 4.284.417 6.429.652l2.811.267a5.931 5.931 0 0 1 3.077-1.669 13.377 13.377 0 0 1 3.541-.117c.17-2.139.535-4.311 1.865-6.084a7.095 7.095 0 0 1 11.959 7.557c1.813.281 3.613.848 4.748 2.381a5.46 5.46 0 0 1 .991 2.725l9.677 2.491a.954.954 0 0 1 .71 1.044Zm-19.053 62.189a9.137 9.137 0 0 0 2.51-3.808l-9.24 1.773 1.598 4.024a9.22 9.22 0 0 0 5.132-1.989Zm3.162-5.869c.274-1.089.496-2.237.698-3.397l8.144-46.95c.17-.992.287-1.865 0-2.511-.528-1.069-2.256-1.304-3.612-.867a.937.937 0 0 1-.424.032 5.214 5.214 0 0 1-2.119 2.83c-1.585.953-3.541.653-4.832.463l-13.133-1.956a15.726 15.726 0 0 1-3.358-.782 5.87 5.87 0 0 1-3.854-3.913 8.08 8.08 0 0 1-.242-2.778 17.24 17.24 0 0 0-4.564-.606 5.977 5.977 0 0 0-4.35 1.813c-1.062 1.232-1.388 3.097-1.656 4.603a753.497 753.497 0 0 0-7.727 56.08l24.929 5.014c1.899.432 3.828.715 5.771.848l-1.76-4.454a.954.954 0 0 1 .052-.815.945.945 0 0 1 .652-.483l11.385-2.171Zm-20.867-58.688c.03.386.093.767.19 1.142.586 2.125 2.686 2.856 5.647 3.299l13.126 1.956c1.356.203 2.647.339 3.56-.208a3.798 3.798 0 0 0 1.487-2.465l-24.01-3.724Zm8.719-7.531.326.039c.587.078 1.161.15 1.715.202 2.608.248 5.216.507 7.825.776a.817.817 0 0 1 .111-.228 5.177 5.177 0 0 0-8.477-5.941c-1.05 1.376-1.35 3.254-1.5 5.152Zm-7.825 3.789a5.98 5.98 0 0 0-.744 1.825l24.193 3.756c.228-1.702.358-3.436-.496-4.564a3.502 3.502 0 0 0-1.669-1.181 12.495 12.495 0 0 0-3.111-.606c-2.823-.293-5.647-.567-8.477-.841-.574-.052-1.173-.131-1.773-.209a16.957 16.957 0 0 0-5.171-.156 4.18 4.18 0 0 0-2.772 1.949l.02.027Zm23.814 75.68 10.042-68.964-8.36-2.152c-.039.483-.098.972-.163 1.454 0 .215-.065.457-.104.718 2.021-.398 4.33.13 5.262 2.008.652 1.258.385 2.667.209 3.691l-8.145 46.95c-.71 4.062-1.584 7.916-4.499 10.433-2.308 1.956-5.217 2.458-7.264 2.517a32.44 32.44 0 0 1-7.33-.9l-25.776-5.243-.15-.045a.956.956 0 0 1-.653-.991 744.572 744.572 0 0 1 7.825-57.084c.307-1.734.692-3.912 2.094-5.516a7.897 7.897 0 0 1 5.738-2.491 18.89 18.89 0 0 1 4.995.652c.128-.39.28-.771.456-1.141l-1.708-.163c-2.145-.209-4.291-.411-6.436-.652-2.341-.235-4.134-.118-5.302 1.219-.789.906-1.069 2.165-1.356 3.723a850.154 850.154 0 0 0-9.462 65.593l50.087 6.384Z"/>
  <path fill="#1FAD96" d="m444.123 387.925.111.052a.954.954 0 0 0 1.187-.45l6.436-12.122 1.845 13.041a.97.97 0 0 0 .854.818.969.969 0 0 0 1.005-.622l5.217-14.346 1.578 13.081a.959.959 0 0 0 1.838.254l3.124-7.433 1.304 4.818a.96.96 0 0 0 .809.705l5.64.71a.966.966 0 0 0 .241-1.91l-5.001-.652-1.858-6.912a.971.971 0 0 0-.868-.706.97.97 0 0 0-.952.588l-2.797 6.665-1.617-13.472a.964.964 0 0 0-1.466-.706.967.967 0 0 0-.399.49l-5.289 14.548-1.715-12.128a.959.959 0 0 0-.264-.533.951.951 0 0 0-.526-.277.96.96 0 0 0-1.016.497l-7.825 14.737a.956.956 0 0 0 .404 1.265Z"/>
  <path fill="#2F3933" d="M449.065 404.814a.965.965 0 0 0-.17 1.349.962.962 0 0 0 1.35.176l3.88-2.999a.992.992 0 0 0 .587-.118.959.959 0 0 0 .385-1.239.957.957 0 0 0-.189-.469.997.997 0 0 0-.209-.196 10.981 10.981 0 0 0-4.219-3.73.97.97 0 0 0-.734-.05.978.978 0 0 0-.554.484.97.97 0 0 0-.05.734.961.961 0 0 0 .484.554 9.04 9.04 0 0 1 2.451 1.819 50.658 50.658 0 0 0-10.655-1.643.96.96 0 0 0-.384 1.858.86.86 0 0 0 .3.066c3.422.158 6.819.676 10.133 1.545l-2.406 1.859Zm13.232-2.524a1.683 1.683 0 0 0-1.46.189l-4.017 3.619a.964.964 0 0 0-.072 1.356.974.974 0 0 0 1.363.072l2.256-2.035a17.158 17.158 0 0 1-3.873 11.673.962.962 0 0 0 .162 1.309.963.963 0 0 0 1.318-.077 19.14 19.14 0 0 0 4.271-13.694c.451.519.755 1.15.88 1.826a.962.962 0 0 0 1.734.379.957.957 0 0 0 .157-.718 5.794 5.794 0 0 0-2.719-3.899Z"/>
  <path fill="#1FAD96" d="M6.58 288.729s-7.544 2.413-5.757 9.377c1.786 6.965 15.97 42.647 15.97 42.647l4.994 9.331 2.491.365a10.98 10.98 0 0 1 1.774-6.566L6.659 293.229l-.079-4.5Z"/>
  <path fill="#2F3933" d="M33.421 350.469c-2.27.815-4.623 1.558-6.892 1.558a8.273 8.273 0 0 1-3.73-.828c-2.902-1.422-4.409-4.454-5.7-7.44A600.772 600.772 0 0 1 1.625 304.21c-1.519-4.336-2.608-8.836-.273-12.442 1.793-2.778 5.144-4.023 7.596-4.93 4.07-1.454 8.184-2.993 12.162-4.486 2.017-.756 4.036-1.508 6.058-2.256l8.144-3.019c.496-.183 1.024-.411 1.585-.652 1.689-.724 3.606-1.539 5.458-1.513 3.873.071 6.012 4.864 7.57 8.373.378.847.737 1.643 1.057 2.236l16.771 30.935c2.335 4.31 4.363 8.549 3.554 13.042-.6 3.26-2.778 6.364-6.123 8.679-2.908 2.008-6.214 3.189-9.423 4.336l-22.34 7.956Zm36.002-23.378h.13c-.085-2.341-.972-4.701-2.145-7.101-.985-.124-1.957.809-2.152 1.761a4.1 4.1 0 0 0 1.07 3.404.964.964 0 0 1 .175.906.952.952 0 0 1-.652.652 10.589 10.589 0 0 0-3.815 1.956c-.22.149-.4.348-.528.581a.118.118 0 0 0 0 .065c.04.038.078.08.111.124a273.354 273.354 0 0 1 7.806-2.348Zm-27.095-50.249a10 10 0 0 0-3.853 1.011.981.981 0 0 0 .397.541c.423.234.916.308 1.39.209a8.164 8.164 0 0 0 1.806-.613.974.974 0 0 1 1.137.336.98.98 0 0 1 .167.387 2.282 2.282 0 0 0 1.304 1.657 2.3 2.3 0 0 0 1.63 0c-1.03-1.924-2.354-3.495-3.978-3.528ZM7.54 289.466l10.629 31.652c2.406 7.173 4.897 14.574 8.516 21.323a24.242 24.242 0 0 1 3.658-1.793 353.067 353.067 0 0 1 29.344-10.661 2.048 2.048 0 0 1 0-1.448 3.348 3.348 0 0 1 1.122-1.402 12.61 12.61 0 0 1 3.26-1.897 5.59 5.59 0 0 1-.691-3.913 4.252 4.252 0 0 1 3.09-3.189l-.397-.736-16.798-30.961c-.352-.652-.724-1.487-1.121-2.367a61.984 61.984 0 0 0-.92-2.009 4.243 4.243 0 0 1-1.721.378 4.05 4.05 0 0 1-3.665-2.295c-.423.159-.86.279-1.304.359a3.917 3.917 0 0 1-2.745-.502c-.51-.34-.9-.83-1.116-1.402-.24.097-.476.195-.717.28l-8.144 3.019c-2.013.743-4.03 1.496-6.052 2.256-3.984 1.494-8.099 3.032-12.18 4.493-.698.267-1.396.535-2.048.815Zm15.304 59.516a6.667 6.667 0 0 1 2.093-5.178 2.66 2.66 0 0 1 .21-.182c.07-.059-.047-.052-.06-.078-3.756-6.945-6.292-14.503-8.744-21.813L5.799 290.314a7.775 7.775 0 0 0-2.817 2.497c-1.878 2.909-.88 6.893.476 10.76a596.719 596.719 0 0 0 15.422 39.425c1.05 2.399 2.138 4.695 3.951 5.986h.013Zm9.944-.326 22.354-7.982c3.084-1.095 6.273-2.236 8.973-4.101 1.695-1.167 4.636-3.691 5.32-7.441a.083.083 0 0 1 0-.039 348.012 348.012 0 0 0-38.355 13.335c-1.956.816-3.567 1.539-4.793 2.752-1.076 1.063-1.956 2.83-1.389 4.382a.942.942 0 0 1 .046.352c2.387.548 5.164-.306 7.831-1.258h.014Z"/>
  <path fill="#2F3933" d="M19.872 296.991a3.98 3.98 0 0 1 1.878-3.443 8.24 8.24 0 0 1 3.3-1.134c.377-.066.756-.105 1.14-.15-.071-2.609.287-5.06 1.67-6.13.613-.469 1.682-.893 3.332-.202a7.206 7.206 0 0 1 2.993 2.797l.156.242c1.957-1.481 4.089-2.517 5.7-2.041.736.215 1.702.841 2.106 2.608a7.171 7.171 0 0 1-.515 4.062c-.157.444-.34.874-.522 1.305 2.654 1.252 5.1 2.908 5.4 4.838.117.763 0 1.904-1.435 3.019a7.17 7.17 0 0 1-3.913 1.265c-.404.039-.802.066-1.206.085.065.517.117 1.033.156 1.545.196 2.537-.41 4.265-1.786 5.139a3.585 3.585 0 0 1-1.898.522 4.463 4.463 0 0 1-2.021-.503 8.235 8.235 0 0 1-2.609-2.34c-.084-.105-.163-.222-.241-.327l-.19.163c-1.42 1.2-2.738 1.807-3.912 1.807a3.42 3.42 0 0 1-1.271-.248 3.985 3.985 0 0 1-2.309-3.169 8.164 8.164 0 0 1 .379-3.469c.156-.541.332-1.083.521-1.617-.43-.176-.86-.353-1.304-.548-2.282-1.083-3.508-2.445-3.6-4.076Zm10.602 9.547a25.869 25.869 0 0 1-1.956-3.671 30.274 30.274 0 0 1-1.91-.6c-.17.482-.333.978-.47 1.473a6.452 6.452 0 0 0-.326 2.661 2.104 2.104 0 0 0 1.128 1.669c.802.32 1.891-.098 3.26-1.245.066-.092.164-.196.274-.287Zm-1.415-12.533h-.854c0 .319.065.652.105.965.267-.32.515-.646.75-.965Zm-.273 3.691c.277 1.21.645 2.398 1.102 3.553 1.583.399 3.194.678 4.818.835a32.054 32.054 0 0 0 2.198-3.156 32.118 32.118 0 0 0-1.539-4.108 23.896 23.896 0 0 0-3.873-.698 24.997 24.997 0 0 0-2.68 3.574h-.026Zm5.49-5.119a27.456 27.456 0 0 0-.417-.757l-.652.561c.378.078.724.144 1.07.196Zm3.913 4.036c.123-.248.24-.502.358-.75l-.75-.293c.163.365.294.711.392 1.063v-.02Zm-.653 4.826c-.182.26-.371.508-.554.762h.691a3.295 3.295 0 0 0-.084-.743l-.053-.019Zm-5.673 3.762c.457-.45.907-.9 1.337-1.376a36.259 36.259 0 0 1-2.354-.391c.365.626.71 1.213 1.07 1.787l-.053-.02Zm-4.434-5.08-.163.333.3.104-.137-.437Zm10.558 4.024h-.177a37.99 37.99 0 0 1-2.288-.085c-.8.96-1.652 1.876-2.55 2.745.104.144.209.294.32.431a6.285 6.285 0 0 0 1.956 1.819 2.095 2.095 0 0 0 2.015.065c.724-.456 1.023-1.591.893-3.365.033-.515-.052-1.05-.117-1.591l-.053-.019Zm2.295-7.512a40.47 40.47 0 0 1-1.304 2.53c.267.984.495 1.956.652 2.993.43 0 .867-.039 1.304-.085a5.577 5.577 0 0 0 2.882-.861c.822-.652.75-1.069.73-1.206-.084-.906-1.695-2.158-4.212-3.352l-.052-.019Zm-4.956-6.052c.509.848.972 1.722 1.402 2.609.574.169 1.154.365 1.721.58l.848.326c.157-.398.326-.789.47-1.193.423-.93.581-1.959.456-2.974-.235-1.017-.652-1.134-.782-1.173-.744-.216-2.244.469-4.063 1.864l-.052-.039Zm-7.264 1.507a24.105 24.105 0 0 1 2.647.032c.163-.169.32-.345.49-.508a34.147 34.147 0 0 1 1.577-1.448c-.078-.124-.15-.248-.234-.365a5.521 5.521 0 0 0-2.146-2.106 2.406 2.406 0 0 0-.893-.222.79.79 0 0 0-.515.163c-.58.535-.933 2.171-.874 4.473l-.052-.019Zm-6.325 4.773c.052.861.9 1.669 2.51 2.413.404.182.809.339 1.213.502.374-.836.794-1.65 1.258-2.439-.084-.45-.176-.893-.24-1.343a49.316 49.316 0 0 1-.223-1.839c-.313.039-.652.085-.945.137a6.446 6.446 0 0 0-2.537.834 2.121 2.121 0 0 0-.984 1.754l-.052-.019Zm11.534 21.93a.988.988 0 0 0 .352-.071l10.375-4.056a.973.973 0 0 0 .667-.886.96.96 0 0 0-.28-.713.974.974 0 0 0-.71-.284.963.963 0 0 0-.381.089l-10.375 4.056a.968.968 0 0 0-.6 1.079.961.961 0 0 0 .952.786Zm11.999-3.156-12.684 4.981a.967.967 0 0 0-.003 1.737.967.967 0 0 0 .701.057l12.683-4.95a.961.961 0 0 0 .615-.88.97.97 0 0 0-.067-.372.957.957 0 0 0-1.245-.573Zm-15.906 12.461a.97.97 0 0 0 .887.587c.13-.001.258-.028.378-.078l24.127-10.225a.968.968 0 0 0 .47-1.249.967.967 0 0 0-1.226-.525l-24.127 10.225a.963.963 0 0 0-.509 1.265Z"/>
  <path fill="#1FAD96" d="M515.336 34.75a4.11 4.11 0 0 1 3.978-3.364 3.91 3.91 0 0 1 3.912 3.143 4.644 4.644 0 0 1-.469 3.495 4.066 4.066 0 0 1-3.443 1.845 3.853 3.853 0 0 1-1.657-.365 4.324 4.324 0 0 1-2.321-4.754Z"/>
  <path fill="#2F3933" d="M533.484 73.073c-2.002 12.305-9.709 21.786-15.826 27.57-2.074 1.956-4.564 4.024-7.499 5.034a16.917 16.917 0 0 1 6.149 5.132c1.187 1.624 1.304 3.313.274 4.297a2.446 2.446 0 0 1-1.773.653 5.564 5.564 0 0 1-1.859-.385l-50.804-17.939c-1.102-.391-4.46-1.578-4.636-4.382-.13-2.184 1.871-3.847 3.802-4.14a8.84 8.84 0 0 1 4.479.73l3.913-10.277a.963.963 0 0 1-.15-.248l-4.134-9.781a.969.969 0 0 1 .166-1.016.96.96 0 0 1 .988-.288l20.554 6.012-3.626-2.315a.964.964 0 0 1-.365-1.2l3.325-7.558-6.423 3.052c-.63.344-1.33.542-2.047.58a2.351 2.351 0 0 1-1.141-.273 3.497 3.497 0 0 1-1.396-1.605l-1.513-2.836a2.287 2.287 0 0 1-.345-1.435c.163-1.07 1.213-1.5 1.604-1.669l10.316-4.219a5.56 5.56 0 0 1 .078-.854c.398-2.21 2.074-3.802 3.763-5.217a393.715 393.715 0 0 1 8.177-6.788 404.7 404.7 0 0 1 14.998-11.535 398.01 398.01 0 0 1 3.782-2.733c.182-.13.378-.28.574-.437.867-.652 1.956-1.493 3.182-1.617a4.922 4.922 0 0 1 2.823.724l2.348-2.263a2.38 2.38 0 0 1 1.304-.723c1.102-.163 1.832.763 2.106 1.115l2.504 3.162c.418.522 1.304 1.617.978 2.876a3.472 3.472 0 0 1-1.121 1.656l-1.891 1.774a7.175 7.175 0 0 1-.222 4.565 11.618 11.618 0 0 1-2.974 3.912c-.691.67-1.388 1.337-2.093 2.002 7.669 6.468 11.477 17.704 9.651 28.887Zm-8.999-45.893a19.3 19.3 0 0 1 2.667 2.712 10.58 10.58 0 0 1 1.168 1.826l1.304-1.239c.239-.187.433-.425.567-.698.085-.345-.411-.971-.652-1.232l-2.497-3.163a2.405 2.405 0 0 0-.353-.378l-.189.183-2.015 1.989Zm-14.73 7.381a64.434 64.434 0 0 1 8.973 11.633 237.615 237.615 0 0 0 5.796-5.451 10.117 10.117 0 0 0 2.531-3.26c.756-1.879.202-4.396-1.402-6.397-1.52-1.885-3.776-3.848-5.269-3.848h-.157c-.691.065-1.486.652-2.191 1.226-.221.17-.43.333-.652.476-1.26.9-2.515 1.809-3.762 2.726-1.278.958-2.576 1.917-3.867 2.889v.006Zm10.283 13.042-1.017.913a12.272 12.272 0 0 1 2.934 9.403c-.065.574-.176 1.134-.28 1.67a11.391 11.391 0 0 0-.32 2.607c.046 1.102.6 2.348 1.585 2.609.985.26 1.839-.47 2.276-1.233a6.141 6.141 0 0 0 .547-3.39 19.085 19.085 0 0 0-5.725-12.586v.007Zm-12.774-5.367-6.945 4.878 1.904 2.536 6.521-5.216a.995.995 0 0 1 .137-.092 109.838 109.838 0 0 0-1.617-2.112v.006Zm-3.913 8.953 1.513 2.015 6.521-5.425a49.603 49.603 0 0 0-1.369-1.91l-.059.058-6.606 5.262Zm10.062-.358c-.313-.49-.652-.966-.972-1.448l-6.416 5.36 1.004 1.337a202.535 202.535 0 0 0 6.41-5.256l-.026.007Zm3.828-3.333a62.2 62.2 0 0 0-9.058-11.737c-.778.587-1.552 1.176-2.321 1.767a120.281 120.281 0 0 1 9.025 12.064c.808-.705 1.602-1.404 2.38-2.1l-.026.006Zm-18.559-4.336-.841.691 1.304 1.722 6.906-4.852c-.554-.652-1.122-1.363-1.695-2.034a254.264 254.264 0 0 0-5.647 4.467l-.027.006Zm-8.601 16.785c1.455 1.78 3.039 3.527 5.002 3.658 1.637.11 3.26-.952 4.754-2.054a196.623 196.623 0 0 0 5.699-4.29l-9.129-12.195a332.728 332.728 0 0 0-5.804 4.845c-1.474 1.259-2.823 2.524-3.11 4.108-.405 2.048 1.128 4.135 2.588 5.928Zm1.957 4.564a13.819 13.819 0 0 1-2.967-2.758l-2.23 5.067 3.801 2.034 1.396-4.343Zm-4.232-4.33a12.231 12.231 0 0 1-2.054-3.684l-6.573 2.713 2.204 4.03 6.423-3.059Zm-8.614 4.102.45-.215-2.25-4.115-1.48.607c-.142.059-.28.128-.411.208 0 .059.091.163.111.209l1.513 2.843c.133.308.334.582.586.802.379.196 1.155-.176 1.494-.332l-.013-.007Zm6.018 6.26 3.417 2.184c.196.144.418.25.652.313a2.64 2.64 0 0 0 .157-.404l.652-1.923-3.984-2.126-.894 1.956Zm4.702 4.323 6.397 1.865a.994.994 0 0 1 .652.79.974.974 0 0 1-.43.945l-8.21 5.314c.869.244 1.75.479 2.641.705 4.401 1.134 9.488 2.223 14.078.756 5.582-1.78 10.062-7.545 11.405-14.691 1.194-6.306.189-12.768-.893-19.041a226.273 226.273 0 0 1-14.626 11.594c-1.696 1.232-3.528 2.432-5.641 2.432h-.372a5.556 5.556 0 0 1-1.147-.202l-2.537 7.903a2.472 2.472 0 0 1-.984 1.474 2.085 2.085 0 0 1-.32.163l-.013-.007Zm-3.913 8.243a.978.978 0 0 1 .274-.268l3.15-2.034-19.771-6.377 1.519 3.612a.229.229 0 0 1 .072 0c4.812 1.956 9.755 3.62 14.75 5.073l.006-.006Zm-18.023-12.664.691 1.644 22.608 7.29c.072.022.14.055.202.098l2.295-1.487-25.796-7.545Zm38.662 35.93a.694.694 0 0 1-.176-.072h-.215c-3.482 0-6.867-1.35-9.69-2.471l-30.368-12.096a.9.9 0 0 1-.502-.059c-1.343-.541-2.765-1.056-4.089-.854-1.075.163-2.23 1.07-2.164 2.113.065 1.043 1.16 1.917 3.351 2.686l50.811 17.946c1.089.384 1.499.293 1.649.149.294-.286 0-1.141-.489-1.773a14.892 14.892 0 0 0-8.125-5.562l.007-.007Zm15.728-60.937c-.3.287-.606.567-.913.848a21.025 21.025 0 0 1 6.234 13.778 8.227 8.227 0 0 1-.795 4.434 4.37 4.37 0 0 1-3.606 2.25c-.27.002-.54-.029-.803-.091-2.001-.496-2.98-2.609-3.051-4.382a13.016 13.016 0 0 1 .352-3.065c.104-.535.202-1.03.261-1.532a10.33 10.33 0 0 0-2.472-7.89l-.287.254v.09c1.122 6.457 2.394 13.78 1.07 20.77-1.474 7.825-6.469 14.183-12.709 16.178-5.08 1.617-10.479.47-15.148-.73a170.297 170.297 0 0 1-19.087-6.15l-3.814 10.036 29.656 11.822c3.261 1.304 7.252 2.895 10.995 2.146 3.156-.652 5.868-2.857 8.072-4.963 5.869-5.575 13.335-14.698 15.253-26.474 1.741-10.61-1.878-21.265-9.208-27.33Z"/>
  <path fill="#2F3933" d="M521.759 77.565a3.262 3.262 0 0 1 2.133 1.037 2.285 2.285 0 0 1 .691 1.689 2.898 2.898 0 0 1-.828 2.08 3.503 3.503 0 0 1-2.452.959c-.297 0-.593-.038-.88-.111a2.149 2.149 0 0 1-1.864-1.88 2.175 2.175 0 0 1 .096-.937 3.866 3.866 0 0 1 1.513-2.243 2.68 2.68 0 0 1 1.591-.594Zm0-2.608a5.248 5.248 0 0 0-3.136 1.102 6.522 6.522 0 0 0-2.511 3.782 5.06 5.06 0 0 0 .437 3.574 5.116 5.116 0 0 0 3.261 2.334 6.225 6.225 0 0 0 5.829-1.539 5.529 5.529 0 0 0 1.585-3.912 4.946 4.946 0 0 0-1.487-3.548 5.725 5.725 0 0 0-3.952-1.76l-.026-.033Z"/>
</svg>
