<svg width="833" height="471" viewBox="0 0 833 471" fill="none" xmlns="http://www.w3.org/2000/svg">
<path d="M0 238.774C0 229.51 7.51006 222 16.7742 222H273.978V257.785C273.978 267.049 266.468 274.559 257.204 274.559H0V238.774Z" fill="url(#paint0_radial_223_313)"/>
<path d="M234.479 253.301H232.993V243.851H234.289V251.586H234.346L240.386 243.851H241.891V253.301H240.576V245.546H240.519L234.479 253.301Z" fill="white"/>
<path d="M225.656 248.442L231.429 253.301H229.638L224.055 248.633V253.301H222.76V243.851H224.055V248.366L229.276 243.851H230.971L225.656 248.442Z" fill="white"/>
<path d="M216.174 251.776L219.623 243.851H221.033L216.727 253.682C215.641 256.178 214.745 257.302 212.973 257.302C212.554 257.302 212.211 257.245 211.868 257.13V255.949C212.23 256.082 212.516 256.12 212.859 256.12C213.869 256.12 214.555 255.644 215.336 253.663L215.45 253.358L210.782 243.851H212.268L216.117 251.776H216.174Z" fill="white"/>
<path d="M204.118 253.491C201.85 253.491 200.212 252.462 200.212 250.557C200.212 248.728 202.003 247.604 204.365 247.604C205.737 247.604 207.166 247.985 207.985 248.519V247.128C207.985 245.489 206.728 244.765 204.937 244.765C203.051 244.765 201.908 245.546 201.908 246.537H200.555C200.555 244.88 202.193 243.584 204.956 243.584C207.528 243.584 209.281 244.784 209.281 247.147V251.205C209.281 251.853 209.586 252.12 210.081 252.12C210.348 252.12 210.538 252.081 210.672 251.986V253.11C210.424 253.225 210.1 253.301 209.738 253.301C208.862 253.301 208.328 252.92 208.119 252.215H208.043C207.223 252.977 205.718 253.491 204.118 253.491ZM204.384 252.31C205.794 252.31 207.185 251.872 207.985 251.091V249.605C207.223 249.128 205.909 248.804 204.632 248.804C202.879 248.804 201.565 249.414 201.565 250.557C201.565 251.815 202.822 252.31 204.384 252.31Z" fill="white"/>
<path d="M196.571 247.852V243.851H197.885V253.301H196.571V249.033H190.379V253.301H189.083V243.851H190.379V247.852H196.571Z" fill="white"/>
<path d="M177.15 242.117C175.34 242.117 174.235 241.164 174.235 239.659H175.359C175.359 240.574 176.026 241.126 177.15 241.126C178.255 241.126 178.922 240.574 178.922 239.659H180.046C180.046 241.164 178.941 242.117 177.15 242.117ZM174.178 253.301H172.691V243.851H173.987V251.586H174.044L180.084 243.851H181.589V253.301H180.274V245.546H180.217L174.178 253.301Z" fill="white"/>
<path d="M165.314 253.548C162.341 253.548 160.341 251.491 160.341 248.576C160.341 245.661 162.341 243.584 165.314 243.584C168.286 243.584 170.286 245.661 170.286 248.576C170.286 251.491 168.286 253.548 165.314 253.548ZM165.314 252.367C167.562 252.367 168.934 250.786 168.934 248.576C168.934 246.366 167.562 244.765 165.314 244.765C163.065 244.765 161.713 246.366 161.713 248.576C161.713 250.786 163.065 252.367 165.314 252.367Z" fill="white"/>
<path d="M156.642 247.852V243.851H157.957V253.301H156.642V249.033H150.45V253.301H149.154V243.851H150.45V247.852H156.642Z" fill="white"/>
<path d="M145.7 243.851V252.119H147.224V255.873H145.91V253.301H137.622V255.873H136.326V252.119H136.574C137.412 252.119 137.888 251.548 137.965 250.29L138.365 243.851H145.7ZM138.498 252.062V252.119H144.385V245.032H139.584L139.279 249.986C139.203 251.091 138.898 251.796 138.498 252.062Z" fill="white"/>
<path d="M129.061 253.491C126.794 253.491 125.155 252.462 125.155 250.557C125.155 248.728 126.946 247.604 129.309 247.604C130.681 247.604 132.109 247.985 132.929 248.519V247.128C132.929 245.489 131.671 244.765 129.88 244.765C127.994 244.765 126.851 245.546 126.851 246.537H125.498C125.498 244.88 127.137 243.584 129.899 243.584C132.471 243.584 134.224 244.784 134.224 247.147V251.205C134.224 251.853 134.529 252.12 135.025 252.12C135.291 252.12 135.482 252.081 135.615 251.986V253.11C135.367 253.225 135.044 253.301 134.682 253.301C133.805 253.301 133.272 252.92 133.062 252.215H132.986C132.167 252.977 130.661 253.491 129.061 253.491ZM129.328 252.31C130.738 252.31 132.129 251.872 132.929 251.091V249.605C132.167 249.128 130.852 248.804 129.575 248.804C127.823 248.804 126.508 249.414 126.508 250.557C126.508 251.815 127.765 252.31 129.328 252.31Z" fill="white"/>
<path d="M113.626 253.491C113.322 253.491 112.979 253.453 112.826 253.377V252.138C112.979 252.158 113.188 252.177 113.341 252.177C114.141 252.177 114.579 251.796 114.655 250.576L115.055 243.851H122.81V253.301H121.514V245.032H116.275L115.932 250.767C115.836 252.52 115.112 253.491 113.626 253.491Z" fill="white"/>
<path d="M106.67 248.442L112.443 253.301H110.652L105.07 248.633V253.301H103.774V243.851H105.07V248.366L110.29 243.851H111.986L106.67 248.442Z" fill="white"/>
<path d="M93.3709 253.301H91.8848V243.851H93.1803V251.586H93.2375L99.2772 243.851H100.782V253.301H99.4677V245.546H99.4105L93.3709 253.301Z" fill="white"/>
<path d="M80.9001 257.111H79.6045V243.851H80.8429V245.585H80.9001C81.5479 244.403 83.1292 243.584 84.6344 243.584C87.5304 243.584 89.4928 245.623 89.4928 248.576C89.4928 251.51 87.5304 253.548 84.6344 253.548C83.1673 253.548 81.6812 252.786 80.9572 251.624H80.9001V257.111ZM84.5201 252.367C86.673 252.367 88.121 250.843 88.121 248.576C88.121 246.309 86.673 244.765 84.5201 244.765C82.4052 244.765 80.9001 246.309 80.9001 248.576C80.9001 250.843 82.4052 252.367 84.5201 252.367Z" fill="white"/>
<path d="M69.2155 253.301H67.9199V243.851H76.5888V253.301H75.2742V245.032H69.2155V253.301Z" fill="white"/>
<path d="M56.8656 253.548C53.76 253.548 52.3311 252.31 52.3311 250.481H53.7028C53.7028 251.567 54.6936 252.367 56.8656 252.367C59.0185 252.367 59.9902 251.7 59.9902 250.614C59.9902 249.605 59.2281 249.033 57.5134 249.033H55.208V247.909H57.5134C58.9804 247.909 59.7235 247.414 59.7235 246.385C59.7235 245.375 58.847 244.765 56.8656 244.765C54.865 244.765 53.8553 245.527 53.8553 246.537H52.5025C52.5025 244.803 54.0839 243.584 56.8656 243.584C59.6282 243.584 61.0952 244.594 61.0952 246.27C61.0952 247.356 60.4856 248.042 59.5139 248.328V248.404C60.7142 248.69 61.362 249.528 61.362 250.633C61.362 252.462 59.8568 253.548 56.8656 253.548Z" fill="white"/>
<path d="M46.7483 251.776L50.1968 243.851H51.6067L47.3008 253.682C46.2149 256.178 45.3194 257.302 43.5475 257.302C43.1283 257.302 42.7854 257.245 42.4424 257.13V255.949C42.8044 256.082 43.0902 256.12 43.4332 256.12C44.443 256.12 45.1289 255.644 45.91 253.663L46.0243 253.358L41.3564 243.851H42.8425L46.6912 251.776H46.7483Z" fill="white"/>
<path d="M37.9592 246.175V246.232C39.5405 246.708 40.4551 247.928 40.4551 249.528C40.4551 251.986 38.7784 253.301 35.6538 253.301H29.8428V239.964H35.5967C38.3021 239.964 39.8263 241.164 39.8263 243.298C39.8263 244.651 39.1785 245.642 37.9592 246.175ZM35.5967 241.278H31.2717V245.718H35.6538C37.3495 245.718 38.3402 244.879 38.3402 243.47C38.3402 242.022 37.4066 241.278 35.5967 241.278ZM31.2717 251.986H35.6729C37.8449 251.986 38.969 251.129 38.969 249.49C38.969 247.871 37.8639 246.956 35.8824 246.956H31.2717V251.986Z" fill="white"/>
<defs>
<radialGradient id="paint0_radial_223_313" cx="0" cy="0" r="1" gradientUnits="userSpaceOnUse" gradientTransform="translate(-31.8355 288.077) rotate(-13.2503) scale(357.755 192.034)">
<stop stop-color="#AC95FF"/>
<stop offset="1" stop-color="#8131FF"/>
</radialGradient>
</defs>
</svg>
