<?xml version="1.0" encoding="UTF-8"?>
<svg id="Layer_1" xmlns="http://www.w3.org/2000/svg" version="1.1" viewBox="0 0 1000 1000">
  <!-- Generator: Adobe Illustrator 29.1.0, SVG Export Plug-In . SVG Version: 2.1.0 Build 142)  -->
  <path d="M510.8,997.1c-98.6,0-144.4-14.4-224-71.9-50.4,64.8-209.8,115.4-216.8,28.8,0-65-14.4-119.9-30.7-179.9C19.9,700.3-2.2,618-2.2,498.8-2.2,214.2,231.4,0,508.2,0s494,224.7,494,501.5c.9,272.5-218.9,494.2-491.4,495.7M514.9,246c-134.8-7-239.8,86.3-263.1,232.6-19.2,121.1,14.9,268.6,43.9,276.3,13.9,3.4,48.9-24.9,70.7-46.8,36.1,24.9,78.1,39.9,121.8,43.4,139.6,6.7,259-99.6,268.4-239.1,5.5-139.8-102.1-258.2-241.7-266.2v-.2Z"/>
</svg>