<?xml version="1.0" encoding="utf-8"?>
<!-- Generator: Adobe Illustrator 28.1.0, SVG Export Plug-In . SVG Version: 6.00 Build 0)  -->
<svg version="1.1" id="Layer_1" xmlns="http://www.w3.org/2000/svg" xmlns:xlink="http://www.w3.org/1999/xlink" x="0px" y="0px"
	 viewBox="0 0 518.4 130.8" style="enable-background:new 0 0 518.4 130.8;" xml:space="preserve">
<style type="text/css">
	.st0{fill:url(#SVGID_1_);}
	.st1{fill:url(#SVGID_00000033329417907915069400000009126892321699419296_);}
	.st2{fill:url(#SVGID_00000080924297849391294260000013406447738775031427_);}
	.st3{fill:url(#SVGID_00000134959415136282117980000007490182509515598729_);}
	.st4{fill:url(#SVGID_00000025420731065865061750000018416506881599640992_);}
</style>
<g>
	<g>
		<path d="M116.6,100V29.5h14.6v70.4L116.6,100L116.6,100z M161.6,100l-31.7-35.6l30.6-34.8h17.1l-33.7,38l0.7-7.1l35.3,39.5H161.6z
			"/>
		<path d="M201.2,101.2c-1.4,0-2.7-0.1-3.9-0.2s-2.3-0.4-3.4-0.8V88.1c2.1,0.7,4.2,1,6.3,1c1.7,0,3.2-0.2,4.5-0.8s2.6-1.3,3.7-2.4
			s2.1-2.5,3-4.3l2.9-5.9l-0.2,8.4l-31.2-54.6h15.8l20,36.7h0.5l17.1-36.7h15l-25,51.9c-2.4,4.8-4.7,8.7-7,11.5
			c-2.4,2.9-5,4.9-7.9,6.2C208.5,100.5,205.1,101.2,201.2,101.2L201.2,101.2z"/>
		<path d="M258.4,100V29.5h53.8v12.1H273v46.3h16.8c4.4,0,7.8-0.8,10-2.5s3.4-4.2,3.4-7.6s-1.1-5.9-3.3-7.6
			c-2.2-1.7-5.6-2.5-10.1-2.5H266V55.6h24.8c6.2,0,11.3,0.8,15.5,2.5s7.3,4.2,9.4,7.4c2.1,3.3,3.2,7.3,3.2,12.2
			c0,7.2-2.4,12.7-7.1,16.5s-11.7,5.6-20.9,5.6L258.4,100L258.4,100z"/>
		<path d="M331.4,100V29.5h53.3v12.6H346v57.8L331.4,100L331.4,100z"/>
		<path d="M378.6,100l28.6-70.4h18.3l28.6,70.4h-15.5l-22.1-56.4H416l-22.2,56.3L378.6,100L378.6,100z M391.9,86.9l4.6-12.1h39.2
			l4.6,12.1H391.9L391.9,86.9z"/>
		<path d="M468.3,101.2c-1.4,0-2.7-0.1-3.9-0.2s-2.3-0.4-3.4-0.8V88.1c2.1,0.7,4.2,1,6.3,1c1.7,0,3.2-0.2,4.5-0.8s2.6-1.3,3.7-2.4
			c1.1-1.1,2.1-2.5,3-4.3l2.9-5.9l-0.2,8.4L450,29.5h15.8l20,36.7h0.5l17.1-36.7h15l-25,51.9c-2.3,4.8-4.7,8.7-7,11.5
			c-2.3,2.9-5,4.9-7.8,6.2C475.6,100.5,472.2,101.2,468.3,101.2L468.3,101.2z"/>
	</g>
	<g>
		<g>
			<g>
				
					<radialGradient id="SVGID_1_" cx="44.5347" cy="50.5521" r="112.6704" gradientTransform="matrix(1 0 0 -1 0 133.2)" gradientUnits="userSpaceOnUse">
					<stop  offset="0" style="stop-color:#EBFF00"/>
					<stop  offset="1" style="stop-color:#008900"/>
				</radialGradient>
				<path class="st0" d="M0,97.3v20c9.7,0,25.9,2.4,33.4,13.5v-23.4C23.7,100.4,11.9,97.5,0,97.3z"/>
				
					<radialGradient id="SVGID_00000017474624657026408400000006565269414300734859_" cx="81.8017" cy="38.0303" r="97.6201" gradientTransform="matrix(1 0 0 -1 0 133.2)" gradientUnits="userSpaceOnUse">
					<stop  offset="0" style="stop-color:#EBFF00"/>
					<stop  offset="1" style="stop-color:#008900"/>
				</radialGradient>
				<path style="fill:url(#SVGID_00000017474624657026408400000006565269414300734859_);" d="M33.4,107.4v23.4
					c9.1-10.5,20.9-13.5,33.8-13.5v-20C55.2,97.5,43,100.4,33.4,107.4L33.4,107.4z"/>
			</g>
		</g>
		<g>
			
				<radialGradient id="SVGID_00000016764439674750468770000013511217191167883938_" cx="34.0696" cy="140.4646" r="91.5836" gradientTransform="matrix(1 0 0 -1 0 133.2)" gradientUnits="userSpaceOnUse">
				<stop  offset="0" style="stop-color:#EBFF00"/>
				<stop  offset="1" style="stop-color:#008900"/>
			</radialGradient>
			<path style="fill:url(#SVGID_00000016764439674750468770000013511217191167883938_);" d="M33.6,0L9.4,24.1
				c-11.4,11.4-12.5,29.4-3,42c-0.8-6.8,1.4-13.5,6.1-18.5l0.8-0.8l33.6-33.6L33.6,0z"/>
			
				<radialGradient id="SVGID_00000058583374481347451420000012285853524529580698_" cx="58.5034" cy="131.0443" r="100.5707" gradientTransform="matrix(1 0 0 -1 0 133.2)" gradientUnits="userSpaceOnUse">
				<stop  offset="0" style="stop-color:#EBFF00"/>
				<stop  offset="1" style="stop-color:#008900"/>
			</radialGradient>
			<path style="fill:url(#SVGID_00000058583374481347451420000012285853524529580698_);" d="M57.9,24.3l-7.6-7.6L16.8,50.3
				c-7.4,7.4-7.4,19.3,0,26.6l6.5,6.5c-1-7.1,1.3-14.4,6.5-19.5l0.3-0.3l32.8-32.8C61.5,28.5,59.9,26.3,57.9,24.3z"/>
			
				<radialGradient id="SVGID_00000085956249247484074680000000870017076375093404_" cx="97.9508" cy="67.4575" r="91.8647" gradientTransform="matrix(1 0 0 -1 0 133.2)" gradientUnits="userSpaceOnUse">
				<stop  offset="0" style="stop-color:#EBFF00"/>
				<stop  offset="1" style="stop-color:#008900"/>
			</radialGradient>
			<path style="fill:url(#SVGID_00000085956249247484074680000000870017076375093404_);" d="M33.6,67.1c-7.4,7.4-7.4,19.3,0,26.6
				l24.2-24.2c9.2-9.2,11.6-22.6,7.4-34L33.6,67.1z"/>
		</g>
	</g>
</g>
</svg>
