<svg width="54" height="54" viewBox="0 0 54 54" fill="none" xmlns="http://www.w3.org/2000/svg">
<path d="M0 10C0 4.47715 4.47715 0 10 0H33V23C33 28.5228 28.5228 33 23 33H0V10Z" fill="#9DD800"/>
<path d="M19 33L18.5 12.5L19 10L21.5 8.5L24.5 11L27 20L31 8.5H34.5L36.5 12.5L35.5 18L35 21.5L40 22L42.5 25V31L39.5 34L38.5 40L35.5 42.5L34 44.5L29 47L23.5 46L20.5 43V39.5L19 33Z" fill="white"/>
<path d="M27.2429 16.1675C27.7327 14.3084 28.233 12.4492 28.7124 10.5848C29.2547 8.47829 30.5068 7.24665 32.3798 7.02272C34.0301 6.82222 35.9476 7.97053 36.8854 9.60577C37.9725 11.4962 37.6948 13.4465 37.3202 15.4254C37.0314 16.7808 36.6426 18.1133 36.1572 19.412C35.9947 19.8807 35.945 20.2973 36.6811 20.1801C41.3412 19.4328 44.655 24.3255 43.89 29.5098C43.6098 31.4132 42.8422 33.0979 41.2312 34.2671C40.6759 34.6733 40.6261 35.1446 40.6706 35.7357C40.9326 39.1207 39.5992 41.6256 36.4794 43.1151C36.1598 43.2661 35.8323 43.3989 35.6778 43.7374C34.1925 47.0078 31.3293 47.9348 28.0811 47.9973C25.1001 48.0546 22.4098 47.1979 20.3351 44.9065C19.7908 44.3378 19.3964 43.6442 19.1871 42.8873C18.9778 42.1304 18.96 41.3338 19.1354 40.5685C19.2047 40.2782 19.2142 39.977 19.1634 39.683C19.1125 39.389 19.0023 39.1083 18.8394 38.8577C18.0797 37.5948 17.8911 36.2226 17.912 34.741C17.933 33.1084 17.5898 31.4731 17.5244 29.8327C17.3253 25.0259 17.6134 20.1983 17.231 15.402C17.176 14.712 17.1236 14.0193 17.0528 13.3319C16.7228 10.2229 17.9461 8.2153 20.5237 7.63463C22.9599 7.08782 25.5244 8.72305 26.4622 11.3894C26.9783 12.9361 26.9364 14.5479 27.2429 16.1675ZM33.0975 25.4738C32.5081 24.4322 32.8723 23.5053 33.0975 22.6251C33.7577 19.9796 34.5173 17.3575 35.1801 14.712C35.4761 13.5324 35.6359 12.3034 35.146 11.1264C34.6824 10.0094 33.9017 9.20216 32.5841 9.30372C31.3162 9.39225 31.0569 10.3973 30.8447 11.4129C30.1628 14.8574 29.0312 18.1987 27.4786 21.3519C27.1197 22.0627 26.4858 22.7111 27.3529 23.6459C25.9436 23.6459 25.5742 22.8204 25.4092 21.9846C25.1315 20.5863 24.9901 19.1594 24.8145 17.7429C24.5893 15.9384 24.5264 14.0975 24.0287 12.3503C23.5965 10.8348 22.2736 9.91563 21.0424 10.1656C19.937 10.3895 19.4969 11.1394 19.6593 12.9804C20.0758 17.7845 20.0784 22.5939 20.0653 27.4059C20.0653 28.1167 20.0653 28.825 20.0653 29.8952C21.954 27.4371 23.4864 25.1483 26.4282 24.6874C29.3699 24.2265 31.6908 25.8383 34.0903 27.1611C34.6142 26.1196 34.8631 25.0051 36.0891 24.3177C35.9843 24.8384 35.9214 25.1691 35.8481 25.4998C35.5468 26.8434 35.1303 28.161 36.3405 29.364C36.7885 29.8066 36.8854 30.5748 36.7544 31.2179C36.4925 32.486 37.3176 32.723 38.2344 32.8245C39.4447 32.9573 40.2463 32.2699 40.7021 31.2622C41.7787 28.8927 41.7106 26.5362 40.3013 24.3125C39.3006 22.7293 37.6267 22.284 35.8481 22.8907C34.5409 23.3022 33.9148 24.4114 33.0975 25.4738ZM32.6129 43.7426C32.1545 43.6072 31.7747 43.5082 31.4053 43.3806C31.1643 43.2973 30.8578 43.2062 30.8264 42.925C30.7819 42.5057 31.1905 42.4901 31.4551 42.4042C32.2409 42.1698 33.0661 42.0162 33.8493 41.7532C36.0524 41.0111 37.6555 39.6831 38.1009 37.2772C38.3183 36.108 38.5776 34.9337 36.7911 34.7644C36.592 34.7488 36.4113 34.5613 36.2174 34.4624C36.0236 34.3634 32.4767 35.9622 32.4269 36.1992C32.4218 36.2424 32.4218 36.2861 32.4269 36.3294C32.4557 36.8319 32.7177 37.5454 32.1414 37.7224C31.5651 37.8995 31.3031 37.1053 30.8945 36.7512C30.7681 36.6315 30.6507 36.5027 30.5435 36.3658C29.8965 35.5846 29.273 35.3581 28.3535 36.1054C27.5022 36.7928 26.4229 36.871 25.3777 36.4439C24.7622 36.1835 24.6417 35.8424 25.3096 35.4727C25.8728 35.1628 26.7871 35.0847 26.9207 34.4988C27.0542 33.913 26.1348 33.5979 25.844 33.0224C25.6607 32.6449 25.1603 32.2413 25.4485 31.8767C25.8204 31.4236 26.1977 32.0121 26.5513 32.1814C27.1774 32.4808 27.7589 32.8844 28.4033 33.1344C29.8179 33.6838 31.2848 33.9156 32.7151 33.2307C34.4021 32.4235 34.5488 30.5513 32.977 29.5723C31.8339 28.8589 30.6477 28.2162 29.4249 27.648C27.5572 26.7887 25.8676 27.1273 24.419 28.6115C23.138 29.9342 22.1557 31.4757 21.2284 33.0381C20.0129 35.0951 20.1963 36.9595 21.7785 38.7796C23.0594 40.2534 24.6862 41.2272 26.4937 41.9693C27.0019 42.1803 28.0209 42.1777 27.848 42.8364C27.696 43.4223 26.7111 43.2557 26.0719 43.2296C24.8509 43.1469 23.6587 42.8238 22.5644 42.2792C22.3024 42.1542 22.064 41.8496 21.6868 41.9433C22.25 45.3596 29.7812 46.8074 32.6155 43.7426H32.6129Z" fill="#0E5A67"/>
</svg>
