<svg width="54" height="55" viewBox="0 0 54 55" fill="none" xmlns="http://www.w3.org/2000/svg">
<path d="M0 11C0 5.47715 4.47715 1 10 1H33V24C33 29.5228 28.5228 34 23 34H0V11Z" fill="#9DD800"/>
<path d="M35.5 22L37.5 24V27L35 30L27.5 34.5L28 38.5L29.5 40L33.5 37H39L42.5 39.5H48L52 36L52.5 32L51.5 30L49 21L47.5 12.5L45.5 10L41.5 12L40 9.5L37 7L34 8.5L34.5 14.5L26.5 18.5L20.5 15L19.5 8L16 7.5L13 12.5L10 10L6.5 11.5L5 22L1 33L5 38.5L10 40L13 37H17.5L19.5 37.5L24 40L27 39L26.5 36L25 33L17.5 29L16.5 26.5L17.5 22.5L20.5 22L27.5 22.5L32.5 22H35.5Z" fill="white"/>
<path d="M12.5257 10.5928C12.9064 9.72548 13.172 8.98455 13.5475 8.29565C14.37 6.7766 15.7035 5.95389 17.4762 6.01336C19.1417 6.06788 20.1916 7.07644 20.8609 8.46911C21.5736 9.95594 21.548 11.5295 21.2645 13.0857C21.1138 13.9109 21.3309 14.243 22.1457 14.5056C23.5634 14.9592 24.8768 15.6754 26.0132 16.6145C26.6799 17.1646 27.178 17.2637 27.8626 16.6764C29.0907 15.6505 30.5225 14.8797 32.0697 14.4115C32.7415 14.1984 32.7901 13.8539 32.6777 13.3038C32.3994 12.0063 32.4195 10.6652 32.7364 9.37608C33.1962 7.53984 34.5424 6.25621 36.2283 6.03566C37.996 5.80273 39.5874 6.7196 40.5147 8.53106C40.8314 9.15305 41.0869 9.80478 41.4062 10.5135C42.0014 10.0947 42.4918 9.6338 43.0742 9.36369C45.5904 8.19652 48.0809 9.44794 48.8728 12.2184C49.1643 13.3424 49.2568 14.5063 49.1461 15.6604C48.9852 17.8634 49.5242 19.9053 50.3825 21.9101C51.2408 23.9148 51.9662 25.9196 51.9483 28.1052C51.9478 28.2692 51.9818 28.4315 52.0481 28.5824C52.1144 28.7332 52.2117 28.8693 52.3341 28.9824C54.4159 31.121 54.4312 33.4975 53.0186 35.921C51.1258 39.1747 48.224 40.8523 44.3336 40.7383C43.5221 40.7383 42.7235 40.5421 42.0099 40.1674C41.2963 39.7927 40.6902 39.2514 40.2465 38.5923C40.1136 38.385 39.9317 38.2113 39.7158 38.0859C39.4998 37.9605 39.2562 37.8869 39.005 37.8712C36.9104 37.6234 35.0226 37.7176 33.3853 39.3803C31.7479 41.0431 29.689 41.5263 27.4615 40.3319C27.2961 40.2391 27.1071 40.1931 26.9161 40.1993C26.7251 40.2054 26.5397 40.2634 26.381 40.3666C24.3042 41.4693 22.3705 41.0927 20.7893 39.5439C19.0753 37.8638 17.0956 37.5069 14.8324 37.8712C14.5003 37.9233 14.2015 37.9356 13.9409 38.238C11.7134 40.8325 9.26885 41.4396 6.02216 40.2402C2.24415 38.8426 -0.305178 35.351 0.0294524 32.0478C0.100977 31.3366 0.190388 30.561 0.698721 30.0827C1.83034 29.0246 2.04746 27.7508 2.17773 26.3185C2.34888 24.4625 3.18418 22.7501 3.88409 21.0254C4.50025 19.6168 4.78977 18.0941 4.73217 16.5649C4.65851 15.1633 4.75799 13.7582 5.02848 12.3795C5.67475 9.0465 9.57538 7.748 12.0455 10.1889C12.1983 10.3315 12.3586 10.4663 12.5257 10.5928ZM42.7166 20.8891C42.1444 20.8396 42.0295 20.3737 41.7766 20.0788C40.7697 18.8472 39.5191 17.8235 38.0982 17.068C35.0482 15.5192 30.5881 16.6244 28.6468 19.4072C28.2994 19.9028 28.1129 20.4282 28.3556 21.0353C28.5088 21.4244 28.7745 21.7118 29.1909 21.6846C30.6622 21.5854 31.7734 20.5397 33.163 20.1977C33.2499 18.3987 34.1031 19.7814 34.5475 19.9301C35.1404 20.159 35.7016 20.4587 36.2181 20.8222C39.991 23.2457 40.1239 28.0234 36.4531 30.5684C35.4927 31.2325 34.3917 31.7083 33.3393 32.2386C32.1336 32.8457 30.8717 33.3463 29.7861 34.164C29.3541 34.4672 28.9939 34.8564 28.7296 35.3056C28.4652 35.7547 28.3029 36.2535 28.2534 36.7685C28.1308 38.0769 29.0197 38.7881 30.3404 38.4486C30.954 38.2688 31.5075 37.9345 31.9446 37.4797C33.8246 35.6534 36.07 35.4006 38.5529 35.8491C40.1801 36.144 41.8277 36.4414 43.4931 36.1564C44.3438 36.0127 45.1765 35.7698 46.2647 35.5121C45.3221 37.0584 43.8687 37.388 42.4484 37.8563C44.5941 39.3184 47.5726 38.7633 49.8869 36.5752C51.6597 34.8976 52.2395 32.7739 51.2995 31.3713C50.9751 31.852 50.6711 32.3402 50.3237 32.7986C50.1551 33.0142 49.9533 33.3389 49.6161 33.2174C49.2381 33.0787 49.4092 32.7218 49.4756 32.474C50.2701 29.4508 49.7311 26.5911 48.4283 23.8008C47.1256 21.0105 46.3081 18.0765 46.5942 14.9368C46.6878 14.0693 46.5669 13.1927 46.2417 12.3795C46.1488 12.1023 45.9672 11.861 45.7233 11.6908C45.4793 11.5205 45.1858 11.4302 44.8853 11.4329C44.5839 11.4148 44.285 11.4949 44.036 11.6606C43.787 11.8263 43.6022 12.068 43.511 12.3473C43.0895 13.4079 42.875 14.4511 43.5494 15.5415C43.9854 16.2965 44.3512 17.0876 44.6426 17.9055C44.8777 18.5102 45.2813 19.1446 44.7729 20.0218C42.9848 17.0159 40.6679 14.5106 39.4086 11.366C39.1319 10.585 38.7651 9.83684 38.3153 9.13571C37.4494 7.89668 35.8963 8.06519 35.3368 9.43555C34.826 10.6746 34.9664 11.9384 35.2372 13.2096C35.3649 13.8068 35.6536 14.0596 36.2922 14.2207C38.9871 14.9021 40.9566 16.5129 42.2517 18.8943C42.5838 19.5138 42.9082 20.1432 42.7166 20.8891ZM11.366 21.0006L11.1234 20.847C11.12 20.6874 11.1337 20.528 11.1642 20.3712C12.1145 17.2191 14.3113 15.2838 17.4737 14.2901C17.9284 14.1488 18.4648 14.1959 18.6385 13.5268C18.9757 12.2184 19.1238 10.9249 18.6819 9.62884C18.4776 9.03163 18.171 8.48398 17.4047 8.38981C17.0469 8.32004 16.6754 8.36409 16.3455 8.51543C16.0155 8.66677 15.7447 8.91732 15.5732 9.22987C15.208 9.833 14.8953 10.4646 14.6383 11.1181C13.3764 14.4115 11.0033 17.0655 9.14368 19.997C9.09004 20.0813 8.93932 20.1036 8.67621 20.2448C8.93166 18.4755 9.60092 16.9763 10.3979 15.5539C10.9726 14.528 10.8603 13.5714 10.5077 12.5802C10.2753 11.9285 9.83848 11.4428 9.01084 11.4725C8.18321 11.5022 7.76173 12.0177 7.61102 12.6917C7.42455 13.5318 7.23296 14.4264 7.30448 15.259C7.55993 18.2326 6.84213 20.9907 5.58024 23.6472C4.24427 26.4647 3.72317 29.3665 4.42308 32.4319C4.48183 32.6797 4.62233 32.9894 4.29025 33.3042C3.37066 32.9746 3.12288 32.028 2.57878 31.3068C1.65152 33.3636 2.61454 35.7327 4.96973 37.3682C7.32492 39.0037 9.89979 39.1994 11.3788 37.8638C10.0096 37.4177 8.56893 37.0881 7.85624 35.6087C10.3621 36.6 12.8783 36.3819 15.3944 35.8912C17.9105 35.4006 20.1303 35.7178 22.0002 37.5317C22.1877 37.6993 22.3884 37.8526 22.6004 37.9902C23.4076 38.5601 24.3042 38.9095 25.1702 38.238C26.0361 37.5664 25.6964 36.6644 25.4256 35.8343C25.1995 35.2056 24.7806 34.6591 24.2251 34.2681C23.4436 33.697 22.5998 33.2109 21.7089 32.8185C20.2606 32.1296 18.7611 31.5348 17.4456 30.6105C15.6268 29.3318 14.6357 27.6542 14.8503 25.4264C15.0904 22.8517 16.6639 21.2137 18.9731 20.2225C19.4355 20.0268 20.4445 18.1856 20.8583 20.3613C20.8583 20.3786 20.935 20.3836 20.9784 20.3885C22.133 20.5769 23.0398 21.3575 24.1433 21.6598C25.1063 21.9249 25.699 21.412 25.6555 20.4406C25.6265 19.9393 25.3953 19.4693 25.0118 19.1322C23.589 17.7816 21.9465 16.7235 19.9745 16.389C17.0164 15.8934 14.8656 17.4174 12.9064 19.3155C12.3699 19.8161 11.882 20.4183 11.366 21.0006ZM36.5374 25.9567C36.6932 24.061 34.5143 21.7812 32.1029 23.33C30.6827 24.2221 29.1091 24.4699 27.4845 23.7265C27.3392 23.6386 27.1735 23.5875 27.0025 23.578C26.8316 23.5685 26.6609 23.6008 26.5062 23.672C24.8075 24.5814 23.2442 24.1007 21.6757 23.2953C20.1073 22.4899 18.9016 22.708 17.9871 23.9743C17.5629 24.5735 17.36 25.2943 17.4114 26.0195C17.4629 26.7448 17.7657 27.4318 18.2707 27.9689C18.8515 28.5142 19.5191 28.9652 20.2478 29.3046C22.3756 30.4073 24.7155 31.1656 26.4806 32.8631C26.9915 33.3587 27.3364 32.9597 27.6633 32.6673C28.9686 31.5026 30.5319 30.7666 32.1234 30.0678C33.3 29.5891 34.4076 28.9644 35.4186 28.2093C35.7705 27.942 36.0544 27.5999 36.2484 27.2094C36.4424 26.8188 36.5413 26.3903 36.5374 25.9567Z" fill="#0E5A67"/>
</svg>
