<svg width="54" height="55" viewBox="0 0 54 55" fill="none" xmlns="http://www.w3.org/2000/svg">
<path d="M0 11C0 5.47715 4.47715 1 10 1H33V24C33 29.5228 28.5228 34 23 34H0V11Z" fill="#9DD800"/>
<path d="M10 24L9.5 17L7.5 14L8.5 12L12.5 10.5L15.5 11.5L16.5 15.5L17.5 18.5L32 16L40.5 16.5L42 19.5L45.5 23L44.5 29L37 33L23 41L21 45L17 44.5L11.5 41.5L10 37.5L11 33L10 24Z" fill="white"/>
<path d="M17.8716 14.4873C17.8768 16.9848 18.0149 17.1525 20.5846 16.7227C23.8737 16.1619 27.1366 15.4438 30.4257 14.8883C33.6894 14.3066 37.0419 14.4778 40.2302 15.3888C41.6115 15.7845 42.5159 16.7882 43.0137 18.109C43.255 18.8485 43.7766 19.4625 44.4653 19.8177C47.0533 21.2276 47.6866 23.6647 46.2402 26.2356C45.9795 26.6863 45.6798 27.0899 45.672 27.6665C45.6459 29.7315 44.2568 30.8505 42.6983 31.807C40.1625 33.3794 37.3113 34.2075 34.5748 35.2951C32.1927 36.2438 30.2328 37.8214 28.1922 39.2994C27.0663 40.1145 25.9404 40.9347 24.6034 41.3959C24.1968 41.5348 23.8033 41.7078 23.6287 42.1821C22.2057 46.0738 18.6326 46.4747 15.5859 45.6361C11.614 44.5433 8.58823 40.6202 8.67423 36.8229C8.69886 35.7696 9.03353 34.7473 9.63593 33.8852C9.89655 33.5 10.1024 33.2117 9.82097 32.7217C7.87152 29.3594 8.0305 25.7508 8.89316 22.171C9.43525 19.8963 9.10947 18.1745 7.31379 16.5524C5.51811 14.9302 5.60151 12.6922 7.32943 10.9128C9.88091 8.27116 14.4704 8.38384 16.8812 11.1381C17.2716 11.5947 17.5616 12.1291 17.7323 12.7063C17.9029 13.2835 17.9504 13.8904 17.8716 14.4873ZM18.0488 26.5684C16.5189 28.0884 15.1637 29.7132 14.447 31.773C13.1699 35.4812 15.1924 38.7674 19.0574 39.3728C21.9581 39.8288 24.4809 39.0348 26.6884 37.1924C29.6715 34.7157 33.1114 32.8554 36.8109 31.7179C38.35 31.2646 39.8276 30.6221 41.2102 29.8049C42.125 29.2388 43.5558 28.7828 43.1883 27.4096C42.7948 25.9788 41.2779 26.0679 40.0895 26.0993C37.9342 26.1517 35.9482 26.9196 33.9858 27.7765C32.5028 28.4238 31.1893 29.0868 31.3639 31.068C31.3952 31.4323 31.2935 32.0298 30.9156 32.0586C30.3345 32.1006 30.4126 31.448 30.3449 31.0654C29.7518 27.6257 28.7626 24.267 27.3973 21.0572C27.2279 20.6563 27.0376 20.2553 27.2565 19.781C27.9055 19.9172 28.299 20.4047 28.63 20.8947C29.0261 21.5001 29.3597 21.5316 29.9644 21.1568C31.3457 20.3208 32.8703 19.8229 34.4236 19.3905C36.3235 18.8664 38.2808 18.7668 40.4179 18.6043C39.0965 17.3359 37.6318 17.1656 36.1672 17.0974C32.5185 16.9219 29.0053 17.6897 25.4817 18.4759C23.1361 19 20.814 19.4979 18.4058 19.4298C16.4512 19.3853 15.3592 18.3318 15.2601 16.3715C15.2335 15.6723 15.25 14.9722 15.3096 14.275C15.3852 13.2713 14.9265 12.59 14.0769 12.1785C13.5614 11.8945 12.9939 11.7188 12.4088 11.6621C11.8237 11.6053 11.2332 11.6687 10.6732 11.8483C8.51265 12.5716 8.15039 13.8295 9.74539 15.3809C11.515 17.1053 12.2265 19.0682 11.6427 21.5342C11.2833 23.0155 11.0523 24.5254 10.9521 26.0469C10.8374 28.07 11.0146 30.0801 12.5002 31.8437C13.7173 29.2624 15.2497 27.2393 18.0488 26.5684ZM31.4473 26.8724C32.7322 26.2461 33.9779 25.5333 35.3019 25.017C38.041 23.9452 40.8375 23.2035 43.72 24.5531C44.3715 24.8571 44.3559 24.3435 44.4158 23.9976C44.6009 22.9336 43.7773 21.9718 42.151 21.5892C38.2026 20.6536 34.434 21.3638 30.7567 22.9441C30.4309 23.0856 30.1546 23.2297 30.3397 23.7119C30.741 24.7602 31.085 25.8294 31.4473 26.8724ZM20.6863 42.0721C16.1984 41.81 12.9641 39.9598 12.0232 35.2034C10.5429 37.1164 11.3769 39.9205 13.9596 41.9148C16.4512 43.8226 19.318 43.9275 20.6863 42.0721Z" fill="#0E5A67"/>
</svg>
