<svg xmlns="http://www.w3.org/2000/svg" width="54" height="55" fill="none" viewBox="0 0 54 55">
  <path fill="#FF7F00" d="m4.57 32.014 9.96 9.979 10.14-10.17.612-.62a14.519 14.519 0 0 0 .096-19.298L14.51 1 4.236 11.236a14.509 14.509 0 0 0 0 20.492l.268.267"/>
  <path fill="#2F3933" d="M12.526 10.593c.38-.868.646-1.608 1.021-2.297.823-1.52 2.156-2.342 3.93-2.283 1.665.055 2.715 1.063 3.384 2.456.713 1.487.687 3.06.404 4.617-.151.825.066 1.157.88 1.42a11.637 11.637 0 0 1 3.868 2.108c.667.55 1.165.65 1.85.062a11.968 11.968 0 0 1 4.207-2.264c.672-.214.72-.558.608-1.108a8.752 8.752 0 0 1 .058-3.928c.46-1.836 1.806-3.12 3.492-3.34 1.768-.233 3.36.684 4.287 2.495.316.622.572 1.274.891 1.982.595-.418 1.086-.88 1.668-1.15 2.516-1.166 5.007.085 5.799 2.855a9.929 9.929 0 0 1 .273 3.442c-.16 2.203.378 4.245 1.236 6.25.859 2.005 1.584 4.01 1.566 6.195a1.177 1.177 0 0 0 .386.877c2.082 2.139 2.097 4.516.685 6.939-1.893 3.254-4.795 4.931-8.685 4.817a5.01 5.01 0 0 1-2.324-.57 4.828 4.828 0 0 1-1.764-1.576 1.56 1.56 0 0 0-.53-.506 1.617 1.617 0 0 0-.711-.215c-2.095-.248-3.982-.153-5.62 1.51-1.637 1.662-3.696 2.145-5.923.95a1.046 1.046 0 0 0-1.081.036c-2.077 1.102-4.01.726-5.592-.823-1.714-1.68-3.693-2.037-5.957-1.673-.332.052-.63.065-.891.367-2.228 2.595-4.672 3.202-7.919 2.002C2.244 38.843-.305 35.351.03 32.048c.072-.711.161-1.487.67-1.965 1.131-1.058 1.348-2.332 1.479-3.764.17-1.857 1.006-3.569 1.706-5.294.616-1.408.906-2.93.848-4.46a17.08 17.08 0 0 1 .296-4.186c.647-3.332 4.547-4.631 7.018-2.19.152.143.313.277.48.404Zm30.19 10.296c-.572-.05-.687-.515-.94-.81a12.061 12.061 0 0 0-3.678-3.011c-3.05-1.549-7.51-.444-9.451 2.34-.348.495-.534 1.02-.291 1.627.153.39.418.677.835.65 1.471-.1 2.582-1.145 3.972-1.487.087-1.8.94-.417 1.385-.268a7.756 7.756 0 0 1 1.67.892c3.773 2.424 3.906 7.201.235 9.746-.96.665-2.061 1.14-3.114 1.67-1.205.608-2.467 1.108-3.553 1.926a3.67 3.67 0 0 0-1.056 1.142 3.552 3.552 0 0 0-.477 1.463c-.122 1.308.767 2.02 2.087 1.68a3.645 3.645 0 0 0 1.605-.97c1.88-1.826 4.125-2.078 6.608-1.63 1.627.295 3.275.592 4.94.307.85-.143 1.683-.386 2.772-.644-.943 1.546-2.396 1.876-3.817 2.344 2.146 1.462 5.125.907 7.439-1.28 1.773-1.678 2.352-3.802 1.413-5.205-.325.481-.629.97-.976 1.428-.169.215-.37.54-.708.418-.378-.138-.207-.495-.14-.743.794-3.023.255-5.883-1.048-8.673-1.302-2.79-2.12-5.724-1.834-8.864a5.34 5.34 0 0 0-.352-2.557 1.374 1.374 0 0 0-.519-.69 1.442 1.442 0 0 0-.838-.257c-.301-.018-.6.062-.849.228a1.318 1.318 0 0 0-.525.686c-.422 1.06-.636 2.104.038 3.194a14.5 14.5 0 0 1 1.094 2.364c.235.605.638 1.24.13 2.117-1.788-3.006-4.105-5.511-5.364-8.656a10.826 10.826 0 0 0-1.094-2.23c-.866-1.24-2.419-1.07-2.978.3-.511 1.239-.37 2.502-.1 3.774.128.597.417.85 1.055 1.01 2.695.682 4.665 2.293 5.96 4.674.332.62.656 1.25.465 1.995Zm-31.35.112-.243-.154c-.003-.16.01-.319.041-.476.95-3.152 3.147-5.087 6.31-6.08.454-.142.99-.095 1.165-.764.337-1.309.485-2.602.043-3.898-.204-.597-.511-1.145-1.277-1.24a1.743 1.743 0 0 0-1.06.126c-.33.152-.6.402-.772.715a12.425 12.425 0 0 0-.935 1.888c-1.262 3.293-3.635 5.947-5.494 8.879-.054.084-.205.107-.468.248.256-1.77.925-3.269 1.722-4.691.575-1.026.462-1.983.11-2.974-.233-.652-.67-1.137-1.497-1.107-.828.03-1.25.545-1.4 1.219-.186.84-.378 1.734-.307 2.567.256 2.974-.462 5.732-1.724 8.388-1.336 2.818-1.857 5.72-1.157 8.785.059.248.2.557-.133.872-.92-.33-1.167-1.276-1.711-1.997-.927 2.057.036 4.426 2.39 6.061 2.356 1.636 4.93 1.831 6.41.496-1.37-.446-2.81-.776-3.523-2.255 2.506.991 5.022.773 7.538.282 2.516-.49 4.736-.173 6.606 1.64.188.168.388.322.6.46.808.57 1.704.919 2.57.247.866-.672.526-1.574.256-2.404a3.273 3.273 0 0 0-1.2-1.566 13.46 13.46 0 0 0-2.517-1.45c-1.448-.688-2.948-1.283-4.263-2.207-1.82-1.28-2.81-2.957-2.596-5.185.24-2.574 1.814-4.212 4.123-5.203.463-.196 1.472-2.037 1.885.138 0 .018.077.023.12.027 1.155.189 2.062.97 3.165 1.272.963.265 1.556-.248 1.512-1.22a1.888 1.888 0 0 0-.643-1.308c-1.423-1.35-3.066-2.409-5.038-2.743-2.958-.496-5.108 1.028-7.068 2.927-.536.5-1.024 1.102-1.54 1.685Zm25.171 4.956c.156-1.896-2.023-4.176-4.434-2.627-1.42.892-2.994 1.14-4.619.397a1.043 1.043 0 0 0-.978-.055c-1.698.91-3.262.429-4.83-.377-1.569-.805-2.774-.587-3.689.68a3.151 3.151 0 0 0-.576 2.044c.052.726.355 1.413.86 1.95a7.54 7.54 0 0 0 1.977 1.336c2.128 1.102 4.467 1.86 6.233 3.558.51.496.855.097 1.182-.196 1.306-1.164 2.869-1.9 4.46-2.6a14.872 14.872 0 0 0 3.296-1.858c.352-.267.635-.61.83-1 .193-.39.292-.819.288-1.252Z"/>
</svg>
