<svg xmlns="http://www.w3.org/2000/svg" width="54" height="55" fill="none" viewBox="0 0 54 55">
  <path fill="#FF7F00" d="m4.57 32.014 9.96 9.979 10.14-10.17.612-.62a14.519 14.519 0 0 0 .096-19.298L14.51 1 4.236 11.236a14.509 14.509 0 0 0 0 20.492l.268.267"/>
  <path fill="#2F3933" d="M23.956 49c-3.254-.19-6.577-1.002-9.287-3.382-1.774-1.56-2.802-3.395-2.096-5.783.173-.582-.193-.99-.388-1.464-3.418-8.275-2.778-16.337 1.581-24.138a9.843 9.843 0 0 1 3.578-3.67c.38-.225.813-.565 1.207-.542 2.075.122 3.314-1.288 4.8-2.26a14.82 14.82 0 0 1 2.092-1.187c1.787-.78 3.526-.858 5.099.351 1.65 1.26 2.406 3.015 1.972 4.943-.331 1.485.103 2.183 1.519 2.552 4.201 1.098 5.424 4.344 6.135 7.921.144.72.22 1.522-.144 2.177-.656 1.181-.27 2.108.448 3.09.543.798 1.043 1.62 1.497 2.467 1.587 2.692 1.343 5.34-.738 7.698a16.749 16.749 0 0 1-7.087 4.846c-1.044.367-1.657.858-1.899 2.037-.428 2.08-2.197 3.077-4.128 3.74-1.237.448-2.55.583-4.16.604Zm-8.03-6.441c-.101-.24-.272-.26-.49-.15l.253.343c2.422 3.121 8.696 4.614 12.317 2.903a3.277 3.277 0 0 0 1.356-1.04c.488-.703.654-1.216-.607-1.268a7.661 7.661 0 0 1-4.069-1.246c-.214-.143-.49-.312-.415-.609.092-.345.434-.223.68-.223 1.175 0 2.352.073 3.527 0 4.34-.26 7.866-2.081 10.678-5.203 1.457-1.623 1.498-2.93.394-4.76-.543-.9-1.129-1.777-1.628-2.7-.415-.781-.914-1.301-1.898-1.067-.985.234-1.357.931-1.46 1.82a5.77 5.77 0 0 0 .316 2.753 5.982 5.982 0 0 0 1.57 2.323c.436.424.908.817 1.39 1.251-1.458.52-2.896-.044-4.25-1.545-.292-.323-.374-1.01-1.011-.88-.543.115-.415.703-.567 1.09-.125.323-.209.724-.63.781-.463.05-.52-.385-.685-.679a12.219 12.219 0 0 0-.925-1.582c-1.527-1.95-2.62-4.04-2.512-6.565.016-.367 0-.757-.564-.89-1.337-.32-.85-.806-.07-1.26 1.12-.652 2.01-1.367 1.044-2.749a1.098 1.098 0 0 1-.13-.5c-.028-.293-.152-.652.149-.842.3-.19.583.104.813.284.583.447 1.015 1.082 1.785 1.365.353-.6.157-1.685 1-1.646.557.023.405 1.024.579 1.584.57 1.844 1.858 3.09 3.452 3.257 1.595.166 2.477-.682 2.132-2.172a30.614 30.614 0 0 0-1.163-3.59c-.1-.29-.258-.558-.465-.788a2.41 2.41 0 0 0-.745-.557 96.595 96.595 0 0 0-3.835-1.62 1.206 1.206 0 0 0-1.24.168c-2.66 1.826-3.876 4.618-5.367 7.219a.566.566 0 0 0-.025.476c.307.57 0 .66-.504.687-1.812.086-1.81.093-1.12-1.561a4.15 4.15 0 0 0 .303-.856c.578-3.32 2.333-5.939 5.048-8.033a4.06 4.06 0 0 0 1.082-1.243 3.91 3.91 0 0 0 .486-1.55 2.544 2.544 0 0 0-.188-1.406 2.664 2.664 0 0 0-.916-1.11c-.814-.578-1.66-.3-2.417.125-.89.502-1.725 1.1-2.582 1.657-.442.286-.518.582-.22 1.074 1.356 2.242.887 4.365-.73 6.259a12.123 12.123 0 0 0-2.557 5.22c-.057.243-.177.62-.06.73 1.117 1.04.34 1.133-.6 1.167-.466.016-.656.424-.99.63-.862.52-1.733.928-3.064.333 1.709-.752 2.652-1.751 2.755-3.353.11-2.273.958-4.456 2.425-6.244a3.255 3.255 0 0 0 .857-2.367c-.14-1.631-1.443-2.266-2.858-1.358a8.235 8.235 0 0 0-2.851 3.083c-3.667 6.925-4.155 14.078-1.356 21.365 1.085 2.825 3.227 4.646 6.436 5.143.366.057.814.018 1.131.554-2.186.962-4.201.47-6.195-.432Zm13.612-16.722c.114 1.66.217 3.174 1.253 4.446.299.367.841.793.96.148.234-1.272.272-2.567.866-3.766.046-.094-.098-.341-.222-.437a6.07 6.07 0 0 1-1.435-1.704.739.739 0 0 0-.396-.345.779.779 0 0 0-.535-.004.812.812 0 0 0-.478.34.754.754 0 0 0-.107.563c.043.312.075.611.094.77v-.01Z"/>
</svg>
