<svg width="833" height="627" viewBox="0 0 833 627" fill="none" xmlns="http://www.w3.org/2000/svg">
<path d="M497 496.582C497 482.453 508.453 471 522.582 471H832.519V600.977C832.519 615.105 821.065 626.559 806.936 626.559H497V496.582Z" fill="#0E5A67"/>
<path d="M689.579 581.836C691.659 581.836 693.239 582.266 694.319 583.126C695.419 583.966 695.969 585.206 695.969 586.846C695.969 588.466 695.419 589.706 694.319 590.566C693.239 591.406 691.659 591.826 689.579 591.826H684.299V576.946H686.339V581.836H689.579ZM698.579 591.826V576.946H700.619V591.826H698.579ZM689.459 589.966C690.959 589.966 692.059 589.716 692.759 589.216C693.459 588.716 693.809 587.926 693.809 586.846C693.809 585.746 693.459 584.946 692.759 584.446C692.059 583.946 690.959 583.696 689.459 583.696H686.339V589.966H689.459Z" fill="white"/>
<path d="M663.897 591.826H661.857V576.946H664.287L670.677 586.306H670.767L677.157 576.946H679.557V591.826H677.487V579.826H677.397L671.457 588.496H669.927L663.987 579.826H663.897V591.826Z" fill="white"/>
<path d="M641.456 591.826H639.416V576.946H641.846L648.236 586.306H648.326L654.716 576.946H657.116V591.826H655.046V579.826H654.956L649.016 588.496H647.486L641.546 579.826H641.456V591.826Z" fill="white"/>
<path d="M626.175 592.126C624.335 592.126 622.845 591.726 621.705 590.926C620.585 590.106 620.025 588.966 620.025 587.506C620.025 586.566 620.305 585.746 620.865 585.046C621.445 584.346 622.225 583.806 623.205 583.426C624.205 583.046 625.325 582.856 626.565 582.856C627.625 582.856 628.675 582.996 629.715 583.276C630.755 583.536 631.605 583.876 632.265 584.296V582.106C632.265 580.866 631.835 579.936 630.975 579.316C630.115 578.696 628.945 578.386 627.465 578.386C626.025 578.386 624.865 578.656 623.985 579.196C623.125 579.716 622.695 580.376 622.695 581.176H620.565C620.565 580.296 620.845 579.506 621.405 578.806C621.965 578.106 622.765 577.556 623.805 577.156C624.845 576.736 626.075 576.526 627.495 576.526C629.575 576.526 631.225 577.006 632.445 577.966C633.685 578.926 634.305 580.316 634.305 582.136V588.526C634.305 589.486 634.725 589.966 635.565 589.966C635.985 589.966 636.295 589.896 636.495 589.756V591.526C636.055 591.726 635.565 591.826 635.025 591.826C633.665 591.826 632.815 591.256 632.475 590.116H632.355C631.695 590.716 630.805 591.206 629.685 591.586C628.585 591.946 627.415 592.126 626.175 592.126ZM626.595 590.266C627.715 590.266 628.785 590.096 629.805 589.756C630.825 589.416 631.645 588.946 632.265 588.346V586.006C631.665 585.626 630.885 585.326 629.925 585.106C628.965 584.866 627.985 584.746 626.985 584.746C625.565 584.746 624.405 584.986 623.505 585.466C622.605 585.946 622.155 586.626 622.155 587.506C622.155 588.446 622.565 589.146 623.385 589.606C624.205 590.046 625.275 590.266 626.595 590.266Z" fill="white"/>
<path d="M601.74 597.826V576.946H603.69V579.676H603.78C604.28 578.756 605.08 578.006 606.18 577.426C607.3 576.826 608.46 576.526 609.66 576.526C611.16 576.526 612.49 576.856 613.65 577.516C614.81 578.176 615.71 579.106 616.35 580.306C616.99 581.486 617.31 582.846 617.31 584.386C617.31 585.906 616.99 587.266 616.35 588.466C615.71 589.646 614.81 590.566 613.65 591.226C612.49 591.886 611.16 592.216 609.66 592.216C608.5 592.216 607.38 591.946 606.3 591.406C605.24 590.846 604.43 590.106 603.87 589.186H603.78V597.826H601.74ZM609.48 590.356C610.6 590.356 611.59 590.106 612.45 589.606C613.31 589.106 613.97 588.406 614.43 587.506C614.91 586.606 615.15 585.566 615.15 584.386C615.15 583.206 614.91 582.166 614.43 581.266C613.97 580.346 613.31 579.636 612.45 579.136C611.59 578.636 610.6 578.386 609.48 578.386C608.38 578.386 607.4 578.636 606.54 579.136C605.68 579.636 605 580.346 604.5 581.266C604.02 582.166 603.78 583.206 603.78 584.386C603.78 585.566 604.02 586.606 604.5 587.506C605 588.406 605.68 589.106 606.54 589.606C607.4 590.106 608.38 590.356 609.48 590.356Z" fill="white"/>
<path d="M589.659 591.826H587.619V576.946H599.049V578.806H589.659V591.826Z" fill="white"/>
<path d="M576.002 592.216C574.462 592.216 573.092 591.886 571.892 591.226C570.712 590.566 569.792 589.646 569.132 588.466C568.492 587.266 568.172 585.906 568.172 584.386C568.172 582.866 568.502 581.516 569.162 580.336C569.822 579.136 570.742 578.206 571.922 577.546C573.102 576.866 574.462 576.526 576.002 576.526C577.542 576.526 578.902 576.866 580.082 577.546C581.262 578.206 582.182 579.136 582.842 580.336C583.502 581.516 583.832 582.866 583.832 584.386C583.832 585.906 583.502 587.266 582.842 588.466C582.202 589.646 581.282 590.566 580.082 591.226C578.902 591.886 577.542 592.216 576.002 592.216ZM576.002 590.356C577.742 590.356 579.122 589.806 580.142 588.706C581.182 587.586 581.702 586.146 581.702 584.386C581.702 582.626 581.182 581.186 580.142 580.066C579.122 578.946 577.742 578.386 576.002 578.386C574.262 578.386 572.882 578.946 571.862 580.066C570.842 581.166 570.332 582.606 570.332 584.386C570.332 586.146 570.842 587.586 571.862 588.706C572.882 589.806 574.262 590.356 576.002 590.356Z" fill="white"/>
<path d="M549.797 597.826V576.946H551.747V579.676H551.837C552.337 578.756 553.137 578.006 554.237 577.426C555.357 576.826 556.517 576.526 557.717 576.526C559.217 576.526 560.547 576.856 561.707 577.516C562.867 578.176 563.767 579.106 564.407 580.306C565.047 581.486 565.367 582.846 565.367 584.386C565.367 585.906 565.047 587.266 564.407 588.466C563.767 589.646 562.867 590.566 561.707 591.226C560.547 591.886 559.217 592.216 557.717 592.216C556.557 592.216 555.437 591.946 554.357 591.406C553.297 590.846 552.487 590.106 551.927 589.186H551.837V597.826H549.797ZM557.537 590.356C558.657 590.356 559.647 590.106 560.507 589.606C561.367 589.106 562.027 588.406 562.487 587.506C562.967 586.606 563.207 585.566 563.207 584.386C563.207 583.206 562.967 582.166 562.487 581.266C562.027 580.346 561.367 579.636 560.507 579.136C559.647 578.636 558.657 578.386 557.537 578.386C556.437 578.386 555.457 578.636 554.597 579.136C553.737 579.636 553.057 580.346 552.557 581.266C552.077 582.166 551.837 583.206 551.837 584.386C551.837 585.566 552.077 586.606 552.557 587.506C553.057 588.406 553.737 589.106 554.597 589.606C555.457 590.106 556.437 590.356 557.537 590.356Z" fill="white"/>
<path d="M533.438 591.826H531.398V576.946H545.048V591.826H542.978V578.806H533.438V591.826Z" fill="white"/>
<path d="M798.519 548.176C798.519 548.556 798.499 548.876 798.459 549.136H785.049C785.209 550.716 785.799 551.986 786.819 552.946C787.839 553.886 789.149 554.356 790.749 554.356C793.369 554.356 795.059 553.416 795.819 551.536H798.099C797.659 553.056 796.809 554.216 795.549 555.016C794.309 555.816 792.709 556.216 790.749 556.216C789.189 556.216 787.809 555.886 786.609 555.226C785.429 554.566 784.509 553.646 783.849 552.466C783.189 551.286 782.859 549.926 782.859 548.386C782.859 546.866 783.199 545.516 783.879 544.336C784.559 543.136 785.499 542.206 786.699 541.546C787.899 540.866 789.259 540.526 790.779 540.526C792.279 540.526 793.609 540.856 794.769 541.516C795.949 542.176 796.869 543.086 797.529 544.246C798.189 545.406 798.519 546.716 798.519 548.176ZM790.779 542.386C789.259 542.386 787.979 542.846 786.939 543.766C785.919 544.686 785.299 545.886 785.079 547.366H796.359C796.259 545.886 795.689 544.686 794.649 543.766C793.609 542.846 792.319 542.386 790.779 542.386Z" fill="white"/>
<path d="M768.036 545.836C770.116 545.836 771.696 546.266 772.776 547.126C773.876 547.966 774.426 549.206 774.426 550.846C774.426 552.466 773.876 553.706 772.776 554.566C771.696 555.406 770.116 555.826 768.036 555.826H762.756V540.946H764.796V545.836H768.036ZM777.036 555.826V540.946H779.076V555.826H777.036ZM767.916 553.966C769.416 553.966 770.516 553.716 771.216 553.216C771.916 552.716 772.266 551.926 772.266 550.846C772.266 549.746 771.916 548.946 771.216 548.446C770.516 547.946 769.416 547.696 767.916 547.696H764.796V553.966H767.916Z" fill="white"/>
<path d="M755.972 547.246V540.946H758.042V555.826H755.972V549.106H746.222V555.826H744.182V540.946H746.222V547.246H755.972Z" fill="white"/>
<path d="M733.916 545.836C735.996 545.836 737.576 546.266 738.656 547.126C739.756 547.966 740.306 549.206 740.306 550.846C740.306 552.466 739.756 553.706 738.656 554.566C737.576 555.406 735.996 555.826 733.916 555.826H728.186V540.946H730.226V545.836H733.916ZM733.796 553.966C735.296 553.966 736.396 553.716 737.096 553.216C737.796 552.716 738.146 551.926 738.146 550.846C738.146 549.746 737.796 548.946 737.096 548.446C736.396 547.946 735.296 547.696 733.796 547.696H730.226V553.966H733.796Z" fill="white"/>
<path d="M708.981 556.126C708.381 556.126 707.961 556.066 707.721 555.946V553.996C708.041 554.036 708.311 554.056 708.531 554.056C709.191 554.056 709.681 553.866 710.001 553.486C710.341 553.106 710.541 552.456 710.601 551.536L711.231 540.946H723.441V555.826H721.401V542.806H713.151L712.611 551.836C712.451 554.696 711.241 556.126 708.981 556.126Z" fill="white"/>
<path d="M706.234 548.176C706.234 548.556 706.214 548.876 706.174 549.136H692.764C692.924 550.716 693.514 551.986 694.534 552.946C695.554 553.886 696.864 554.356 698.464 554.356C701.084 554.356 702.774 553.416 703.534 551.536H705.814C705.374 553.056 704.524 554.216 703.264 555.016C702.024 555.816 700.424 556.216 698.464 556.216C696.904 556.216 695.524 555.886 694.324 555.226C693.144 554.566 692.224 553.646 691.564 552.466C690.904 551.286 690.574 549.926 690.574 548.386C690.574 546.866 690.914 545.516 691.594 544.336C692.274 543.136 693.214 542.206 694.414 541.546C695.614 540.866 696.974 540.526 698.494 540.526C699.994 540.526 701.324 540.856 702.484 541.516C703.664 542.176 704.584 543.086 705.244 544.246C705.904 545.406 706.234 546.716 706.234 548.176ZM698.494 542.386C696.974 542.386 695.694 542.846 694.654 543.766C693.634 544.686 693.014 545.886 692.794 547.366H704.074C703.974 545.886 703.404 544.686 702.364 543.766C701.324 542.846 700.034 542.386 698.494 542.386Z" fill="white"/>
<path d="M682.956 555.826H680.886V542.806H674.766V540.946H689.106V542.806H682.956V555.826Z" fill="white"/>
<path d="M663.968 556.126C662.128 556.126 660.638 555.726 659.498 554.926C658.378 554.106 657.818 552.966 657.818 551.506C657.818 550.566 658.098 549.746 658.658 549.046C659.238 548.346 660.018 547.806 660.998 547.426C661.998 547.046 663.118 546.856 664.358 546.856C665.418 546.856 666.468 546.996 667.508 547.276C668.548 547.536 669.398 547.876 670.058 548.296V546.106C670.058 544.866 669.628 543.936 668.768 543.316C667.908 542.696 666.738 542.386 665.258 542.386C663.818 542.386 662.658 542.656 661.778 543.196C660.918 543.716 660.488 544.376 660.488 545.176H658.358C658.358 544.296 658.638 543.506 659.198 542.806C659.758 542.106 660.558 541.556 661.598 541.156C662.638 540.736 663.868 540.526 665.288 540.526C667.368 540.526 669.018 541.006 670.238 541.966C671.478 542.926 672.098 544.316 672.098 546.136V552.526C672.098 553.486 672.518 553.966 673.358 553.966C673.778 553.966 674.088 553.896 674.288 553.756V555.526C673.848 555.726 673.358 555.826 672.818 555.826C671.458 555.826 670.608 555.256 670.268 554.116H670.148C669.488 554.716 668.598 555.206 667.478 555.586C666.378 555.946 665.208 556.126 663.968 556.126ZM664.388 554.266C665.508 554.266 666.578 554.096 667.598 553.756C668.618 553.416 669.438 552.946 670.058 552.346V550.006C669.458 549.626 668.678 549.326 667.718 549.106C666.758 548.866 665.778 548.746 664.778 548.746C663.358 548.746 662.198 548.986 661.298 549.466C660.398 549.946 659.948 550.626 659.948 551.506C659.948 552.446 660.358 553.146 661.178 553.606C661.998 554.046 663.068 554.266 664.388 554.266Z" fill="white"/>
<path d="M652.181 548.086C653.081 548.286 653.781 548.706 654.281 549.346C654.801 549.986 655.061 550.756 655.061 551.656C655.061 553.036 654.581 554.076 653.621 554.776C652.681 555.476 651.271 555.826 649.391 555.826H641.291V540.946H649.391C650.931 540.946 652.111 541.276 652.931 541.936C653.751 542.596 654.161 543.536 654.161 544.756C654.161 545.476 653.981 546.116 653.621 546.676C653.281 547.236 652.801 547.666 652.181 547.966V548.086ZM643.331 542.806V547.336H649.121C650.061 547.336 650.771 547.136 651.251 546.736C651.751 546.336 652.001 545.766 652.001 545.026C652.001 543.546 651.041 542.806 649.121 542.806H643.331ZM649.691 553.966C650.731 553.966 651.521 553.766 652.061 553.366C652.621 552.966 652.901 552.356 652.901 551.536C652.901 549.916 651.831 549.106 649.691 549.106H643.331V553.966H649.691Z" fill="white"/>
<path d="M629.674 556.216C628.134 556.216 626.764 555.886 625.564 555.226C624.384 554.566 623.464 553.646 622.804 552.466C622.164 551.266 621.844 549.906 621.844 548.386C621.844 546.866 622.174 545.516 622.834 544.336C623.494 543.136 624.414 542.206 625.594 541.546C626.774 540.866 628.134 540.526 629.674 540.526C631.214 540.526 632.574 540.866 633.754 541.546C634.934 542.206 635.854 543.136 636.514 544.336C637.174 545.516 637.504 546.866 637.504 548.386C637.504 549.906 637.174 551.266 636.514 552.466C635.874 553.646 634.954 554.566 633.754 555.226C632.574 555.886 631.214 556.216 629.674 556.216ZM629.674 554.356C631.414 554.356 632.794 553.806 633.814 552.706C634.854 551.586 635.374 550.146 635.374 548.386C635.374 546.626 634.854 545.186 633.814 544.066C632.794 542.946 631.414 542.386 629.674 542.386C627.934 542.386 626.554 542.946 625.534 544.066C624.514 545.166 624.004 546.606 624.004 548.386C624.004 550.146 624.514 551.586 625.534 552.706C626.554 553.806 627.934 554.356 629.674 554.356Z" fill="white"/>
<path d="M611.9 556.216C609.54 556.216 607.76 555.786 606.56 554.926C605.36 554.066 604.76 552.886 604.76 551.386H606.92C606.92 552.286 607.34 553.006 608.18 553.546C609.02 554.086 610.26 554.356 611.9 554.356C613.56 554.356 614.79 554.116 615.59 553.636C616.41 553.156 616.82 552.476 616.82 551.596C616.82 549.936 615.52 549.106 612.92 549.106H609.29V547.336H612.92C615.24 547.336 616.4 546.536 616.4 544.936C616.4 544.116 616.03 543.486 615.29 543.046C614.55 542.606 613.42 542.386 611.9 542.386C610.38 542.386 609.21 542.646 608.39 543.166C607.57 543.686 607.16 544.356 607.16 545.176H605.03C605.03 543.776 605.64 542.656 606.86 541.816C608.08 540.956 609.76 540.526 611.9 540.526C614.06 540.526 615.71 540.896 616.85 541.636C617.99 542.376 618.56 543.416 618.56 544.756C618.56 545.596 618.34 546.286 617.9 546.826C617.46 547.366 616.85 547.756 616.07 547.996V548.116C617.01 548.336 617.73 548.756 618.23 549.376C618.73 549.996 618.98 550.746 618.98 551.626C618.98 553.086 618.38 554.216 617.18 555.016C615.98 555.816 614.22 556.216 611.9 556.216Z" fill="white"/>
<path d="M592.923 556.126C591.083 556.126 589.593 555.726 588.453 554.926C587.333 554.106 586.773 552.966 586.773 551.506C586.773 550.566 587.053 549.746 587.613 549.046C588.193 548.346 588.973 547.806 589.953 547.426C590.953 547.046 592.073 546.856 593.313 546.856C594.373 546.856 595.423 546.996 596.463 547.276C597.503 547.536 598.353 547.876 599.013 548.296V546.106C599.013 544.866 598.583 543.936 597.723 543.316C596.863 542.696 595.693 542.386 594.213 542.386C592.773 542.386 591.613 542.656 590.733 543.196C589.873 543.716 589.443 544.376 589.443 545.176H587.313C587.313 544.296 587.593 543.506 588.153 542.806C588.713 542.106 589.513 541.556 590.553 541.156C591.593 540.736 592.823 540.526 594.243 540.526C596.323 540.526 597.973 541.006 599.193 541.966C600.433 542.926 601.053 544.316 601.053 546.136V552.526C601.053 553.486 601.473 553.966 602.313 553.966C602.733 553.966 603.043 553.896 603.243 553.756V555.526C602.803 555.726 602.313 555.826 601.773 555.826C600.413 555.826 599.563 555.256 599.223 554.116H599.103C598.443 554.716 597.553 555.206 596.433 555.586C595.333 555.946 594.163 556.126 592.923 556.126ZM593.343 554.266C594.463 554.266 595.533 554.096 596.553 553.756C597.573 553.416 598.393 552.946 599.013 552.346V550.006C598.413 549.626 597.633 549.326 596.673 549.106C595.713 548.866 594.733 548.746 593.733 548.746C592.313 548.746 591.153 548.986 590.253 549.466C589.353 549.946 588.903 550.626 588.903 551.506C588.903 552.446 589.313 553.146 590.133 553.606C590.953 554.046 592.023 554.266 593.343 554.266Z" fill="white"/>
<path d="M568.488 561.826V540.946H570.438V543.676H570.528C571.028 542.756 571.828 542.006 572.928 541.426C574.048 540.826 575.208 540.526 576.408 540.526C577.908 540.526 579.238 540.856 580.398 541.516C581.558 542.176 582.458 543.106 583.098 544.306C583.738 545.486 584.058 546.846 584.058 548.386C584.058 549.906 583.738 551.266 583.098 552.466C582.458 553.646 581.558 554.566 580.398 555.226C579.238 555.886 577.908 556.216 576.408 556.216C575.248 556.216 574.128 555.946 573.048 555.406C571.988 554.846 571.178 554.106 570.618 553.186H570.528V561.826H568.488ZM576.228 554.356C577.348 554.356 578.338 554.106 579.198 553.606C580.058 553.106 580.718 552.406 581.178 551.506C581.658 550.606 581.898 549.566 581.898 548.386C581.898 547.206 581.658 546.166 581.178 545.266C580.718 544.346 580.058 543.636 579.198 543.136C578.338 542.636 577.348 542.386 576.228 542.386C575.128 542.386 574.148 542.636 573.288 543.136C572.428 543.636 571.748 544.346 571.248 545.266C570.768 546.166 570.528 547.206 570.528 548.386C570.528 549.566 570.768 550.606 571.248 551.506C571.748 552.406 572.428 553.106 573.288 553.606C574.148 554.106 575.128 554.356 576.228 554.356Z" fill="white"/>
<path d="M557.535 541.906C558.955 541.906 560.205 542.206 561.285 542.806C562.365 543.386 563.205 544.216 563.805 545.296C564.405 546.376 564.705 547.606 564.705 548.986C564.705 550.406 564.385 551.666 563.745 552.766C563.105 553.866 562.205 554.716 561.045 555.316C559.885 555.916 558.545 556.216 557.025 556.216C554.445 556.216 552.495 555.456 551.175 553.936C549.875 552.396 549.225 550.146 549.225 547.186C549.225 544.986 549.475 543.186 549.975 541.786C550.495 540.366 551.305 539.276 552.405 538.516C553.525 537.736 555.005 537.226 556.845 536.986C558.525 536.786 559.725 536.526 560.445 536.206C561.165 535.866 561.525 535.406 561.525 534.826H563.685C563.685 536.026 563.175 536.946 562.155 537.586C561.135 538.226 559.405 538.676 556.965 538.936C555.145 539.156 553.795 539.746 552.915 540.706C552.035 541.646 551.515 543.046 551.355 544.906C551.975 543.966 552.825 543.236 553.905 542.716C555.005 542.176 556.215 541.906 557.535 541.906ZM556.995 554.356C558.695 554.356 560.045 553.876 561.045 552.916C562.045 551.956 562.545 550.666 562.545 549.046C562.545 547.466 562.055 546.196 561.075 545.236C560.095 544.276 558.765 543.796 557.085 543.796C555.425 543.796 554.075 544.276 553.035 545.236C551.995 546.196 551.475 547.466 551.475 549.046C551.475 550.666 551.965 551.956 552.945 552.916C553.945 553.876 555.295 554.356 556.995 554.356Z" fill="white"/>
<path d="M538.268 556.216C536.728 556.216 535.358 555.886 534.158 555.226C532.977 554.566 532.058 553.646 531.398 552.466C530.757 551.266 530.438 549.906 530.438 548.386C530.438 546.866 530.767 545.516 531.428 544.336C532.087 543.136 533.008 542.206 534.188 541.546C535.368 540.866 536.728 540.526 538.268 540.526C539.808 540.526 541.168 540.866 542.348 541.546C543.528 542.206 544.448 543.136 545.108 544.336C545.767 545.516 546.097 546.866 546.097 548.386C546.097 549.906 545.767 551.266 545.108 552.466C544.467 553.646 543.548 554.566 542.348 555.226C541.168 555.886 539.808 556.216 538.268 556.216ZM538.268 554.356C540.008 554.356 541.388 553.806 542.408 552.706C543.448 551.586 543.968 550.146 543.968 548.386C543.968 546.626 543.448 545.186 542.408 544.066C541.388 542.946 540.008 542.386 538.268 542.386C536.528 542.386 535.148 542.946 534.127 544.066C533.107 545.166 532.598 546.606 532.598 548.386C532.598 550.146 533.107 551.586 534.127 552.706C535.148 553.806 536.528 554.356 538.268 554.356Z" fill="white"/>
<path d="M742.328 512.176C742.328 512.556 742.308 512.876 742.268 513.136H728.858C729.018 514.716 729.608 515.986 730.628 516.946C731.648 517.886 732.958 518.356 734.558 518.356C737.178 518.356 738.868 517.416 739.628 515.536H741.908C741.468 517.056 740.618 518.216 739.358 519.016C738.118 519.816 736.518 520.216 734.558 520.216C732.998 520.216 731.618 519.886 730.418 519.226C729.238 518.566 728.318 517.646 727.658 516.466C726.998 515.286 726.668 513.926 726.668 512.386C726.668 510.866 727.008 509.516 727.688 508.336C728.368 507.136 729.308 506.206 730.508 505.546C731.708 504.866 733.068 504.526 734.588 504.526C736.088 504.526 737.418 504.856 738.578 505.516C739.758 506.176 740.678 507.086 741.338 508.246C741.998 509.406 742.328 510.716 742.328 512.176ZM734.588 506.386C733.068 506.386 731.788 506.846 730.748 507.766C729.728 508.686 729.108 509.886 728.888 511.366H740.168C740.068 509.886 739.498 508.686 738.458 507.766C737.418 506.846 736.128 506.386 734.588 506.386Z" fill="white"/>
<path d="M711.844 509.836C713.924 509.836 715.504 510.266 716.584 511.126C717.684 511.966 718.234 513.206 718.234 514.846C718.234 516.466 717.684 517.706 716.584 518.566C715.504 519.406 713.924 519.826 711.844 519.826H706.564V504.946H708.604V509.836H711.844ZM720.844 519.826V504.946H722.884V519.826H720.844ZM711.724 517.966C713.224 517.966 714.324 517.716 715.024 517.216C715.724 516.716 716.074 515.926 716.074 514.846C716.074 513.746 715.724 512.946 715.024 512.446C714.324 511.946 713.224 511.696 711.724 511.696H708.604V517.966H711.724Z" fill="white"/>
<path d="M699.78 511.246V504.946H701.85V519.826H699.78V513.106H690.03V519.826H687.99V504.946H690.03V511.246H699.78Z" fill="white"/>
<path d="M681.206 511.246V504.946H683.276V519.826H681.206V513.106H671.456V519.826H669.416V504.946H671.456V511.246H681.206Z" fill="white"/>
<path d="M665.775 512.176C665.775 512.556 665.755 512.876 665.715 513.136H652.305C652.465 514.716 653.055 515.986 654.075 516.946C655.095 517.886 656.405 518.356 658.005 518.356C660.625 518.356 662.315 517.416 663.075 515.536H665.355C664.915 517.056 664.065 518.216 662.805 519.016C661.565 519.816 659.965 520.216 658.005 520.216C656.445 520.216 655.065 519.886 653.865 519.226C652.685 518.566 651.765 517.646 651.105 516.466C650.445 515.286 650.115 513.926 650.115 512.386C650.115 510.866 650.455 509.516 651.135 508.336C651.815 507.136 652.755 506.206 653.955 505.546C655.155 504.866 656.515 504.526 658.035 504.526C659.535 504.526 660.865 504.856 662.025 505.516C663.205 506.176 664.125 507.086 664.785 508.246C665.445 509.406 665.775 510.716 665.775 512.176ZM658.035 506.386C656.515 506.386 655.235 506.846 654.195 507.766C653.175 508.686 652.555 509.886 652.335 511.366H663.615C663.515 509.886 662.945 508.686 661.905 507.766C660.865 506.846 659.575 506.386 658.035 506.386Z" fill="white"/>
<path d="M630.675 519.826H628.635V504.946H631.065L637.455 514.306H637.545L643.935 504.946H646.335V519.826H644.265V507.826H644.175L638.235 516.496H636.705L630.765 507.826H630.675V519.826Z" fill="white"/>
<path d="M624.994 512.176C624.994 512.556 624.974 512.876 624.934 513.136H611.524C611.684 514.716 612.274 515.986 613.294 516.946C614.314 517.886 615.624 518.356 617.224 518.356C619.844 518.356 621.534 517.416 622.294 515.536H624.574C624.134 517.056 623.284 518.216 622.024 519.016C620.784 519.816 619.184 520.216 617.224 520.216C615.664 520.216 614.284 519.886 613.084 519.226C611.904 518.566 610.984 517.646 610.324 516.466C609.664 515.286 609.334 513.926 609.334 512.386C609.334 510.866 609.674 509.516 610.354 508.336C611.034 507.136 611.974 506.206 613.174 505.546C614.374 504.866 615.734 504.526 617.254 504.526C618.754 504.526 620.084 504.856 621.244 505.516C622.424 506.176 623.344 507.086 624.004 508.246C624.664 509.406 624.994 510.716 624.994 512.176ZM617.254 506.386C615.734 506.386 614.454 506.846 613.414 507.766C612.394 508.686 611.774 509.886 611.554 511.366H622.834C622.734 509.886 622.164 508.686 621.124 507.766C620.084 506.846 618.794 506.386 617.254 506.386Z" fill="white"/>
<path d="M590.959 525.826V504.946H592.909V507.676H592.999C593.499 506.756 594.299 506.006 595.399 505.426C596.519 504.826 597.679 504.526 598.879 504.526C600.379 504.526 601.709 504.856 602.869 505.516C604.029 506.176 604.929 507.106 605.569 508.306C606.209 509.486 606.529 510.846 606.529 512.386C606.529 513.906 606.209 515.266 605.569 516.466C604.929 517.646 604.029 518.566 602.869 519.226C601.709 519.886 600.379 520.216 598.879 520.216C597.719 520.216 596.599 519.946 595.519 519.406C594.459 518.846 593.649 518.106 593.089 517.186H592.999V525.826H590.959ZM598.699 518.356C599.819 518.356 600.809 518.106 601.669 517.606C602.529 517.106 603.189 516.406 603.649 515.506C604.129 514.606 604.369 513.566 604.369 512.386C604.369 511.206 604.129 510.166 603.649 509.266C603.189 508.346 602.529 507.636 601.669 507.136C600.809 506.636 599.819 506.386 598.699 506.386C597.599 506.386 596.619 506.636 595.759 507.136C594.899 507.636 594.219 508.346 593.719 509.266C593.239 510.166 592.999 511.206 592.999 512.386C592.999 513.566 593.239 514.606 593.719 515.506C594.219 516.406 594.899 517.106 595.759 517.606C596.619 518.106 597.599 518.356 598.699 518.356Z" fill="white"/>
<path d="M584.271 512.086C585.171 512.286 585.871 512.706 586.371 513.346C586.891 513.986 587.151 514.756 587.151 515.656C587.151 517.036 586.671 518.076 585.711 518.776C584.771 519.476 583.361 519.826 581.481 519.826H573.381V504.946H581.481C583.021 504.946 584.201 505.276 585.021 505.936C585.841 506.596 586.251 507.536 586.251 508.756C586.251 509.476 586.071 510.116 585.711 510.676C585.371 511.236 584.891 511.666 584.271 511.966V512.086ZM575.421 506.806V511.336H581.211C582.151 511.336 582.861 511.136 583.341 510.736C583.841 510.336 584.091 509.766 584.091 509.026C584.091 507.546 583.131 506.806 581.211 506.806H575.421ZM581.781 517.966C582.821 517.966 583.611 517.766 584.151 517.366C584.711 516.966 584.991 516.356 584.991 515.536C584.991 513.916 583.921 513.106 581.781 513.106H575.421V517.966H581.781Z" fill="white"/>
<path d="M561.764 520.216C560.224 520.216 558.854 519.886 557.654 519.226C556.474 518.566 555.554 517.646 554.894 516.466C554.254 515.266 553.934 513.906 553.934 512.386C553.934 510.866 554.264 509.516 554.924 508.336C555.584 507.136 556.504 506.206 557.684 505.546C558.864 504.866 560.224 504.526 561.764 504.526C563.304 504.526 564.664 504.866 565.844 505.546C567.024 506.206 567.944 507.136 568.604 508.336C569.264 509.516 569.594 510.866 569.594 512.386C569.594 513.906 569.264 515.266 568.604 516.466C567.964 517.646 567.044 518.566 565.844 519.226C564.664 519.886 563.304 520.216 561.764 520.216ZM561.764 518.356C563.504 518.356 564.884 517.806 565.904 516.706C566.944 515.586 567.464 514.146 567.464 512.386C567.464 510.626 566.944 509.186 565.904 508.066C564.884 506.946 563.504 506.386 561.764 506.386C560.024 506.386 558.644 506.946 557.624 508.066C556.604 509.166 556.094 510.606 556.094 512.386C556.094 514.146 556.604 515.586 557.624 516.706C558.644 517.806 560.024 518.356 561.764 518.356Z" fill="white"/>
<path d="M541.387 520.126C539.307 520.126 537.477 519.666 535.897 518.746C534.317 517.826 533.097 516.546 532.237 514.906C531.377 513.266 530.947 511.406 530.947 509.326C530.947 507.246 531.377 505.386 532.237 503.746C533.097 502.106 534.317 500.826 535.897 499.906C537.477 498.986 539.307 498.526 541.387 498.526C543.147 498.526 544.717 498.856 546.097 499.516C547.477 500.176 548.587 501.076 549.427 502.216C550.267 503.356 550.797 504.626 551.017 506.026H548.707C548.507 505.026 548.087 504.116 547.447 503.296C546.807 502.456 545.967 501.796 544.927 501.316C543.887 500.836 542.707 500.596 541.387 500.596C539.767 500.596 538.347 500.976 537.127 501.736C535.907 502.476 534.957 503.506 534.277 504.826C533.617 506.146 533.287 507.646 533.287 509.326C533.287 511.006 533.617 512.506 534.277 513.826C534.957 515.146 535.907 516.186 537.127 516.946C538.347 517.686 539.767 518.056 541.387 518.056C543.387 518.056 545.027 517.556 546.307 516.556C547.587 515.556 548.407 514.246 548.767 512.626H551.077C550.797 514.046 550.227 515.326 549.367 516.466C548.527 517.606 547.417 518.506 546.037 519.166C544.677 519.806 543.127 520.126 541.387 520.126Z" fill="white"/>
</svg>
