<svg width="833" height="627" viewBox="0 0 833 627" fill="none" xmlns="http://www.w3.org/2000/svg">
<g clip-path="url(#clip0_227_99)">
<path d="M509 25.9152C509 11.6026 520.603 0 534.915 0H833.438V117.765C833.438 132.077 821.835 143.68 807.523 143.68H509V25.9152Z" fill="url(#paint0_radial_227_99)"/>
<path d="M749.9 118.994H747.56V104.114H749.6V116.294H749.69L759.2 104.114H761.57V118.994H759.5V106.784H759.41L749.9 118.994Z" fill="white"/>
<path d="M731.179 118.994H728.839V104.114H730.879V116.294H730.969L740.479 104.114H742.849V118.994H740.779V106.784H740.689L731.179 118.994Z" fill="white"/>
<path d="M717.81 119.384C716.27 119.384 714.9 119.054 713.7 118.394C712.5 117.714 711.57 116.784 710.91 115.604C710.25 114.424 709.92 113.074 709.92 111.554C709.92 110.034 710.25 108.684 710.91 107.504C711.59 106.304 712.53 105.374 713.73 104.714C714.93 104.034 716.29 103.694 717.81 103.694C719.23 103.694 720.47 103.964 721.53 104.504C722.59 105.044 723.41 105.744 723.99 106.604C724.59 107.464 724.96 108.374 725.1 109.334H722.94C722.7 108.214 722.12 107.304 721.2 106.604C720.3 105.904 719.17 105.554 717.81 105.554C716.67 105.554 715.67 105.814 714.81 106.334C713.95 106.834 713.28 107.544 712.8 108.464C712.32 109.364 712.08 110.394 712.08 111.554C712.08 112.714 712.31 113.744 712.77 114.644C713.25 115.544 713.92 116.254 714.78 116.774C715.66 117.274 716.67 117.524 717.81 117.524C719.29 117.524 720.49 117.154 721.41 116.414C722.33 115.674 722.89 114.754 723.09 113.654H725.25C725.15 114.634 724.79 115.564 724.17 116.444C723.57 117.324 722.73 118.034 721.65 118.574C720.57 119.114 719.29 119.384 717.81 119.384Z" fill="white"/>
<path d="M699.851 119.384C698.311 119.384 696.941 119.054 695.741 118.394C694.541 117.714 693.611 116.784 692.951 115.604C692.291 114.424 691.961 113.074 691.961 111.554C691.961 110.034 692.291 108.684 692.951 107.504C693.631 106.304 694.571 105.374 695.771 104.714C696.971 104.034 698.331 103.694 699.851 103.694C701.271 103.694 702.511 103.964 703.571 104.504C704.631 105.044 705.451 105.744 706.031 106.604C706.631 107.464 707.001 108.374 707.141 109.334H704.981C704.741 108.214 704.161 107.304 703.241 106.604C702.341 105.904 701.211 105.554 699.851 105.554C698.711 105.554 697.711 105.814 696.851 106.334C695.991 106.834 695.321 107.544 694.841 108.464C694.361 109.364 694.121 110.394 694.121 111.554C694.121 112.714 694.351 113.744 694.811 114.644C695.291 115.544 695.961 116.254 696.821 116.774C697.701 117.274 698.711 117.524 699.851 117.524C701.331 117.524 702.531 117.154 703.451 116.414C704.371 115.674 704.931 114.754 705.131 113.654H707.291C707.191 114.634 706.831 115.564 706.211 116.444C705.611 117.324 704.771 118.034 703.691 118.574C702.611 119.114 701.331 119.384 699.851 119.384Z" fill="white"/>
<path d="M681.305 119.384C679.765 119.384 678.395 119.054 677.195 118.394C676.015 117.734 675.095 116.814 674.435 115.634C673.795 114.434 673.475 113.074 673.475 111.554C673.475 110.034 673.805 108.684 674.465 107.504C675.125 106.304 676.045 105.374 677.225 104.714C678.405 104.034 679.765 103.694 681.305 103.694C682.845 103.694 684.205 104.034 685.385 104.714C686.565 105.374 687.485 106.304 688.145 107.504C688.805 108.684 689.135 110.034 689.135 111.554C689.135 113.074 688.805 114.434 688.145 115.634C687.505 116.814 686.585 117.734 685.385 118.394C684.205 119.054 682.845 119.384 681.305 119.384ZM681.305 117.524C683.045 117.524 684.425 116.974 685.445 115.874C686.485 114.754 687.005 113.314 687.005 111.554C687.005 109.794 686.485 108.354 685.445 107.234C684.425 106.114 683.045 105.554 681.305 105.554C679.565 105.554 678.185 106.114 677.165 107.234C676.145 108.334 675.635 109.774 675.635 111.554C675.635 113.314 676.145 114.754 677.165 115.874C678.185 116.974 679.565 117.524 681.305 117.524Z" fill="white"/>
<path d="M662.738 97.9951C665.358 97.9951 667.378 98.6151 668.798 99.8551C670.218 101.095 670.928 102.865 670.928 105.165C670.928 107.465 670.218 109.235 668.798 110.475C667.398 111.695 665.378 112.305 662.738 112.305H657.128V118.995H654.878V97.9951H662.738ZM662.738 110.265C664.638 110.265 666.088 109.825 667.088 108.945C668.088 108.065 668.588 106.805 668.588 105.165C668.588 103.525 668.088 102.265 667.088 101.385C666.088 100.505 664.638 100.065 662.738 100.065H657.128V110.265H662.738Z" fill="white"/>
<path d="M644.135 111.344C644.135 111.724 644.115 112.044 644.075 112.304H630.665C630.825 113.884 631.415 115.154 632.435 116.114C633.455 117.054 634.765 117.524 636.365 117.524C638.985 117.524 640.675 116.584 641.435 114.704H643.715C643.275 116.224 642.425 117.384 641.165 118.184C639.925 118.984 638.325 119.384 636.365 119.384C634.805 119.384 633.425 119.054 632.225 118.394C631.045 117.734 630.125 116.814 629.465 115.634C628.805 114.454 628.475 113.094 628.475 111.554C628.475 110.034 628.815 108.684 629.495 107.504C630.175 106.304 631.115 105.374 632.315 104.714C633.515 104.034 634.875 103.694 636.395 103.694C637.895 103.694 639.225 104.024 640.385 104.684C641.565 105.344 642.485 106.254 643.145 107.414C643.805 108.574 644.135 109.884 644.135 111.344ZM636.395 105.554C634.875 105.554 633.595 106.014 632.555 106.934C631.535 107.854 630.915 109.054 630.695 110.534H641.975C641.875 109.054 641.305 107.854 640.265 106.934C639.225 106.014 637.935 105.554 636.395 105.554Z" fill="white"/>
<path d="M617.764 118.994H615.724V104.114H627.154V105.974H617.764V118.994Z" fill="white"/>
<path d="M601.377 97.6943C603.397 97.6943 605.167 98.1643 606.687 99.1043C608.207 100.024 609.377 101.304 610.197 102.944C611.017 104.564 611.427 106.414 611.427 108.494C611.427 110.574 611.017 112.434 610.197 114.074C609.377 115.694 608.207 116.974 606.687 117.914C605.167 118.834 603.397 119.294 601.377 119.294C599.437 119.294 597.727 118.874 596.247 118.034C594.767 117.194 593.607 116.024 592.767 114.524C591.927 113.024 591.447 111.304 591.327 109.364H587.577V118.994H585.327V97.9943H587.577V107.414H591.327C591.467 105.514 591.967 103.834 592.827 102.374C593.687 100.894 594.847 99.7443 596.307 98.9243C597.767 98.1043 599.457 97.6943 601.377 97.6943ZM601.377 117.224C602.937 117.224 604.297 116.854 605.457 116.114C606.637 115.354 607.537 114.314 608.157 112.994C608.777 111.674 609.087 110.174 609.087 108.494C609.087 106.814 608.777 105.314 608.157 103.994C607.537 102.674 606.637 101.644 605.457 100.904C604.297 100.144 602.937 99.7643 601.377 99.7643C599.817 99.7643 598.447 100.144 597.267 100.904C596.107 101.644 595.207 102.674 594.567 103.994C593.947 105.314 593.637 106.814 593.637 108.494C593.637 110.174 593.947 111.674 594.567 112.994C595.207 114.314 596.107 115.354 597.267 116.114C598.447 116.854 599.817 117.224 601.377 117.224Z" fill="white"/>
<path d="M564.398 119.294C562.558 119.294 561.068 118.894 559.928 118.094C558.808 117.274 558.248 116.134 558.248 114.674C558.248 113.734 558.528 112.914 559.088 112.214C559.668 111.514 560.448 110.974 561.428 110.594C562.428 110.214 563.548 110.024 564.788 110.024C565.848 110.024 566.898 110.164 567.938 110.444C568.978 110.704 569.828 111.044 570.488 111.464V109.274C570.488 108.034 570.058 107.104 569.198 106.484C568.338 105.864 567.168 105.554 565.688 105.554C564.248 105.554 563.088 105.824 562.208 106.364C561.348 106.884 560.918 107.544 560.918 108.344H558.788C558.788 107.464 559.068 106.674 559.628 105.974C560.188 105.274 560.988 104.724 562.028 104.324C563.068 103.904 564.298 103.694 565.718 103.694C567.798 103.694 569.448 104.174 570.668 105.134C571.908 106.094 572.528 107.484 572.528 109.304V115.694C572.528 116.654 572.948 117.134 573.788 117.134C574.208 117.134 574.518 117.064 574.718 116.924V118.694C574.278 118.894 573.788 118.994 573.248 118.994C571.888 118.994 571.038 118.424 570.698 117.284H570.578C569.918 117.884 569.028 118.374 567.908 118.754C566.808 119.114 565.638 119.294 564.398 119.294ZM564.818 117.434C565.938 117.434 567.008 117.264 568.028 116.924C569.048 116.584 569.868 116.114 570.488 115.514V113.174C569.888 112.794 569.108 112.494 568.148 112.274C567.188 112.034 566.208 111.914 565.208 111.914C563.788 111.914 562.628 112.154 561.728 112.634C560.828 113.114 560.378 113.794 560.378 114.674C560.378 115.614 560.788 116.314 561.608 116.774C562.428 117.214 563.498 117.434 564.818 117.434Z" fill="white"/>
<path d="M552.514 110.414V104.114H554.584V118.994H552.514V112.274H542.764V118.994H540.724V104.114H542.764V110.414H552.514Z" fill="white"/>
<path d="M801.189 83.3843C799.649 83.3843 798.279 83.0543 797.079 82.3943C795.879 81.7143 794.949 80.7843 794.289 79.6043C793.629 78.4243 793.299 77.0743 793.299 75.5543C793.299 74.0343 793.629 72.6843 794.289 71.5043C794.969 70.3043 795.909 69.3743 797.109 68.7143C798.309 68.0343 799.669 67.6943 801.189 67.6943C802.609 67.6943 803.849 67.9643 804.909 68.5043C805.969 69.0443 806.789 69.7443 807.369 70.6043C807.969 71.4643 808.339 72.3743 808.479 73.3343H806.319C806.079 72.2143 805.499 71.3043 804.579 70.6043C803.679 69.9043 802.549 69.5543 801.189 69.5543C800.049 69.5543 799.049 69.8143 798.189 70.3343C797.329 70.8343 796.659 71.5443 796.179 72.4643C795.699 73.3643 795.459 74.3943 795.459 75.5543C795.459 76.7143 795.689 77.7443 796.149 78.6443C796.629 79.5443 797.299 80.2543 798.159 80.7743C799.039 81.2743 800.049 81.5243 801.189 81.5243C802.669 81.5243 803.869 81.1543 804.789 80.4143C805.709 79.6743 806.269 78.7543 806.469 77.6543H808.629C808.529 78.6343 808.169 79.5643 807.549 80.4443C806.949 81.3243 806.109 82.0343 805.029 82.5743C803.949 83.1143 802.669 83.3843 801.189 83.3843Z" fill="white"/>
<path d="M790.022 68.1143H792.242L785.462 83.5943C784.862 84.9743 784.292 86.0643 783.752 86.8643C783.212 87.6843 782.602 88.2943 781.922 88.6943C781.262 89.0943 780.472 89.2943 779.552 89.2943C778.932 89.2943 778.352 89.2043 777.812 89.0243V87.1643C778.292 87.3443 778.812 87.4343 779.372 87.4343C780.212 87.4343 780.922 87.1643 781.502 86.6243C782.102 86.0843 782.692 85.0643 783.272 83.5643L783.452 83.0843L776.102 68.1143H778.442L784.502 80.5943H784.592L790.022 68.1143Z" fill="white"/>
<path d="M761.904 82.9943H759.864V68.1143H773.514V82.9943H771.444V69.9743H761.904V82.9943Z" fill="white"/>
<path d="M739.463 82.9943H737.423V68.1143H739.853L746.243 77.4743H746.333L752.723 68.1143H755.123V82.9943H753.053V70.9943H752.963L747.023 79.6643H745.493L739.553 70.9943H739.463V82.9943Z" fill="white"/>
<path d="M724.183 83.2943C722.343 83.2943 720.853 82.8943 719.713 82.0943C718.593 81.2743 718.033 80.1343 718.033 78.6743C718.033 77.7343 718.313 76.9143 718.873 76.2143C719.453 75.5143 720.233 74.9743 721.213 74.5943C722.213 74.2143 723.333 74.0243 724.573 74.0243C725.633 74.0243 726.683 74.1643 727.723 74.4443C728.763 74.7043 729.613 75.0443 730.273 75.4643V73.2743C730.273 72.0343 729.843 71.1043 728.983 70.4843C728.123 69.8643 726.953 69.5543 725.473 69.5543C724.033 69.5543 722.873 69.8243 721.993 70.3643C721.133 70.8843 720.703 71.5443 720.703 72.3443H718.573C718.573 71.4643 718.853 70.6743 719.413 69.9743C719.973 69.2743 720.773 68.7243 721.813 68.3243C722.853 67.9043 724.083 67.6943 725.503 67.6943C727.583 67.6943 729.233 68.1743 730.453 69.1343C731.693 70.0943 732.313 71.4843 732.313 73.3043V79.6943C732.313 80.6543 732.733 81.1343 733.573 81.1343C733.993 81.1343 734.303 81.0643 734.503 80.9243V82.6943C734.063 82.8943 733.573 82.9943 733.033 82.9943C731.673 82.9943 730.823 82.4243 730.483 81.2843H730.363C729.703 81.8843 728.813 82.3743 727.693 82.7543C726.593 83.1143 725.423 83.2943 724.183 83.2943ZM724.603 81.4343C725.723 81.4343 726.793 81.2643 727.813 80.9243C728.833 80.5843 729.653 80.1143 730.273 79.5143V77.1743C729.673 76.7943 728.893 76.4943 727.933 76.2743C726.973 76.0343 725.993 75.9143 724.993 75.9143C723.573 75.9143 722.413 76.1543 721.513 76.6343C720.613 77.1143 720.163 77.7943 720.163 78.6743C720.163 79.6143 720.573 80.3143 721.393 80.7743C722.213 81.2143 723.283 81.4343 724.603 81.4343Z" fill="white"/>
<path d="M707.998 75.3443L717.088 82.9943H714.268L705.478 75.6443V82.9943H703.438V68.1143H705.478V75.2243L713.698 68.1143H716.368L707.998 75.3443Z" fill="white"/>
<path d="M679.968 82.9946H677.628V68.1146H679.668V80.2946H679.758L689.268 68.1146H691.638V82.9946H689.568V70.7846H689.478L679.968 82.9946ZM684.648 65.3846C683.228 65.3846 682.108 65.0346 681.288 64.3346C680.468 63.6346 680.058 62.6946 680.058 61.5146H681.828C681.828 62.2346 682.078 62.8046 682.578 63.2246C683.078 63.6246 683.768 63.8246 684.648 63.8246C685.508 63.8246 686.188 63.6246 686.688 63.2246C687.188 62.8046 687.438 62.2346 687.438 61.5146H689.208C689.208 62.6946 688.798 63.6346 687.978 64.3346C687.158 65.0346 686.048 65.3846 684.648 65.3846Z" fill="white"/>
<path d="M661.843 73.0043C663.923 73.0043 665.503 73.4343 666.583 74.2943C667.683 75.1343 668.233 76.3743 668.233 78.0143C668.233 79.6343 667.683 80.8743 666.583 81.7343C665.503 82.5743 663.923 82.9943 661.843 82.9943H656.563V68.1143H658.603V73.0043H661.843ZM670.843 82.9943V68.1143H672.883V82.9943H670.843ZM661.723 81.1343C663.223 81.1343 664.323 80.8843 665.023 80.3843C665.723 79.8843 666.073 79.0943 666.073 78.0143C666.073 76.9143 665.723 76.1143 665.023 75.6143C664.323 75.1143 663.223 74.8643 661.723 74.8643H658.603V81.1343H661.723Z" fill="white"/>
<path d="M649.779 74.4143V68.1143H651.849V82.9943H649.779V76.2743H640.029V82.9943H637.989V68.1143H640.029V74.4143H649.779Z" fill="white"/>
<path d="M627.036 69.0751C628.456 69.0751 629.706 69.3751 630.786 69.9751C631.866 70.5551 632.706 71.3851 633.306 72.4651C633.906 73.5451 634.206 74.7751 634.206 76.1551C634.206 77.5751 633.886 78.8351 633.246 79.9351C632.606 81.0351 631.706 81.8851 630.546 82.4851C629.386 83.0851 628.046 83.3851 626.526 83.3851C623.946 83.3851 621.996 82.6251 620.676 81.1051C619.376 79.5651 618.726 77.3151 618.726 74.3551C618.726 72.1551 618.976 70.3551 619.476 68.9551C619.996 67.5351 620.806 66.4451 621.906 65.6851C623.026 64.9051 624.506 64.3951 626.346 64.1551C628.026 63.9551 629.226 63.6951 629.946 63.3751C630.666 63.0351 631.026 62.5751 631.026 61.9951H633.186C633.186 63.1951 632.676 64.1151 631.656 64.7551C630.636 65.3951 628.906 65.8451 626.466 66.1051C624.646 66.3251 623.296 66.9151 622.416 67.8751C621.536 68.8151 621.016 70.2151 620.856 72.0751C621.476 71.1351 622.326 70.4051 623.406 69.8851C624.506 69.3451 625.716 69.0751 627.036 69.0751ZM626.496 81.5251C628.196 81.5251 629.546 81.0451 630.546 80.0851C631.546 79.1251 632.046 77.8351 632.046 76.2151C632.046 74.6351 631.556 73.3651 630.576 72.4051C629.596 71.4451 628.266 70.9651 626.586 70.9651C624.926 70.9651 623.576 71.4451 622.536 72.4051C621.496 73.3651 620.976 74.6351 620.976 76.2151C620.976 77.8351 621.466 79.1251 622.446 80.0851C623.446 81.0451 624.796 81.5251 626.496 81.5251Z" fill="white"/>
<path d="M607.769 83.3843C606.229 83.3843 604.859 83.0543 603.659 82.3943C602.479 81.7343 601.559 80.8143 600.899 79.6343C600.259 78.4343 599.939 77.0743 599.939 75.5543C599.939 74.0343 600.269 72.6843 600.929 71.5043C601.589 70.3043 602.509 69.3743 603.689 68.7143C604.869 68.0343 606.229 67.6943 607.769 67.6943C609.309 67.6943 610.669 68.0343 611.849 68.7143C613.029 69.3743 613.949 70.3043 614.609 71.5043C615.269 72.6843 615.599 74.0343 615.599 75.5543C615.599 77.0743 615.269 78.4343 614.609 79.6343C613.969 80.8143 613.049 81.7343 611.849 82.3943C610.669 83.0543 609.309 83.3843 607.769 83.3843ZM607.769 81.5243C609.509 81.5243 610.889 80.9743 611.909 79.8743C612.949 78.7543 613.469 77.3143 613.469 75.5543C613.469 73.7943 612.949 72.3543 611.909 71.2343C610.889 70.1143 609.509 69.5543 607.769 69.5543C606.029 69.5543 604.649 70.1143 603.629 71.2343C602.609 72.3343 602.099 73.7743 602.099 75.5543C602.099 77.3143 602.609 78.7543 603.629 79.8743C604.649 80.9743 606.029 81.5243 607.769 81.5243Z" fill="white"/>
<path d="M595.608 81.1343H598.008V87.0443H595.938V82.9943H582.888V87.0443H580.848V81.1343H581.238C582.578 81.1343 583.308 80.1743 583.428 78.2543L584.058 68.1143H595.608V81.1343ZM584.268 81.1343H593.538V69.9743H585.978L585.498 77.7743C585.438 78.6143 585.298 79.3143 585.078 79.8743C584.858 80.4343 584.588 80.8243 584.268 81.0443V81.1343Z" fill="white"/>
<path d="M578.294 68.1143H580.514L573.734 83.5943C573.134 84.9743 572.564 86.0643 572.024 86.8643C571.484 87.6843 570.874 88.2943 570.194 88.6943C569.534 89.0943 568.744 89.2943 567.824 89.2943C567.204 89.2943 566.624 89.2043 566.084 89.0243V87.1643C566.564 87.3443 567.084 87.4343 567.644 87.4343C568.484 87.4343 569.194 87.1643 569.774 86.6243C570.374 86.0843 570.964 85.0643 571.544 83.5643L571.724 83.0843L564.374 68.1143H566.714L572.774 80.5943H572.864L578.294 68.1143Z" fill="white"/>
<path d="M543.064 82.9943H540.724V68.1143H542.764V80.2943H542.854L552.364 68.1143H554.734V82.9943H552.664V70.7843H552.574L543.064 82.9943Z" fill="white"/>
<path d="M768.502 45.9946H766.162V31.1146H768.202V43.2946H768.292L777.802 31.1146H780.172V45.9946H778.102V33.7846H778.012L768.502 45.9946ZM773.182 28.3846C771.762 28.3846 770.642 28.0346 769.822 27.3346C769.002 26.6346 768.592 25.6946 768.592 24.5146H770.362C770.362 25.2346 770.612 25.8046 771.112 26.2246C771.612 26.6246 772.302 26.8246 773.182 26.8246C774.042 26.8246 774.722 26.6246 775.222 26.2246C775.722 25.8046 775.972 25.2346 775.972 24.5146H777.742C777.742 25.6946 777.332 26.6346 776.512 27.3346C775.692 28.0346 774.582 28.3846 773.182 28.3846Z" fill="white"/>
<path d="M754.547 46.3843C753.007 46.3843 751.637 46.0543 750.437 45.3943C749.257 44.7343 748.337 43.8143 747.677 42.6343C747.037 41.4343 746.717 40.0743 746.717 38.5543C746.717 37.0343 747.047 35.6843 747.707 34.5043C748.367 33.3043 749.287 32.3743 750.467 31.7143C751.647 31.0343 753.007 30.6943 754.547 30.6943C756.087 30.6943 757.447 31.0343 758.627 31.7143C759.807 32.3743 760.727 33.3043 761.387 34.5043C762.047 35.6843 762.377 37.0343 762.377 38.5543C762.377 40.0743 762.047 41.4343 761.387 42.6343C760.747 43.8143 759.827 44.7343 758.627 45.3943C757.447 46.0543 756.087 46.3843 754.547 46.3843ZM754.547 44.5243C756.287 44.5243 757.667 43.9743 758.687 42.8743C759.727 41.7543 760.247 40.3143 760.247 38.5543C760.247 36.7943 759.727 35.3543 758.687 34.2343C757.667 33.1143 756.287 32.5543 754.547 32.5543C752.807 32.5543 751.427 33.1143 750.407 34.2343C749.387 35.3343 748.877 36.7743 748.877 38.5543C748.877 40.3143 749.387 41.7543 750.407 42.8743C751.427 43.9743 752.807 44.5243 754.547 44.5243Z" fill="white"/>
<path d="M742.922 45.9943H723.272V31.1143H725.312V44.1343H732.062V31.1143H734.132V44.1343H740.882V31.1143H742.922V45.9943Z" fill="white"/>
<path d="M713.006 36.0043C715.086 36.0043 716.666 36.4343 717.746 37.2943C718.846 38.1343 719.396 39.3743 719.396 41.0143C719.396 42.6343 718.846 43.8743 717.746 44.7343C716.666 45.5743 715.086 45.9943 713.006 45.9943H707.276V31.1143H709.316V36.0043H713.006ZM712.886 44.1343C714.386 44.1343 715.486 43.8843 716.186 43.3843C716.886 42.8843 717.236 42.0943 717.236 41.0143C717.236 39.9143 716.886 39.1143 716.186 38.6143C715.486 38.1143 714.386 37.8643 712.886 37.8643H709.316V44.1343H712.886Z" fill="white"/>
<path d="M688.073 46.2943C687.473 46.2943 687.053 46.2343 686.812 46.1143V44.1643C687.132 44.2043 687.403 44.2243 687.623 44.2243C688.283 44.2243 688.772 44.0343 689.092 43.6543C689.432 43.2743 689.633 42.6243 689.693 41.7043L690.323 31.1143H702.533V45.9943H700.493V32.9743H692.243L691.702 42.0043C691.542 44.8643 690.333 46.2943 688.073 46.2943Z" fill="white"/>
<path d="M677.35 46.3843C675.81 46.3843 674.44 46.0543 673.24 45.3943C672.06 44.7343 671.14 43.8143 670.48 42.6343C669.84 41.4343 669.52 40.0743 669.52 38.5543C669.52 37.0343 669.85 35.6843 670.51 34.5043C671.17 33.3043 672.09 32.3743 673.27 31.7143C674.45 31.0343 675.81 30.6943 677.35 30.6943C678.89 30.6943 680.25 31.0343 681.43 31.7143C682.61 32.3743 683.53 33.3043 684.19 34.5043C684.85 35.6843 685.18 37.0343 685.18 38.5543C685.18 40.0743 684.85 41.4343 684.19 42.6343C683.55 43.8143 682.63 44.7343 681.43 45.3943C680.25 46.0543 678.89 46.3843 677.35 46.3843ZM677.35 44.5243C679.09 44.5243 680.47 43.9743 681.49 42.8743C682.53 41.7543 683.05 40.3143 683.05 38.5543C683.05 36.7943 682.53 35.3543 681.49 34.2343C680.47 33.1143 679.09 32.5543 677.35 32.5543C675.61 32.5543 674.23 33.1143 673.21 34.2343C672.19 35.3343 671.68 36.7743 671.68 38.5543C671.68 40.3143 672.19 41.7543 673.21 42.8743C674.23 43.9743 675.61 44.5243 677.35 44.5243Z" fill="white"/>
<path d="M659.526 32.0751C660.946 32.0751 662.196 32.3751 663.276 32.9751C664.356 33.5551 665.196 34.3851 665.796 35.4651C666.396 36.5451 666.696 37.7751 666.696 39.1551C666.696 40.5751 666.376 41.8351 665.736 42.9351C665.096 44.0351 664.196 44.8851 663.036 45.4851C661.876 46.0851 660.536 46.3851 659.016 46.3851C656.436 46.3851 654.486 45.6251 653.166 44.1051C651.866 42.5651 651.216 40.3151 651.216 37.3551C651.216 35.1551 651.466 33.3551 651.966 31.9551C652.486 30.5351 653.296 29.4451 654.396 28.6851C655.516 27.9051 656.996 27.3951 658.836 27.1551C660.516 26.9551 661.716 26.6951 662.436 26.3751C663.156 26.0351 663.516 25.5751 663.516 24.9951H665.676C665.676 26.1951 665.166 27.1151 664.146 27.7551C663.126 28.3951 661.396 28.8451 658.956 29.1051C657.136 29.3251 655.786 29.9151 654.906 30.8751C654.026 31.8151 653.506 33.2151 653.346 35.0751C653.966 34.1351 654.816 33.4051 655.896 32.8851C656.996 32.3451 658.206 32.0751 659.526 32.0751ZM658.986 44.5251C660.686 44.5251 662.036 44.0451 663.036 43.0851C664.036 42.1251 664.536 40.8351 664.536 39.2151C664.536 37.6351 664.046 36.3651 663.066 35.4051C662.086 34.4451 660.756 33.9651 659.076 33.9651C657.416 33.9651 656.066 34.4451 655.026 35.4051C653.986 36.3651 653.466 37.6351 653.466 39.2151C653.466 40.8351 653.956 42.1251 654.936 43.0851C655.936 44.0451 657.286 44.5251 658.986 44.5251Z" fill="white"/>
<path d="M628.405 45.9946H626.065V31.1146H628.105V43.2946H628.195L637.705 31.1146H640.075V45.9946H638.005V33.7846H637.915L628.405 45.9946ZM633.085 28.3846C631.665 28.3846 630.545 28.0346 629.725 27.3346C628.905 26.6346 628.495 25.6946 628.495 24.5146H630.265C630.265 25.2346 630.515 25.8046 631.015 26.2246C631.515 26.6246 632.205 26.8246 633.085 26.8246C633.945 26.8246 634.625 26.6246 635.125 26.2246C635.625 25.8046 635.875 25.2346 635.875 24.5146H637.645C637.645 25.6946 637.235 26.6346 636.415 27.3346C635.595 28.0346 634.485 28.3846 633.085 28.3846Z" fill="white"/>
<path d="M610.281 36.0043C612.361 36.0043 613.941 36.4343 615.021 37.2943C616.121 38.1343 616.671 39.3743 616.671 41.0143C616.671 42.6343 616.121 43.8743 615.021 44.7343C613.941 45.5743 612.361 45.9943 610.281 45.9943H605.001V31.1143H607.041V36.0043H610.281ZM619.281 45.9943V31.1143H621.321V45.9943H619.281ZM610.161 44.1343C611.661 44.1343 612.761 43.8843 613.461 43.3843C614.161 42.8843 614.511 42.0943 614.511 41.0143C614.511 39.9143 614.161 39.1143 613.461 38.6143C612.761 38.1143 611.661 37.8643 610.161 37.8643H607.041V44.1343H610.161Z" fill="white"/>
<path d="M584.6 45.9943H582.56V31.1143H584.99L591.38 40.4743H591.47L597.86 31.1143H600.26V45.9943H598.19V33.9943H598.1L592.16 42.6643H590.63L584.69 33.9943H584.6V45.9943Z" fill="white"/>
<path d="M569.32 46.2943C567.48 46.2943 565.99 45.8943 564.85 45.0943C563.73 44.2743 563.17 43.1343 563.17 41.6743C563.17 40.7343 563.45 39.9143 564.01 39.2143C564.59 38.5143 565.37 37.9743 566.35 37.5943C567.35 37.2143 568.47 37.0243 569.71 37.0243C570.77 37.0243 571.82 37.1643 572.86 37.4443C573.9 37.7043 574.75 38.0443 575.41 38.4643V36.2743C575.41 35.0343 574.98 34.1043 574.12 33.4843C573.26 32.8643 572.09 32.5543 570.61 32.5543C569.17 32.5543 568.01 32.8243 567.13 33.3643C566.27 33.8843 565.84 34.5443 565.84 35.3443H563.71C563.71 34.4643 563.99 33.6743 564.55 32.9743C565.11 32.2743 565.91 31.7243 566.95 31.3243C567.99 30.9043 569.22 30.6943 570.64 30.6943C572.72 30.6943 574.37 31.1743 575.59 32.1343C576.83 33.0943 577.45 34.4843 577.45 36.3043V42.6943C577.45 43.6543 577.87 44.1343 578.71 44.1343C579.13 44.1343 579.44 44.0643 579.64 43.9243V45.6943C579.2 45.8943 578.71 45.9943 578.17 45.9943C576.81 45.9943 575.96 45.4243 575.62 44.2843H575.5C574.84 44.8843 573.95 45.3743 572.83 45.7543C571.73 46.1143 570.56 46.2943 569.32 46.2943ZM569.74 44.4343C570.86 44.4343 571.93 44.2643 572.95 43.9243C573.97 43.5843 574.79 43.1143 575.41 42.5143V40.1743C574.81 39.7943 574.03 39.4943 573.07 39.2743C572.11 39.0343 571.13 38.9143 570.13 38.9143C568.71 38.9143 567.55 39.1543 566.65 39.6343C565.75 40.1143 565.3 40.7943 565.3 41.6743C565.3 42.6143 565.71 43.3143 566.53 43.7743C567.35 44.2143 568.42 44.4343 569.74 44.4343Z" fill="white"/>
<path d="M550.713 46.2943C548.633 46.2943 546.803 45.8343 545.223 44.9143C543.643 43.9943 542.423 42.7143 541.563 41.0743C540.703 39.4343 540.273 37.5743 540.273 35.4943C540.273 33.4143 540.703 31.5543 541.563 29.9143C542.423 28.2743 543.643 26.9943 545.223 26.0743C546.803 25.1543 548.633 24.6943 550.713 24.6943C552.473 24.6943 554.043 25.0243 555.423 25.6843C556.803 26.3443 557.913 27.2443 558.753 28.3843C559.593 29.5243 560.123 30.7943 560.343 32.1943H558.033C557.833 31.1943 557.413 30.2843 556.773 29.4643C556.133 28.6243 555.293 27.9643 554.253 27.4843C553.213 27.0043 552.033 26.7643 550.713 26.7643C549.093 26.7643 547.673 27.1443 546.453 27.9043C545.233 28.6443 544.283 29.6743 543.603 30.9943C542.943 32.3143 542.613 33.8143 542.613 35.4943C542.613 37.1743 542.943 38.6743 543.603 39.9943C544.283 41.3143 545.233 42.3543 546.453 43.1143C547.673 43.8543 549.093 44.2243 550.713 44.2243C552.713 44.2243 554.353 43.7243 555.633 42.7243C556.913 41.7243 557.733 40.4143 558.093 38.7943H560.403C560.123 40.2143 559.553 41.4943 558.693 42.6343C557.853 43.7743 556.743 44.6743 555.363 45.3343C554.003 45.9743 552.453 46.2943 550.713 46.2943Z" fill="white"/>
</g>
<defs>
<radialGradient id="paint0_radial_227_99" cx="0" cy="0" r="1" gradientUnits="userSpaceOnUse" gradientTransform="translate(474.067 -37.2028) rotate(8.52557) scale(415.357 181.485)">
<stop stop-color="#FFFF40"/>
<stop offset="1" stop-color="#FF6C00"/>
</radialGradient>
<clipPath id="clip0_227_99">
<rect width="833" height="627" fill="white"/>
</clipPath>
</defs>
</svg>
