<svg width="833" height="627" viewBox="0 0 833 627" fill="none" xmlns="http://www.w3.org/2000/svg">
<path d="M1 269.477C1 254.854 12.8541 243 27.4769 243H323V327.013C323 341.636 311.146 353.49 296.523 353.49H1V269.477Z" fill="url(#paint0_radial_227_140)"/>
<path d="M112.733 328.941H110.393V314.061H112.433V326.241H112.523L122.033 314.061H124.403V328.941H122.333V316.731H122.243L112.733 328.941Z" fill="white"/>
<path d="M98.8393 321.291L107.929 328.941H105.109L96.3193 321.591V328.941H94.2793V314.061H96.3193V321.171L104.539 314.061H107.209L98.8393 321.291Z" fill="white"/>
<path d="M89.3399 314.061H91.5599L84.7799 329.541C84.1799 330.921 83.6099 332.011 83.0699 332.811C82.5299 333.631 81.9199 334.241 81.2399 334.641C80.5799 335.041 79.7899 335.241 78.8699 335.241C78.2499 335.241 77.6699 335.151 77.1299 334.971V333.111C77.6099 333.291 78.1299 333.381 78.6899 333.381C79.5299 333.381 80.2399 333.111 80.8199 332.571C81.4199 332.031 82.0099 331.011 82.5899 329.511L82.7699 329.031L75.4199 314.061H77.7599L83.8199 326.541H83.9099L89.3399 314.061Z" fill="white"/>
<path d="M64.9254 329.241C63.0854 329.241 61.5954 328.841 60.4554 328.041C59.3354 327.221 58.7754 326.081 58.7754 324.621C58.7754 323.681 59.0554 322.861 59.6154 322.161C60.1954 321.461 60.9754 320.921 61.9554 320.541C62.9554 320.161 64.0754 319.971 65.3154 319.971C66.3754 319.971 67.4254 320.111 68.4654 320.391C69.5054 320.651 70.3554 320.991 71.0154 321.411V319.221C71.0154 317.981 70.5854 317.051 69.7254 316.431C68.8654 315.811 67.6954 315.501 66.2154 315.501C64.7754 315.501 63.6154 315.771 62.7354 316.311C61.8754 316.831 61.4454 317.491 61.4454 318.291H59.3154C59.3154 317.411 59.5954 316.621 60.1554 315.921C60.7154 315.221 61.5154 314.671 62.5554 314.271C63.5954 313.851 64.8254 313.641 66.2454 313.641C68.3254 313.641 69.9754 314.121 71.1954 315.081C72.4354 316.041 73.0554 317.431 73.0554 319.251V325.641C73.0554 326.601 73.4754 327.081 74.3154 327.081C74.7354 327.081 75.0454 327.011 75.2454 326.871V328.641C74.8054 328.841 74.3154 328.941 73.7754 328.941C72.4154 328.941 71.5654 328.371 71.2254 327.231H71.1054C70.4454 327.831 69.5554 328.321 68.4354 328.701C67.3354 329.061 66.1654 329.241 64.9254 329.241ZM65.3454 327.381C66.4654 327.381 67.5354 327.211 68.5554 326.871C69.5754 326.531 70.3954 326.061 71.0154 325.461V323.121C70.4154 322.741 69.6354 322.441 68.6754 322.221C67.7154 321.981 66.7354 321.861 65.7354 321.861C64.3154 321.861 63.1554 322.101 62.2554 322.581C61.3554 323.061 60.9054 323.741 60.9054 324.621C60.9054 325.561 61.3154 326.261 62.1354 326.721C62.9554 327.161 64.0254 327.381 65.3454 327.381Z" fill="white"/>
<path d="M53.042 320.361V314.061H55.112V328.941H53.042V322.221H43.292V328.941H41.252V314.061H43.292V320.361H53.042Z" fill="white"/>
<path d="M269.119 290.941H266.779V276.061H268.819V288.241H268.909L278.419 276.061H280.789V290.941H278.719V278.731H278.629L269.119 290.941ZM273.799 273.331C272.379 273.331 271.259 272.981 270.439 272.281C269.619 271.581 269.209 270.641 269.209 269.461H270.979C270.979 270.181 271.229 270.751 271.729 271.171C272.229 271.571 272.919 271.771 273.799 271.771C274.659 271.771 275.339 271.571 275.839 271.171C276.339 270.751 276.589 270.181 276.589 269.461H278.359C278.359 270.641 277.949 271.581 277.129 272.281C276.309 272.981 275.199 273.331 273.799 273.331Z" fill="white"/>
<path d="M255.162 291.331C253.622 291.331 252.252 291.001 251.052 290.341C249.872 289.681 248.952 288.761 248.292 287.581C247.652 286.381 247.332 285.021 247.332 283.501C247.332 281.981 247.662 280.631 248.322 279.451C248.982 278.251 249.902 277.321 251.082 276.661C252.262 275.981 253.622 275.641 255.162 275.641C256.702 275.641 258.062 275.981 259.242 276.661C260.422 277.321 261.342 278.251 262.002 279.451C262.662 280.631 262.992 281.981 262.992 283.501C262.992 285.021 262.662 286.381 262.002 287.581C261.362 288.761 260.442 289.681 259.242 290.341C258.062 291.001 256.702 291.331 255.162 291.331ZM255.162 289.471C256.902 289.471 258.282 288.921 259.302 287.821C260.342 286.701 260.862 285.261 260.862 283.501C260.862 281.741 260.342 280.301 259.302 279.181C258.282 278.061 256.902 277.501 255.162 277.501C253.422 277.501 252.042 278.061 251.022 279.181C250.002 280.281 249.492 281.721 249.492 283.501C249.492 285.261 250.002 286.701 251.022 287.821C252.042 288.921 253.422 289.471 255.162 289.471Z" fill="white"/>
<path d="M241.509 282.361V276.061H243.579V290.941H241.509V284.221H231.759V290.941H229.719V276.061H231.759V282.361H241.509Z" fill="white"/>
<path d="M224.28 289.081H226.68V294.991H224.61V290.941H211.56V294.991H209.52V289.081H209.91C211.25 289.081 211.98 288.121 212.1 286.201L212.73 276.061H224.28V289.081ZM212.94 289.081H222.21V277.921H214.65L214.17 285.721C214.11 286.561 213.97 287.261 213.75 287.821C213.53 288.381 213.26 288.771 212.94 288.991V289.081Z" fill="white"/>
<path d="M198.08 291.241C196.24 291.241 194.75 290.841 193.61 290.041C192.49 289.221 191.93 288.081 191.93 286.621C191.93 285.681 192.21 284.861 192.77 284.161C193.35 283.461 194.13 282.921 195.11 282.541C196.11 282.161 197.23 281.971 198.47 281.971C199.53 281.971 200.58 282.111 201.62 282.391C202.66 282.651 203.51 282.991 204.17 283.411V281.221C204.17 279.981 203.74 279.051 202.88 278.431C202.02 277.811 200.85 277.501 199.37 277.501C197.93 277.501 196.77 277.771 195.89 278.311C195.03 278.831 194.6 279.491 194.6 280.291H192.47C192.47 279.411 192.75 278.621 193.31 277.921C193.87 277.221 194.67 276.671 195.71 276.271C196.75 275.851 197.98 275.641 199.4 275.641C201.48 275.641 203.13 276.121 204.35 277.081C205.59 278.041 206.21 279.431 206.21 281.251V287.641C206.21 288.601 206.63 289.081 207.47 289.081C207.89 289.081 208.2 289.011 208.4 288.871V290.641C207.96 290.841 207.47 290.941 206.93 290.941C205.57 290.941 204.72 290.371 204.38 289.231H204.26C203.6 289.831 202.71 290.321 201.59 290.701C200.49 291.061 199.32 291.241 198.08 291.241ZM198.5 289.381C199.62 289.381 200.69 289.211 201.71 288.871C202.73 288.531 203.55 288.061 204.17 287.461V285.121C203.57 284.741 202.79 284.441 201.83 284.221C200.87 283.981 199.89 283.861 198.89 283.861C197.47 283.861 196.31 284.101 195.41 284.581C194.51 285.061 194.06 285.741 194.06 286.621C194.06 287.561 194.47 288.261 195.29 288.721C196.11 289.161 197.18 289.381 198.5 289.381Z" fill="white"/>
<path d="M173.778 291.241C173.178 291.241 172.758 291.181 172.518 291.061V289.111C172.838 289.151 173.108 289.171 173.328 289.171C173.988 289.171 174.478 288.981 174.798 288.601C175.138 288.221 175.338 287.571 175.398 286.651L176.028 276.061H188.238V290.941H186.198V277.921H177.948L177.408 286.951C177.248 289.811 176.038 291.241 173.778 291.241Z" fill="white"/>
<path d="M162.824 283.291L171.914 290.941H169.094L160.304 283.591V290.941H158.264V276.061H160.304V283.171L168.524 276.061H171.194L162.824 283.291Z" fill="white"/>
<path d="M141.883 290.941H139.543V276.061H141.583V288.241H141.673L151.183 276.061H153.553V290.941H151.483V278.731H151.393L141.883 290.941Z" fill="white"/>
<path d="M120.207 296.941V276.061H122.157V278.791H122.247C122.747 277.871 123.547 277.121 124.647 276.541C125.767 275.941 126.927 275.641 128.127 275.641C129.627 275.641 130.957 275.971 132.117 276.631C133.277 277.291 134.177 278.221 134.817 279.421C135.457 280.601 135.777 281.961 135.777 283.501C135.777 285.021 135.457 286.381 134.817 287.581C134.177 288.761 133.277 289.681 132.117 290.341C130.957 291.001 129.627 291.331 128.127 291.331C126.967 291.331 125.847 291.061 124.767 290.521C123.707 289.961 122.897 289.221 122.337 288.301H122.247V296.941H120.207ZM127.947 289.471C129.067 289.471 130.057 289.221 130.917 288.721C131.777 288.221 132.437 287.521 132.897 286.621C133.377 285.721 133.617 284.681 133.617 283.501C133.617 282.321 133.377 281.281 132.897 280.381C132.437 279.461 131.777 278.751 130.917 278.251C130.057 277.751 129.067 277.501 127.947 277.501C126.847 277.501 125.867 277.751 125.007 278.251C124.147 278.751 123.467 279.461 122.967 280.381C122.487 281.281 122.247 282.321 122.247 283.501C122.247 284.681 122.487 285.721 122.967 286.621C123.467 287.521 124.147 288.221 125.007 288.721C125.867 289.221 126.847 289.471 127.947 289.471Z" fill="white"/>
<path d="M103.849 290.941H101.809V276.061H115.459V290.941H113.389V277.921H103.849V290.941Z" fill="white"/>
<path d="M84.4017 291.331C82.0417 291.331 80.2617 290.901 79.0617 290.041C77.8617 289.181 77.2617 288.001 77.2617 286.501H79.4217C79.4217 287.401 79.8417 288.121 80.6817 288.661C81.5217 289.201 82.7617 289.471 84.4017 289.471C86.0617 289.471 87.2917 289.231 88.0917 288.751C88.9117 288.271 89.3217 287.591 89.3217 286.711C89.3217 285.051 88.0217 284.221 85.4217 284.221H81.7917V282.451H85.4217C87.7417 282.451 88.9017 281.651 88.9017 280.051C88.9017 279.231 88.5317 278.601 87.7917 278.161C87.0517 277.721 85.9217 277.501 84.4017 277.501C82.8817 277.501 81.7117 277.761 80.8917 278.281C80.0717 278.801 79.6617 279.471 79.6617 280.291H77.5317C77.5317 278.891 78.1417 277.771 79.3617 276.931C80.5817 276.071 82.2617 275.641 84.4017 275.641C86.5617 275.641 88.2117 276.011 89.3517 276.751C90.4917 277.491 91.0617 278.531 91.0617 279.871C91.0617 280.711 90.8417 281.401 90.4017 281.941C89.9617 282.481 89.3517 282.871 88.5717 283.111V283.231C89.5117 283.451 90.2317 283.871 90.7317 284.491C91.2317 285.111 91.4817 285.861 91.4817 286.741C91.4817 288.201 90.8817 289.331 89.6817 290.131C88.4817 290.931 86.7217 291.331 84.4017 291.331Z" fill="white"/>
<path d="M73.9005 276.061H76.1205L69.3405 291.541C68.7405 292.921 68.1705 294.011 67.6305 294.811C67.0905 295.631 66.4805 296.241 65.8005 296.641C65.1405 297.041 64.3505 297.241 63.4305 297.241C62.8105 297.241 62.2305 297.151 61.6905 296.971V295.111C62.1705 295.291 62.6905 295.381 63.2505 295.381C64.0905 295.381 64.8005 295.111 65.3805 294.571C65.9805 294.031 66.5705 293.011 67.1505 291.511L67.3305 291.031L59.9805 276.061H62.3205L68.3805 288.541H68.4705L73.9005 276.061Z" fill="white"/>
<path d="M54.6316 279.811C55.8716 280.191 56.8316 280.841 57.5116 281.761C58.2116 282.661 58.5616 283.741 58.5616 285.001C58.5616 286.941 57.9116 288.421 56.6116 289.441C55.3316 290.441 53.4616 290.941 51.0016 290.941H41.8516V269.941H50.9116C53.0516 269.941 54.6916 270.401 55.8316 271.321C56.9916 272.221 57.5716 273.511 57.5716 275.191C57.5716 276.251 57.3216 277.171 56.8216 277.951C56.3216 278.711 55.5916 279.301 54.6316 279.721V279.811ZM44.1016 272.011V279.001H51.0016C52.3416 279.001 53.3816 278.691 54.1216 278.071C54.8616 277.451 55.2316 276.581 55.2316 275.461C55.2316 274.321 54.8616 273.461 54.1216 272.881C53.4016 272.301 52.3316 272.011 50.9116 272.011H44.1016ZM51.0316 288.871C52.7316 288.871 54.0216 288.541 54.9016 287.881C55.7816 287.221 56.2216 286.241 56.2216 284.941C56.2216 283.661 55.8016 282.681 54.9616 282.001C54.1216 281.301 52.9216 280.951 51.3616 280.951H44.1016V288.871H51.0316Z" fill="white"/>
<defs>
<radialGradient id="paint0_radial_227_140" cx="0" cy="0" r="1" gradientUnits="userSpaceOnUse" gradientTransform="translate(-36.4155 381.908) rotate(-22.8404) scale(444.089 382.216)">
<stop stop-color="#AC95FF"/>
<stop offset="1" stop-color="#8131FF"/>
</radialGradient>
</defs>
</svg>
