<svg xmlns="http://www.w3.org/2000/svg" width="541" height="585" fill="none" viewBox="0 0 541 585">
  <path fill="#fff" d="M509.084 441.989a9.433 9.433 0 0 0-3.743 3.743 9.401 9.401 0 0 0-3.743-3.743 9.44 9.44 0 0 0 3.743-3.743 9.477 9.477 0 0 0 3.743 3.743Z"/>
  <path stroke="#2F3933" stroke-miterlimit="10" stroke-width="1.956" d="m71.229 220.75-13.153.013m-19.551.02 13.16-.013m3.176-16.355.013 13.159m.02 19.543-.013-13.152"/>
  <path stroke="#2F3933" stroke-miterlimit="10" stroke-width="2.608" d="M111.005 105.468a10.97 10.97 0 0 0-6.358 8.96 10.995 10.995 0 0 0 .944 5.606 11 11 0 0 0 3.621 4.384 11.006 11.006 0 0 0 10.942 1.023 10.984 10.984 0 0 0 6.357-8.966 10.98 10.98 0 0 0-4.564-9.983 10.984 10.984 0 0 0-10.942-1.024Zm364.868 148.154a6.443 6.443 0 0 0-3.729 5.262 6.456 6.456 0 0 0 2.686 5.869 6.482 6.482 0 0 0 6.43.6 6.457 6.457 0 0 0 1.043-11.131 6.46 6.46 0 0 0-6.43-.6Z"/>
  <path fill="#2F3933" d="M377.029 34.945a10.967 10.967 0 0 0 .652 10.968 10.98 10.98 0 0 0 15.218 3.13 10.987 10.987 0 0 0 4.921-9.823 10.99 10.99 0 0 0-6.051-9.171 11.017 11.017 0 0 0-5.572-1.149 10.998 10.998 0 0 0-9.168 6.045ZM86.234 156.852c.19.339.476.972.867 1.846a45.44 45.44 0 0 0 2.335 4.747 1.637 1.637 0 0 1-1.76 2.458l-40.43-9.435a1.118 1.118 0 0 1-.398-.176 1.148 1.148 0 0 1-.456-1.187c.042-.175.125-.338.241-.476.652-1.35 4.154-11.542 5.66-15.944a242.1 242.1 0 0 1 1.109-3.201 525.852 525.852 0 0 1 3.6-9.729c.616-1.618 1.245-3.23 1.884-4.839.039-.091.078-.222.13-.378.372-1.089.874-2.608 2.126-2.752a1.85 1.85 0 0 1 1.82.991m23.807 44.577c-.652-1.2-1.252-2.609-1.754-3.724a61.937 61.937 0 0 0-.776-1.669l-.196-.352-2.654 1.219a1.143 1.143 0 0 1-.582.098 1.14 1.14 0 0 1-.553-.209 1.1 1.1 0 0 1-.332-.469 1.141 1.141 0 0 1 .554-1.513l2.484-1.135c-.651-1.128-1.264-2.249-1.89-3.351l-1.918 1.023a1.136 1.136 0 0 1-1.193-.078 1.115 1.115 0 0 1-.346-.391 1.14 1.14 0 0 1 .47-1.539l1.852-.985a401.154 401.154 0 0 0-2.309-3.977l-1.708.984a1.145 1.145 0 0 1-1.558-.417 1.14 1.14 0 0 1 .417-1.552l1.695-.978c-.587-.985-1.167-1.956-1.754-2.934l-2.021 1.304a1.128 1.128 0 0 1-1.304 0 1.137 1.137 0 0 1 .033-1.878l2.092-1.376c-.652-1.122-1.362-2.237-2.047-3.339l-1.917 1.265a1.144 1.144 0 0 1-1.305-.032 1.14 1.14 0 0 1-.275-1.578c.086-.122.195-.227.321-.307l1.956-1.232c-.547-.881-1.095-1.741-1.643-2.609l-1.923 1.096a1.136 1.136 0 0 1-1.577-1.274c.06-.275.22-.518.448-.682l1.833-1.044a84.834 84.834 0 0 0-1.304-1.956l-1.402.913a1.128 1.128 0 0 1-1.305 0 1.173 1.173 0 0 1-.293-.3 1.142 1.142 0 0 1 .326-1.578l1.409-.92c-1.148-1.76-2.3-3.499-3.456-5.216-.111.267-.203.547-.255.704a8.291 8.291 0 0 1-.176.489 379.66 379.66 0 0 0-1.871 4.812 502.863 502.863 0 0 0-3.587 9.684c-.137.372-.541 1.552-1.095 3.169-2.967 8.679-4.454 13.009-5.354 15.141l37.743 8.693Z"/>
  <path fill="#2F3933" d="M74.873 154.811a1.144 1.144 0 0 1-1.193.391l-16.08-4.375a1.001 1.001 0 0 1-.36-.17 1.154 1.154 0 0 1-.338-.371 1.183 1.183 0 0 1-.098-.881l3.625-12.337c0-.111.066-.3.118-.522.326-1.545.652-3.143 1.897-3.397 1.507-.307 2.609 1.48 4.526 5.595.182.397.326.704.41.86l7.597 13.955a1.128 1.128 0 0 1-.104 1.252Zm-3.17-2.504-6.318-11.614a17.715 17.715 0 0 1-.476-.991 35.77 35.77 0 0 0-1.904-3.684 16.7 16.7 0 0 0-.235 1.004 9.092 9.092 0 0 1-.163.685l-3.293 11.229 12.39 3.371Zm55.109 299.73c-.965-1.363-1.128-2.686-.443-3.638.43-.6 1.304-1.239 3.195-.913 2.85.508 6.599 2.275 7.773 5.588.45 1.304.222 3.019-1.102 3.854-1.004.652-2.308.587-3.867-.176a14.496 14.496 0 0 1-3.912-2.791 13.585 13.585 0 0 1-1.644-1.924Zm1.572-1.115a12.82 12.82 0 0 0 4.825 4.102c.515.248 1.461.652 1.996.28a1.409 1.409 0 0 0 .313-1.584 5.08 5.08 0 0 0-1.239-1.911 9.935 9.935 0 0 0-5.047-2.426c-.652-.111-1.155-.058-1.305.144-.149.202.027.795.457 1.395Z"/>
  <path fill="#2F3933" d="M121.405 507.067a37.579 37.579 0 0 1-20.743-6.064 36.975 36.975 0 0 1-5.79-4.695 37.513 37.513 0 0 1-8.08-11.875c-.613-1.447-1.154-3.143-.495-4.767.574-1.395 1.878-2.236 3.084-2.875a70.425 70.425 0 0 1 9.449-3.913c4.708-1.669 9.129-3.26 12.898-6.155 4.76-3.698 7.916-9.319 10.694-14.307a8.436 8.436 0 0 1-1.148-2.797 4.985 4.985 0 0 1 .874-4.05c1.709-2.132 4.747-1.904 6.404-1.571 3.7.75 7.089 2.595 9.729 5.294 4.108 4.2 3.573 7.141 2.399 8.862a6.22 6.22 0 0 1-5.281 2.543l-.053.105c-3.645 5.451-7.772 11.633-9.279 18.415-1.506 6.781-.41 13.922.652 20.866l.079.541c.234 1.533.397 3.261-.652 4.656-1.155 1.572-3.261 1.774-4.741 1.787Zm1.761-57.788a7.321 7.321 0 0 0 1.271 2.739 16.95 16.95 0 0 0 7.297 5.947c1.277.6 2.679.887 4.088.835a4.328 4.328 0 0 0 3.261-1.709c1.115-1.643.385-3.808-2.185-6.429a16.862 16.862 0 0 0-8.724-4.76c-.992-.196-3.417-.502-4.526.886a3.15 3.15 0 0 0-.482 2.491Zm1.46 54.86c.574-.769.444-2.008.261-3.208l-.078-.535c-1.083-7.094-2.204-14.437-.652-21.558 1.519-6.827 5.471-12.93 9.083-18.349a13.365 13.365 0 0 1-2.282-.75 18.798 18.798 0 0 1-7.329-5.556c-2.765 4.936-5.941 10.349-10.747 14.079-3.991 3.103-8.79 4.805-13.433 6.455a67.77 67.77 0 0 0-9.194 3.776c-.94.495-1.858 1.076-2.198 1.904-.397.965 0 2.204.483 3.26a35.273 35.273 0 0 0 32.845 21.499c1.735 0 2.733-.339 3.241-1.017Zm396.835-331.285a9.131 9.131 0 0 1 3.338 5.276 9.468 9.468 0 0 1-2.458 7.988 14.338 14.338 0 0 1-7.173 4.01c-.391.098-.789.183-1.193.274-1.82.404-3.535.789-4.565 1.995a8.794 8.794 0 0 0-.58.829 4.669 4.669 0 0 1-2.119 2.06 3.898 3.898 0 0 1-1.559 2.608 4.09 4.09 0 0 1-3.26.809 4.192 4.192 0 0 1-2.498-1.604 4.4 4.4 0 0 1-.887-3.345 4.565 4.565 0 0 1 3.104-3.535c.199-.745.52-1.453.952-2.093.131-.208.255-.417.372-.619a8.69 8.69 0 0 0 .952-3.658c.039-.483.059-.959.078-1.441.016-1.169.134-2.334.352-3.483a10.684 10.684 0 0 1 12.205-8.244 10.681 10.681 0 0 1 4.893 2.187l.046-.014Zm-17.463 23.475c.339-.25.597-.595.743-.991a3.874 3.874 0 0 1-1.304-.684 4.873 4.873 0 0 1-.848-.868 5.476 5.476 0 0 1-.828-1.578 2.672 2.672 0 0 0-1.304 1.82 2.525 2.525 0 0 0 1.852 2.751 2.203 2.203 0 0 0 1.689-.43v-.02Zm7.877-23.403a8.94 8.94 0 0 0-5.627 6.378 18.08 18.08 0 0 0-.313 3.149c0 .502-.04 1.004-.079 1.506a10.76 10.76 0 0 1-1.186 4.435c-.131.234-.274.469-.418.704a4.747 4.747 0 0 0-.756 1.637 3.038 3.038 0 0 0 1.147 2.412 1.422 1.422 0 0 0 1.383.326c.469-.182.808-.71 1.206-1.304.222-.352.464-.692.724-1.017 1.435-1.702 3.652-2.198 5.608-2.608.385-.085.769-.17 1.141-.268a12.38 12.38 0 0 0 6.214-3.443 7.465 7.465 0 0 0 1.957-6.305 6.562 6.562 0 0 0-1.272-2.746 8.008 8.008 0 0 0-1.376-1.408 8.942 8.942 0 0 0-8.353-1.428v-.02Z"/>
</svg>
