<svg width="1973" height="471" viewBox="0 0 1973 471" fill="none" xmlns="http://www.w3.org/2000/svg">
<g clip-path="url(#clip0_211_220)">
<path d="M549.943 311.581L589.525 271.998L629.108 311.581C647.523 329.995 647.523 359.888 629.108 378.302L589.525 417.885L549.943 378.302C531.528 359.888 531.528 329.995 549.943 311.581Z" fill="#0A535F"/>
<path d="M743.783 263.646L704.201 303.229C685.786 321.644 655.894 321.644 637.479 303.229L597.896 263.646L637.479 224.064C655.894 205.649 685.786 205.649 704.201 224.064L743.783 263.646Z" fill="#0A535F"/>
<path d="M629.491 216.125L589.908 255.707L550.326 216.125C531.911 197.71 531.911 167.817 550.326 149.403L589.908 109.82L629.491 149.403C647.905 167.817 647.905 197.71 629.491 216.125Z" fill="#0A535F"/>
<path d="M435.68 264.052L475.262 224.469C493.677 206.055 523.569 206.055 541.984 224.469L581.566 264.052L541.984 303.634C523.569 322.049 493.677 322.049 475.262 303.634L435.68 264.052Z" fill="#0A535F"/>
<path d="M807.229 146.653V170.926C819.011 170.926 838.681 173.833 847.784 187.309V158.891C836.128 150.395 821.792 146.881 807.229 146.628V146.653Z" fill="#0A535F"/>
<path d="M847.785 158.916V187.335C858.834 174.592 873.17 170.951 888.821 170.951V146.679C874.257 146.932 859.441 150.446 847.785 158.941V158.916Z" fill="#0A535F"/>
<path d="M868.416 95.6561V119.928C880.198 119.928 899.869 122.836 908.971 136.312V107.893C897.315 99.3981 882.979 95.8837 868.416 95.6309V95.6561Z" fill="#0A535F"/>
<path d="M1062.32 66.4531H919.539C913.825 66.4531 909.198 71.1053 909.198 76.7942V107.741C920.829 99.3725 935.519 95.8834 949.981 95.6305V119.903C934.432 119.903 920.197 123.493 909.198 136.034V252.415C909.198 255.449 907.909 258.331 905.633 260.354C903.686 262.098 901.158 263.034 898.579 263.034C898.175 263.034 897.77 263.034 897.34 262.958C896.809 262.908 896.278 262.857 895.722 262.857H836.103C835.572 262.857 835.016 262.882 834.485 262.958C834.081 263.009 833.651 263.034 833.246 263.034C830.667 263.034 828.139 262.073 826.192 260.354C823.916 258.331 822.627 255.449 822.627 252.415V214.868C822.627 209.154 817.975 204.527 812.286 204.527H773.551C768.52 204.527 764.449 208.623 764.449 213.63V266.119C764.449 271.15 768.545 275.221 773.551 275.221H812.033C817.899 275.221 822.652 279.974 822.652 285.84V317.141C822.652 324.574 828.695 330.617 836.128 330.617H895.747C903.181 330.617 909.224 324.574 909.224 317.141V285.84C909.224 279.974 913.977 275.221 919.843 275.221H1062.34C1068.06 275.221 1072.68 270.568 1072.68 264.88V76.7942C1072.68 71.0801 1068.03 66.4531 1062.34 66.4531H1062.32ZM1011.17 170.925C995.517 170.925 981.181 174.566 970.132 187.309C961.03 173.833 941.359 170.925 929.577 170.925V146.653C944.14 146.906 958.476 150.42 970.132 158.916C981.788 150.42 996.604 146.906 1011.17 146.653V170.925Z" fill="#0A535F"/>
<path d="M598.639 432.486L627.26 461.107C641.141 447.226 667.764 427.48 694.388 432.612L660.887 399.111C637.12 402.828 616.084 415.571 598.613 432.461L598.639 432.486Z" fill="#0A535F"/>
<path d="M660.912 399.137L694.413 432.638C692.416 404.573 705.007 383.41 723.464 364.928L694.843 336.307C677.953 353.778 664.629 375.395 660.912 399.137Z" fill="#0A535F"/>
<path d="M17.7734 283.464V333.652C42.1216 333.652 82.7778 339.669 101.614 367.532V308.798C77.5188 291.226 47.9116 283.944 17.7734 283.438V283.464Z" fill="#0A535F"/>
<path d="M101.615 308.798V367.532C124.446 341.187 154.079 333.652 186.442 333.652V283.464C156.329 283.97 125.711 291.251 101.615 308.823V308.798Z" fill="#0A535F"/>
<path d="M17.7734 199.37V249.558C42.1216 249.558 82.7778 255.576 101.614 283.438V224.704C77.5188 207.132 47.9116 199.85 17.7734 199.345V199.37Z" fill="#0A535F"/>
<path d="M101.615 224.73V283.464C124.446 257.118 154.079 249.584 186.442 249.584V199.396C156.329 199.901 125.711 207.183 101.615 224.755V224.73Z" fill="#0A535F"/>
<path d="M17.7734 115.302V165.49C42.1216 165.49 82.7778 171.507 101.614 199.37V140.636C77.5188 123.064 47.9116 115.782 17.7734 115.276V115.302Z" fill="#0A535F"/>
<path d="M101.615 140.636V199.37C124.446 173.024 154.079 165.49 186.442 165.49V115.302C156.329 115.807 125.711 123.089 101.615 140.661V140.636Z" fill="#0A535F"/>
<path d="M865.937 428.718C802.475 428.718 750.871 377.089 750.871 313.652H811.021C811.021 343.942 835.647 368.569 865.937 368.569C896.227 368.569 920.853 343.942 920.853 313.652H981.003C981.003 377.089 929.399 428.718 865.937 428.718Z" fill="#0A535F"/>
<path d="M965.431 435.849C970.584 435.849 974.761 431.672 974.761 426.519C974.761 421.366 970.584 417.189 965.431 417.189C960.279 417.189 956.102 421.366 956.102 426.519C956.102 431.672 960.279 435.849 965.431 435.849Z" fill="#0A535F"/>
<path d="M1225.93 300.834L1202.85 277.724L1219.36 261.214L1234.2 276.056C1235.71 277.573 1238.19 277.573 1239.71 276.056L1271.84 243.945L1288.36 260.456L1247.98 300.834C1241.91 306.902 1232.05 306.902 1225.95 300.834H1225.93Z" fill="#0A535F"/>
<path d="M1296.77 404.32C1259.25 366.799 1259.25 305.764 1296.77 268.243L1332.35 303.817C1314.45 321.718 1314.45 350.845 1332.35 368.746C1350.25 386.647 1379.38 386.647 1397.28 368.746L1432.85 404.32C1395.33 441.841 1334.29 441.841 1296.77 404.32Z" fill="#0A535F"/>
<path d="M1779.09 445.709C1673.93 445.709 1588.37 360.149 1588.37 254.994H1688.06C1688.06 305.182 1728.9 346.015 1779.09 346.015C1829.27 346.015 1870.11 305.182 1870.11 254.994H1969.8C1969.8 360.149 1884.24 445.709 1779.09 445.709Z" fill="#0A535F"/>
<path d="M1364.48 338.026L1348.2 321.668C1357.17 312.742 1371.89 312.768 1380.82 321.693C1389.74 330.618 1389.77 345.409 1380.82 354.359L1364.48 338.026Z" fill="#0A535F"/>
<path d="M1364.53 337.975L1380.82 354.333C1371.84 363.259 1357.13 363.233 1348.2 354.308C1339.28 345.383 1339.25 330.592 1348.2 321.642L1364.53 337.975Z" fill="#0A535F"/>
<path d="M1304.38 180.281L1281.25 203.416C1292.48 214.642 1308.43 236.133 1304.26 257.649L1331.31 230.596C1328.3 211.406 1318.01 194.415 1304.38 180.307V180.281Z" fill="#0A535F"/>
<path d="M1331.31 230.596L1304.26 257.649C1326.91 256.031 1344.03 266.195 1358.94 281.112L1382.08 257.978C1367.97 244.325 1350.52 233.579 1331.33 230.57L1331.31 230.596Z" fill="#0A535F"/>
<path d="M1343.95 140.712L1320.82 163.846C1332.04 175.072 1348 196.564 1343.83 218.08L1370.88 191.026C1367.87 171.836 1357.58 154.845 1343.95 140.737V140.712Z" fill="#0A535F"/>
<path d="M1370.88 191.001L1343.82 218.054C1366.48 216.436 1383.6 226.6 1398.51 241.518L1421.65 218.383C1407.54 204.73 1390.09 193.984 1370.9 190.976L1370.88 191.001Z" fill="#0A535F"/>
<path d="M1071.88 234.237H1088.72C1088.72 226.07 1090.74 212.442 1100.07 206.121H1080.37C1074.48 214.212 1072.03 224.123 1071.88 234.237Z" fill="#0A535F"/>
<path d="M1080.37 206.121H1100.07C1091.22 198.46 1088.72 188.523 1088.72 177.677H1071.88C1072.05 187.765 1074.48 198.055 1080.37 206.121Z" fill="#0A535F"/>
<path d="M1102.29 234.237H1119.13C1119.13 226.07 1121.15 212.442 1130.48 206.121H1110.78C1104.89 214.212 1102.44 224.123 1102.29 234.237Z" fill="#0A535F"/>
<path d="M1110.78 206.121H1130.48C1121.63 198.46 1119.13 188.523 1119.13 177.677H1102.29C1102.47 187.765 1104.89 198.055 1110.78 206.121Z" fill="#0A535F"/>
<path d="M1132.73 234.237H1149.57C1149.57 226.07 1151.6 212.442 1160.93 206.121H1141.23C1135.34 214.212 1132.89 224.123 1132.73 234.237Z" fill="#0A535F"/>
<path d="M1141.23 206.121H1160.93C1152.08 198.46 1149.57 188.523 1149.57 177.677H1132.73C1132.91 187.765 1135.34 198.055 1141.23 206.121Z" fill="#0A535F"/>
<path d="M1163.15 234.237H1179.99C1179.99 226.07 1182.01 212.442 1191.34 206.121H1171.64C1165.75 214.212 1163.3 224.123 1163.15 234.237Z" fill="#0A535F"/>
<path d="M1171.67 206.121H1191.36C1182.51 198.46 1180.01 188.523 1180.01 177.677H1163.17C1163.35 187.765 1165.78 198.055 1171.67 206.121Z" fill="#0A535F"/>
<path d="M1490.9 119.372V177.196C1518.94 177.196 1565.79 184.124 1587.49 216.234V148.575C1559.72 128.323 1525.59 119.954 1490.9 119.372Z" fill="#0A535F"/>
<path d="M1587.49 148.575V216.234C1613.81 185.868 1647.91 177.196 1685.23 177.196V119.372C1650.54 119.954 1615.25 128.348 1587.49 148.575Z" fill="#0A535F"/>
<path d="M1432.35 253.654C1405.37 280.632 1405.37 324.398 1432.35 351.376L1490.3 409.326V195.704L1432.35 253.654Z" fill="#0A535F"/>
<path d="M1548.25 351.376C1575.22 324.398 1575.22 280.632 1548.25 253.654L1490.3 195.704V409.326L1548.25 351.376Z" fill="#0A535F"/>
<path d="M1778.02 255.146L1816.28 255.247C1816.23 276.182 1798.98 293.4 1778.02 293.4C1757.04 293.4 1739.77 276.131 1739.77 255.146H1778.02Z" fill="#0A535F"/>
<path d="M318.522 547.856C272.632 501.966 272.632 427.278 318.522 381.388L362.035 424.901C340.139 446.797 340.139 482.447 362.035 504.342C383.931 526.238 419.581 526.238 441.477 504.342L484.99 547.856C439.1 593.746 364.412 593.746 318.522 547.856Z" fill="#0A535F"/>
<path d="M415.13 451.246C369.24 405.356 369.24 330.668 415.13 284.778L458.644 328.292C436.748 350.187 436.748 385.837 458.644 407.733C480.539 429.629 516.189 429.629 538.085 407.733L581.598 451.246C535.708 497.136 461.02 497.136 415.13 451.246Z" fill="#0A535F"/>
<path d="M1012.84 50.7773L956.455 50.7773C930.211 50.7773 908.922 29.4885 908.922 3.24398V-53.1387L965.305 -53.1387C991.549 -53.1387 1012.84 -31.8498 1012.84 -5.60532V50.7773Z" fill="#0A535F"/>
<path d="M681.064 179.244L601.066 99.2463L658.258 42.0545L709.66 93.4563C714.919 98.7153 723.465 98.7153 728.724 93.4563L839.997 -17.792L897.189 39.3997L757.32 179.269C736.258 200.331 702.1 200.331 681.064 179.269V179.244Z" fill="#0A535F"/>
<path d="M33.2984 481.384C25.865 481.384 19.8223 475.342 19.8223 467.908V408.289C19.8223 400.856 25.865 394.813 33.2984 394.813H200.726C206.592 394.813 211.345 390.06 211.345 384.194V342.324C211.345 336.61 215.998 331.983 221.687 331.983H272.76C278.625 331.983 283.379 327.23 283.379 321.364V259.343C283.379 253.629 288.031 249.002 293.72 249.002H359.786C365.5 249.002 370.127 253.654 370.127 259.343V345.358C370.127 350.364 366.031 354.46 361.025 354.46H297.816C291.95 354.46 287.197 359.214 287.197 365.079V384.472C287.197 390.186 282.544 394.813 276.855 394.813H234.126C231.092 394.813 228.21 396.103 226.187 398.378C224.164 400.654 223.229 403.662 223.557 406.671C223.608 407.202 223.659 407.733 223.659 408.289V467.908C223.659 475.342 217.616 481.384 210.182 481.384H33.2732H33.2984Z" fill="#0A535F"/>
<path d="M646.478 480.297L675.1 508.918C688.98 495.038 715.604 475.291 742.228 480.424L708.727 446.923C684.96 450.64 663.924 463.383 646.453 480.272L646.478 480.297Z" fill="#0A535F"/>
<path d="M708.727 446.948L742.227 480.449C740.23 452.384 752.821 431.222 771.279 412.739L742.657 384.118C725.768 401.589 712.443 423.207 708.727 446.948Z" fill="#0A535F"/>
<path d="M756.562 494.785L790.063 528.286C788.066 500.221 800.657 479.059 819.114 460.576L790.493 431.955C773.604 449.426 760.279 471.044 756.562 494.785Z" fill="#0A535F"/>
<path d="M-31.5297 193.731H0.100195V225.361C0.100195 240.076 -11.8337 252.01 -26.5488 252.01H-58.1787V220.38C-58.1787 205.665 -46.2448 193.731 -31.5297 193.731Z" fill="#0A535F"/>
<path d="M1633.19 635.997L1577.59 580.396C1551.72 554.526 1551.72 512.512 1577.59 486.642L1633.19 431.04L1688.79 486.642C1714.66 512.512 1714.66 554.526 1688.79 580.396L1633.19 635.997Z" fill="#0A535F"/>
<path d="M1190.2 496.226H1143.05C1121.1 496.226 1103.3 478.426 1103.3 456.48V409.326H1150.46C1172.4 409.326 1190.2 427.125 1190.2 449.071V496.226Z" fill="#0A535F"/>
<path d="M1103.3 402.322V355.168C1103.3 333.222 1121.1 315.422 1143.05 315.422H1190.2V362.576C1190.2 384.522 1172.4 402.322 1150.46 402.322H1103.3Z" fill="#0A535F"/>
<path d="M1008.64 315.422H1055.79C1077.74 315.422 1095.54 333.222 1095.54 355.168V402.322H1048.39C1026.44 402.322 1008.64 384.522 1008.64 362.576V315.422Z" fill="#0A535F"/>
<path d="M1095.52 409.351V456.505C1095.52 478.451 1077.72 496.251 1055.77 496.251H1008.62V449.097C1008.62 427.15 1026.42 409.351 1048.36 409.351H1095.52Z" fill="#0A535F"/>
<path d="M1464.91 515.037L1408.3 458.402L1448.78 417.922L1485.16 454.306C1488.88 458.022 1494.92 458.022 1498.66 454.306L1577.42 375.572L1617.9 416.051L1518.92 515.037C1504 529.955 1479.85 529.929 1464.94 515.037H1464.91Z" fill="#0A535F"/>
<path d="M1230.96 470.134C1193.44 432.612 1193.44 371.578 1230.96 334.057L1266.53 369.631C1248.63 387.532 1248.63 416.658 1266.53 434.559C1284.43 452.46 1313.56 452.46 1331.46 434.559L1367.04 470.134C1329.51 507.655 1268.48 507.655 1230.96 470.134Z" fill="#0A535F"/>
<path d="M1790.69 120.965C1762.4 120.965 1739.44 143.897 1739.44 172.215V232.997L1851.47 120.965H1790.69Z" fill="#0A535F"/>
<path d="M1800.22 232.997C1828.52 232.997 1851.47 210.065 1851.47 181.747V120.965L1739.44 232.997H1800.22Z" fill="#0A535F"/>
<path d="M1911.85 -0.194336C1883.56 -0.194336 1860.62 22.738 1860.62 51.0304V111.787L1972.58 -0.169047H1911.82L1911.85 -0.194336Z" fill="#0A535F"/>
<path d="M1921.38 111.787C1949.67 111.787 1972.6 88.8549 1972.6 60.5624V-0.194336L1860.65 111.762H1921.41L1921.38 111.787Z" fill="#0A535F"/>
<path d="M1851.04 50.8789C1851.04 22.6875 1828.18 -0.168945 1799.99 -0.168945H1739.44L1851.07 111.459V50.9041L1851.04 50.8789Z" fill="#0A535F"/>
<path d="M1739.44 60.3854C1739.44 88.5767 1762.3 111.433 1790.49 111.433H1851.04L1739.41 -0.194336V60.3601L1739.44 60.3854Z" fill="#0A535F"/>
<path d="M1972.61 172.19C1972.61 143.873 1949.65 120.94 1921.36 120.94H1860.57L1972.63 232.998V172.216L1972.61 172.19Z" fill="#0A535F"/>
<path d="M1860.55 181.748C1860.55 210.065 1883.51 232.998 1911.8 232.998H1972.58L1860.52 120.94V181.722L1860.55 181.748Z" fill="#0A535F"/>
</g>
<defs>
<clipPath id="clip0_211_220">
<rect width="1973" height="471" fill="white"/>
</clipPath>
</defs>
</svg>
