<svg xmlns="http://www.w3.org/2000/svg" width="2036" height="267" fill="none" viewBox="0 0 2036 267">
  <path fill="#9DD800" fill-rule="evenodd" d="M0 200.213v-11.502c61.637 19.239 113.773 10.855 151.736-8.643-.244-.395-.484-.79-.722-1.185-20.114-33.439-17.842-69.34-4.637-93.982 6.588-12.296 16.059-22.069 27.162-27.123 11.266-5.13 23.969-5.256 36.123 1.47 18.033 9.979 23.508 28.574 19.436 48.308-4.03 19.524-17.356 40.809-37.77 58.838-7.029 6.207-14.93 12.057-23.635 17.344 20.385 26.088 58.098 50.16 121.748 62.845 72.161 14.382 177.164 14.001 326.53-14.426 252.156-47.99 379.877-97.343 474.249-133.811l.03-.012c17.51-6.767 33.87-13.089 49.67-18.876 50.66-18.56 95.67-31.687 153.84-36.17 58.07-4.476 129-.32 231.57 15.335 102.59 15.657 175.82 34.006 227.44 52.897 14.27 5.221 26.92 10.498 38.11 15.788 1.67-7.84 3.91-15.711 6.77-23.481 12.51-34.003 36.88-66.321 76.92-85.504C1913.33-.245 1966.15-6.216 2036 9.647v11.287c-69.37-16.177-120.3-10.117-156.68 7.31-37.07 17.76-59.67 47.634-71.35 79.381a161.929 161.929 0 0 0-6.9 24.714c23.56 12.144 39.67 24.291 50.15 35.961 16.67 18.574 19.31 36.289 14.26 50.253-4.85 13.416-16.6 22.537-27 24.419-11.46 2.073-21.58-2.072-29.51-10.015-7.8-7.802-13.59-19.304-17.25-32.66-4.84-17.683-6.14-39.329-2.86-61.761-11.45-5.534-24.66-11.119-39.88-16.687-50.69-18.553-123.15-36.76-225.31-52.352-102.18-15.596-172.19-19.627-229.07-15.242-56.78 4.376-100.74 17.154-150.89 35.531-15.74 5.765-32.06 12.073-49.55 18.832-94.463 36.503-222.976 86.165-476.133 134.345-150.132 28.573-256.677 29.168-330.736 14.408-66.377-13.228-107.051-38.893-129.275-68.169C118.096 210.108 63.693 219.225 0 200.213Zm1836.52 31.935c-7.29 1.319-13.91-1.1-19.77-6.966-6-6.008-11.07-15.559-14.42-27.791-4.17-15.21-5.5-33.934-3.08-53.592 20.89 11.101 34.85 21.904 43.78 31.851 14.58 16.23 15.5 29.793 12.11 39.163-3.59 9.918-12.27 16.186-18.62 17.335ZM184.047 158.149c-6.701 5.918-14.285 11.512-22.688 16.564-.312-.5-.619-1-.92-1.5-18.058-30.023-15.793-61.792-4.367-83.116 5.727-10.686 13.594-18.47 22.026-22.308 8.267-3.764 17.295-3.866 26.238 1.083 12.717 7.037 17.369 20.078 13.988 36.461-3.424 16.593-15.129 35.905-34.277 52.816Z" clip-rule="evenodd"/>
</svg>
